DoulosSILCipher-Regular.ufo
<glyph name="ampersand" format="2">
  <advance width="1595"/>
  <unicode hex="0026"/>
  <outline>
    <contour>
      <point x="818" y="220" type="qcurve"/>
      <point x="751" y="313"/>
      <point x="660" y="441"/>
      <point x="634" y="485" type="qcurve"/>
      <point x="609" y="528"/>
      <point x="555" y="629"/>
      <point x="523" y="690" type="qcurve"/>
      <point x="493" y="674"/>
      <point x="411" y="620"/>
      <point x="336" y="540"/>
      <point x="284" y="431"/>
      <point x="284" y="359" type="qcurve"/>
      <point x="284" y="309"/>
      <point x="316" y="213"/>
      <point x="380" y="137"/>
      <point x="474" y="90"/>
      <point x="536" y="90" type="qcurve"/>
      <point x="582" y="90"/>
      <point x="663" y="115"/>
      <point x="733" y="154"/>
      <point x="793" y="200"/>
    </contour>
    <contour>
      <point x="910" y="1147" type="qcurve"/>
      <point x="910" y="1185"/>
      <point x="885" y="1248"/>
      <point x="842" y="1293"/>
      <point x="786" y="1317"/>
      <point x="756" y="1317" type="qcurve"/>
      <point x="702" y="1317"/>
      <point x="633" y="1271"/>
      <point x="594" y="1211"/>
      <point x="579" y="1151"/>
      <point x="579" y="1136" type="qcurve"/>
      <point x="579" y="1101"/>
      <point x="595" y="1024"/>
      <point x="621" y="949"/>
      <point x="650" y="879"/>
      <point x="664" y="850" type="qcurve"/>
      <point x="695" y="864"/>
      <point x="780" y="912"/>
      <point x="856" y="984"/>
      <point x="910" y="1083"/>
    </contour>
    <contour>
      <point x="1531" y="244" type="line"/>
      <point x="1523" y="206"/>
      <point x="1483" y="111"/>
      <point x="1411" y="26"/>
      <point x="1300" y="-32"/>
      <point x="1222" y="-32" type="qcurve"/>
      <point x="1163" y="-32"/>
      <point x="1059" y="7"/>
      <point x="970" y="66"/>
      <point x="898" y="134"/>
      <point x="871" y="164" type="qcurve"/>
      <point x="840" y="137"/>
      <point x="757" y="69"/>
      <point x="650" y="9"/>
      <point x="516" y="-32"/>
      <point x="434" y="-32" type="qcurve"/>
      <point x="344" y="-32"/>
      <point x="210" y="21"/>
      <point x="120" y="106"/>
      <point x="75" y="214"/>
      <point x="75" y="269" type="qcurve"/>
      <point x="75" y="331"/>
      <point x="114" y="440"/>
      <point x="179" y="534"/>
      <point x="264" y="614"/>
      <point x="356" y="682"/>
      <point x="450" y="736"/>
      <point x="491" y="758" type="qcurve"/>
      <point x="479" y="784"/>
      <point x="450" y="850"/>
      <point x="425" y="926"/>
      <point x="408" y="1011"/>
      <point x="408" y="1057" type="qcurve"/>
      <point x="408" y="1143"/>
      <point x="471" y="1268"/>
      <point x="571" y="1349"/>
      <point x="695" y="1388"/>
      <point x="756" y="1388" type="qcurve"/>
      <point x="822" y="1388"/>
      <point x="924" y="1347"/>
      <point x="992" y="1279"/>
      <point x="1027" y="1190"/>
      <point x="1027" y="1143" type="qcurve"/>
      <point x="1027" y="1095"/>
      <point x="995" y="1013"/>
      <point x="942" y="944"/>
      <point x="874" y="886"/>
      <point x="801" y="838"/>
      <point x="729" y="799"/>
      <point x="698" y="782" type="qcurve"/>
      <point x="822" y="558"/>
      <point x="963" y="369" type="qcurve"/>
      <point x="1139" y="578"/>
      <point x="1139" y="724" type="qcurve"/>
      <point x="1139" y="759"/>
      <point x="1114" y="803"/>
      <point x="1082" y="827"/>
      <point x="1051" y="835"/>
      <point x="1044" y="835" type="qcurve"/>
      <point x="1044" y="873" type="line"/>
      <point x="1467" y="873" type="line"/>
      <point x="1467" y="835" type="line"/>
      <point x="1425" y="830"/>
      <point x="1367" y="818"/>
      <point x="1314" y="775"/>
      <point x="1254" y="688"/>
      <point x="1210" y="607" type="qcurve"/>
      <point x="1167" y="526"/>
      <point x="1066" y="379"/>
      <point x="1011" y="310" type="qcurve"/>
      <point x="1033" y="285"/>
      <point x="1093" y="220"/>
      <point x="1168" y="162"/>
      <point x="1258" y="122"/>
      <point x="1311" y="122" type="qcurve"/>
      <point x="1359" y="122"/>
      <point x="1425" y="154"/>
      <point x="1467" y="200"/>
      <point x="1489" y="251"/>
      <point x="1494" y="270" type="qcurve"/>
    </contour>
  </outline>
</glyph>
<glyph name="parenleft" format="2">
  <advance width="682"/>
  <unicode hex="0028"/>
  <outline>
    <contour>
      <point x="634" y="-440" type="line"/>
      <point x="509" y="-382"/>
      <point x="306" y="-189"/>
      <point x="163" y="56"/>
      <point x="85" y="341"/>
      <point x="85" y="493" type="qcurve"/>
      <point x="85" y="646"/>
      <point x="165" y="932"/>
      <point x="309" y="1175"/>
      <point x="511" y="1365"/>
      <point x="634" y="1423" type="qcurve"/>
      <point x="634" y="1382" type="line"/>
      <point x="551" y="1338"/>
      <point x="418" y="1182"/>
      <point x="325" y="964"/>
      <point x="276" y="685"/>
      <point x="276" y="519" type="qcurve"/>
      <point x="276" y="437"/>
      <point x="286" y="264"/>
      <point x="313" y="92"/>
      <point x="362" y="-75"/>
      <point x="442" y="-225"/>
      <point x="556" y="-354"/>
      <point x="634" y="-402" type="qcurve"/>
    </contour>
  </outline>
</glyph>
<glyph name="parenright" format="2">
  <advance width="682"/>
  <unicode hex="0029"/>
  <outline>
    <contour>
      <point x="600" y="489" type="qcurve"/>
      <point x="600" y="336"/>
      <point x="518" y="48"/>
      <point x="370" y="-197"/>
      <point x="166" y="-386"/>
      <point x="45" y="-440" type="qcurve"/>
      <point x="45" y="-402" type="line"/>
      <point x="131" y="-356"/>
      <point x="266" y="-200"/>
      <point x="359" y="18"/>
      <point x="408" y="296"/>
      <point x="408" y="463" type="qcurve"/>
      <point x="408" y="528"/>
      <point x="403" y="684"/>
      <point x="381" y="851"/>
      <point x="335" y="1022"/>
      <point x="254" y="1183"/>
      <point x="132" y="1327"/>
      <point x="45" y="1384" type="qcurve"/>
      <point x="45" y="1423" type="line"/>
      <point x="177" y="1357"/>
      <point x="384" y="1162"/>
      <point x="526" y="921"/>
      <point x="600" y="640"/>
    </contour>
  </outline>
</glyph>
<glyph name="asterisk" format="2">
  <advance width="1025"/>
  <unicode hex="002A"/>
  <outline>
    <contour>
      <point x="881" y="1175" type="qcurve"/>
      <point x="881" y="1146"/>
      <point x="845" y="1104"/>
      <point x="787" y="1072"/>
      <point x="715" y="1049"/>
      <point x="643" y="1031"/>
      <point x="579" y="1016"/>
      <point x="558" y="1008" type="qcurve"/>
      <point x="580" y="998"/>
      <point x="645" y="981"/>
      <point x="716" y="962"/>
      <point x="787" y="938"/>
      <point x="844" y="907"/>
      <point x="879" y="866"/>
      <point x="879" y="839" type="qcurve"/>
      <point x="879" y="807"/>
      <point x="836" y="767"/>
      <point x="805" y="767" type="qcurve"/>
      <point x="772" y="767"/>
      <point x="699" y="816"/>
      <point x="627" y="883"/>
      <point x="561" y="952"/>
      <point x="534" y="972" type="qcurve"/>
      <point x="534" y="936"/>
      <point x="553" y="867"/>
      <point x="576" y="800"/>
      <point x="595" y="734"/>
      <point x="595" y="700" type="qcurve"/>
      <point x="595" y="680"/>
      <point x="585" y="642"/>
      <point x="563" y="612"/>
      <point x="530" y="593"/>
      <point x="508" y="593" type="qcurve"/>
      <point x="489" y="593"/>
      <point x="460" y="613"/>
      <point x="441" y="643"/>
      <point x="432" y="679"/>
      <point x="432" y="696" type="qcurve"/>
      <point x="432" y="728"/>
      <point x="447" y="799"/>
      <point x="467" y="871"/>
      <point x="489" y="941"/>
      <point x="497" y="974" type="qcurve"/>
      <point x="469" y="954"/>
      <point x="399" y="883"/>
      <point x="327" y="815"/>
      <point x="256" y="765"/>
      <point x="227" y="765" type="qcurve"/>
      <point x="212" y="765"/>
      <point x="183" y="775"/>
      <point x="160" y="794"/>
      <point x="146" y="820"/>
      <point x="146" y="835" type="qcurve"/>
      <point x="146" y="863"/>
      <point x="183" y="906"/>
      <point x="241" y="940"/>
      <point x="314" y="965"/>
      <point x="387" y="985"/>
      <point x="453" y="1001"/>
      <point x="474" y="1008" type="qcurve"/>
      <point x="453" y="1019"/>
      <point x="389" y="1036"/>
      <point x="316" y="1054"/>
      <point x="242" y="1075"/>
      <point x="183" y="1105"/>
      <point x="146" y="1147"/>
      <point x="146" y="1177" type="qcurve"/>
      <point x="146" y="1209"/>
      <point x="188" y="1249"/>
      <point x="220" y="1249" type="qcurve"/>
      <point x="253" y="1249"/>
      <point x="327" y="1200"/>
      <point x="401" y="1133"/>
      <point x="469" y="1063"/>
      <point x="495" y="1042" type="qcurve"/>
      <point x="491" y="1073"/>
      <point x="471" y="1150"/>
      <point x="449" y="1226"/>
      <point x="432" y="1294"/>
      <point x="432" y="1317" type="qcurve"/>
      <point x="432" y="1336"/>
      <point x="442" y="1374"/>
      <point x="464" y="1404"/>
      <point x="496" y="1423"/>
      <point x="519" y="1423" type="qcurve"/>
      <point x="538" y="1423"/>
      <point x="567" y="1404"/>
      <point x="586" y="1374"/>
      <point x="595" y="1337"/>
      <point x="595" y="1320" type="qcurve"/>
      <point x="595" y="1288"/>
      <point x="580" y="1218"/>
      <point x="561" y="1147"/>
      <point x="540" y="1076"/>
      <point x="534" y="1042" type="qcurve"/>
      <point x="564" y="1063"/>
      <point x="633" y="1132"/>
      <point x="703" y="1199"/>
      <point x="772" y="1247"/>
      <point x="803" y="1247" type="qcurve"/>
      <point x="817" y="1247"/>
      <point x="845" y="1236"/>
      <point x="867" y="1217"/>
      <point x="881" y="1190"/>
    </contour>
  </outline>
</glyph>
<glyph name="comma" format="2">
  <advance width="612"/>
  <unicode hex="002C"/>
  <outline>
    <contour>
      <point x="457" y="-10" type="qcurve"/>
      <point x="457" y="-74"/>
      <point x="409" y="-179"/>
      <point x="327" y="-261"/>
      <point x="219" y="-322"/>
      <point x="160" y="-343" type="qcurve"/>
      <point x="160" y="-297" type="line"/>
      <point x="197" y="-287"/>
      <point x="274" y="-240"/>
      <point x="335" y="-174"/>
      <point x="374" y="-89"/>
      <point x="374" y="-39" type="qcurve"/>
      <point x="374" y="-28"/>
      <point x="366" y="0"/>
      <point x="352" y="0" type="qcurve"/>
      <point x="340" y="0"/>
      <point x="319" y="-9"/>
      <point x="299" y="-21"/>
      <point x="278" y="-30"/>
      <point x="266" y="-30" type="qcurve"/>
      <point x="245" y="-30"/>
      <point x="207" y="-17"/>
      <point x="178" y="11"/>
      <point x="160" y="53"/>
      <point x="160" y="83" type="qcurve"/>
      <point x="160" y="110"/>
      <point x="181" y="153"/>
      <point x="217" y="183"/>
      <point x="264" y="199"/>
      <point x="290" y="199" type="qcurve"/>
      <point x="319" y="199"/>
      <point x="378" y="172"/>
      <point x="426" y="120"/>
      <point x="457" y="42"/>
    </contour>
  </outline>
</glyph>
<glyph name="zero" format="2">
  <advance width="1224"/>
  <unicode hex="0030"/>
  <anchor x="612" y="1870" name="A"/>
  <anchor x="612" y="-100" name="L"/>
  <outline>
    <contour>
      <point x="1051" y="690" type="qcurve"/>
      <point x="1051" y="599"/>
      <point x="1025" y="422"/>
      <point x="974" y="263"/>
      <point x="899" y="129"/>
      <point x="800" y="31"/>
      <point x="678" y="-24"/>
      <point x="605" y="-24" type="qcurve"/>
      <point x="539" y="-24"/>
      <point x="423" y="30"/>
      <point x="327" y="125"/>
      <point x="251" y="257"/>
      <point x="199" y="411"/>
      <point x="172" y="582"/>
      <point x="172" y="670" type="qcurve"/>
      <point x="172" y="832"/>
      <point x="245" y="1096"/>
      <point x="368" y="1284"/>
      <point x="529" y="1386"/>
      <point x="616" y="1386" type="qcurve"/>
      <point x="702" y="1386"/>
      <point x="859" y="1289"/>
      <point x="979" y="1109"/>
      <point x="1051" y="851"/>
    </contour>
    <contour>
      <point x="855" y="735" type="qcurve"/>
      <point x="855" y="870"/>
      <point x="824" y="1087"/>
      <point x="763" y="1239"/>
      <point x="673" y="1320"/>
      <point x="614" y="1320" type="qcurve"/>
      <point x="586" y="1320"/>
      <point x="527" y="1296"/>
      <point x="473" y="1237"/>
      <point x="425" y="1138"/>
      <point x="390" y="988"/>
      <point x="369" y="783"/>
      <point x="369" y="647" type="qcurve"/>
      <point x="369" y="496"/>
      <point x="403" y="268"/>
      <point x="466" y="115"/>
      <point x="555" y="39"/>
      <point x="609" y="39" type="qcurve"/>
      <point x="663" y="39"/>
      <point x="753" y="109"/>
      <point x="819" y="271"/>
      <point x="855" y="538"/>
    </contour>
  </outline>
</glyph>
<glyph name="one" format="2">
  <advance width="1224"/>
  <unicode hex="0031"/>
  <anchor x="612" y="1870" name="A"/>
  <anchor x="612" y="695" name="C"/>
  <anchor x="612" y="-100" name="L"/>
  <anchor x="612" y="1435" name="U"/>
  <outline>
    <contour>
      <point x="368" y="0" type="line"/>
      <point x="368" y="38" type="line"/>
      <point x="432" y="38"/>
      <point x="503" y="53"/>
      <point x="537" y="97"/>
      <point x="544" y="177"/>
      <point x="544" y="241" type="qcurve"/>
      <point x="544" y="1057" type="line"/>
      <point x="544" y="1097"/>
      <point x="537" y="1161"/>
      <point x="516" y="1207"/>
      <point x="475" y="1226"/>
      <point x="408" y="1215"/>
      <point x="358" y="1192" type="qcurve"/>
      <point x="345" y="1224" type="line"/>
      <point x="674" y="1386" type="line"/>
      <point x="709" y="1386" type="line"/>
      <point x="709" y="241" type="line"/>
      <point x="709" y="176"/>
      <point x="714" y="96"/>
      <point x="746" y="53"/>
      <point x="815" y="38"/>
      <point x="879" y="38" type="qcurve"/>
      <point x="879" y="0" type="line"/>
    </contour>
  </outline>
</glyph>
<glyph name="eight" format="2">
  <advance width="1224"/>
  <unicode hex="0038"/>
  <anchor x="612" y="1870" name="A"/>
  <anchor x="612" y="695" name="C"/>
  <anchor x="612" y="-100" name="L"/>
  <anchor x="612" y="1435" name="U"/>
  <outline>
    <contour>
      <point x="1004" y="321" type="qcurve"/>
      <point x="1004" y="291"/>
      <point x="989" y="216"/>
      <point x="954" y="139"/>
      <point x="895" y="67"/>
      <point x="807" y="10"/>
      <point x="688" y="-24"/>
      <point x="609" y="-24" type="qcurve"/>
      <point x="514" y="-24"/>
      <point x="368" y="37"/>
      <point x="269" y="133"/>
      <point x="219" y="252"/>
      <point x="219" y="310" type="qcurve"/>
      <point x="219" y="374"/>
      <point x="276" y="487"/>
      <point x="359" y="582"/>
      <point x="454" y="656"/>
      <point x="492" y="682" type="qcurve"/>
      <point x="452" y="716"/>
      <point x="362" y="793"/>
      <point x="287" y="884"/>
      <point x="237" y="994"/>
      <point x="237" y="1062" type="qcurve"/>
      <point x="237" y="1138"/>
      <point x="298" y="1258"/>
      <point x="401" y="1342"/>
      <point x="536" y="1386"/>
      <point x="609" y="1386" type="qcurve"/>
      <point x="683" y="1386"/>
      <point x="795" y="1353"/>
      <point x="876" y="1301"/>
      <point x="929" y="1236"/>
      <point x="961" y="1171"/>
      <point x="974" y="1112"/>
      <point x="974" y="1092" type="qcurve"/>
      <point x="974" y="1032"/>
      <point x="919" y="931"/>
      <point x="835" y="847"/>
      <point x="737" y="780"/>
      <point x="695" y="753" type="qcurve"/>
      <point x="739" y="719"/>
      <point x="846" y="632"/>
      <point x="940" y="525"/>
      <point x="1004" y="397"/>
    </contour>
    <contour>
      <point x="830" y="1104" type="qcurve"/>
      <point x="830" y="1168"/>
      <point x="792" y="1254"/>
      <point x="731" y="1305"/>
      <point x="653" y="1326"/>
      <point x="612" y="1326" type="qcurve"/>
      <point x="566" y="1326"/>
      <point x="482" y="1300"/>
      <point x="420" y="1250"/>
      <point x="383" y="1177"/>
      <point x="383" y="1130" type="qcurve"/>
      <point x="383" y="1079"/>
      <point x="418" y="998"/>
      <point x="486" y="922"/>
      <point x="585" y="841"/>
      <point x="648" y="790" type="qcurve"/>
      <point x="686" y="826"/>
      <point x="753" y="889"/>
      <point x="802" y="960"/>
      <point x="830" y="1046"/>
    </contour>
    <contour>
      <point x="862" y="241" type="qcurve"/>
      <point x="862" y="284"/>
      <point x="831" y="363"/>
      <point x="780" y="436"/>
      <point x="713" y="503"/>
      <point x="641" y="564"/>
      <point x="570" y="621"/>
      <point x="539" y="647" type="qcurve"/>
      <point x="518" y="629"/>
      <point x="461" y="572"/>
      <point x="409" y="490"/>
      <point x="373" y="382"/>
      <point x="373" y="314" type="qcurve"/>
      <point x="373" y="246"/>
      <point x="412" y="141"/>
      <point x="479" y="69"/>
      <point x="571" y="32"/>
      <point x="623" y="32" type="qcurve"/>
      <point x="672" y="32"/>
      <point x="759" y="60"/>
      <point x="824" y="113"/>
      <point x="862" y="191"/>
    </contour>
  </outline>
</glyph>
<glyph name="at" format="2">
  <advance width="1888"/>
  <unicode hex="0040"/>
  <outline>
    <contour>
      <point x="1127" y="515" type="qcurve"/>
      <point x="1165" y="609"/>
      <point x="1189" y="759"/>
      <point x="1168" y="863"/>
      <point x="1106" y="918"/>
      <point x="1059" y="918" type="qcurve"/>
      <point x="1009" y="918"/>
      <point x="911" y="849"/>
      <point x="821" y="739"/>
      <point x="744" y="601"/>
      <point x="686" y="462"/>
      <point x="654" y="337"/>
      <point x="654" y="294" type="qcurve"/>
      <point x="654" y="258"/>
      <point x="676" y="204"/>
      <point x="710" y="169"/>
      <point x="751" y="152"/>
      <point x="769" y="152" type="qcurve"/>
      <point x="818" y="152"/>
      <point x="924" y="216"/>
      <point x="1020" y="319"/>
      <point x="1101" y="449"/>
    </contour>
    <contour>
      <point x="1837" y="171" type="line"/>
      <point x="1824" y="124"/>
      <point x="1762" y="-3"/>
      <point x="1662" y="-139"/>
      <point x="1521" y="-273"/>
      <point x="1337" y="-379"/>
      <point x="1108" y="-444"/>
      <point x="970" y="-444" type="qcurve"/>
      <point x="824" y="-444"/>
      <point x="582" y="-370"/>
      <point x="388" y="-242"/>
      <point x="242" y="-69"/>
      <point x="145" y="128"/>
      <point x="96" y="342"/>
      <point x="96" y="446" type="qcurve"/>
      <point x="96" y="607"/>
      <point x="176" y="877"/>
      <point x="313" y="1094"/>
      <point x="498" y="1258"/>
      <point x="709" y="1368"/>
      <point x="933" y="1423"/>
      <point x="1042" y="1423" type="qcurve"/>
      <point x="1189" y="1423"/>
      <point x="1449" y="1335"/>
      <point x="1644" y="1161"/>
      <point x="1758" y="905"/>
      <point x="1758" y="737" type="qcurve"/>
      <point x="1758" y="589"/>
      <point x="1673" y="332"/>
      <point x="1524" y="141"/>
      <point x="1322" y="32"/>
      <point x="1206" y="32" type="qcurve"/>
      <point x="1141" y="32"/>
      <point x="1075" y="75"/>
      <point x="1051" y="151"/>
      <point x="1059" y="255"/>
      <point x="1070" y="316" type="qcurve"/>
      <point x="1033" y="271"/>
      <point x="944" y="171"/>
      <point x="844" y="87"/>
      <point x="734" y="32"/>
      <point x="676" y="32" type="qcurve"/>
      <point x="641" y="32"/>
      <point x="576" y="63"/>
      <point x="527" y="123"/>
      <point x="497" y="208"/>
      <point x="497" y="262" type="qcurve"/>
      <point x="497" y="344"/>
      <point x="547" y="512"/>
      <point x="631" y="668"/>
      <point x="742" y="805"/>
      <point x="864" y="907"/>
      <point x="990" y="966"/>
      <point x="1046" y="966" type="qcurve"/>
      <point x="1094" y="966"/>
      <point x="1157" y="935"/>
      <point x="1197" y="892"/>
      <point x="1216" y="844"/>
      <point x="1220" y="826" type="qcurve"/>
      <point x="1251" y="936" type="line"/>
      <point x="1407" y="960" type="line"/>
      <point x="1293" y="560" type="line"/>
      <point x="1276" y="503"/>
      <point x="1243" y="386"/>
      <point x="1215" y="283"/>
      <point x="1198" y="200"/>
      <point x="1198" y="177" type="qcurve"/>
      <point x="1198" y="170"/>
      <point x="1205" y="145"/>
      <point x="1222" y="120"/>
      <point x="1252" y="102"/>
      <point x="1275" y="102" type="qcurve"/>
      <point x="1314" y="102"/>
      <point x="1408" y="142"/>
      <point x="1502" y="219"/>
      <point x="1589" y="331"/>
      <point x="1656" y="476"/>
      <point x="1697" y="653"/>
      <point x="1697" y="756" type="qcurve"/>
      <point x="1697" y="900"/>
      <point x="1595" y="1129"/>
      <point x="1418" y="1287"/>
      <point x="1182" y="1371"/>
      <point x="1049" y="1371" type="qcurve"/>
      <point x="933" y="1371"/>
      <point x="717" y="1308"/>
      <point x="526" y="1190"/>
      <point x="368" y="1021"/>
      <point x="255" y="809"/>
      <point x="192" y="558"/>
      <point x="192" y="418" type="qcurve"/>
      <point x="192" y="317"/>
      <point x="234" y="121"/>
      <point x="320" y="-57"/>
      <point x="449" y="-208"/>
      <point x="623" y="-318"/>
      <point x="843" y="-380"/>
      <point x="976" y="-380" type="qcurve"/>
      <point x="1102" y="-380"/>
      <point x="1309" y="-323"/>
      <point x="1474" y="-231"/>
      <point x="1602" y="-113"/>
      <point x="1696" y="10"/>
      <point x="1760" y="126"/>
      <point x="1779" y="171" type="qcurve"/>
    </contour>
  </outline>
</glyph>
<glyph name="M" format="2">
  <advance width="1823"/>
  <unicode hex="004D"/>
  <outline>
    <contour>
      <point x="1202" y="0" type="line"/>
      <point x="1202" y="38" type="line"/>
      <point x="1249" y="38" type="line"/>
      <point x="1296" y="38"/>
      <point x="1354" y="62"/>
      <point x="1373" y="90" type="qcurve"/>
      <point x="1395" y="121"/>
      <point x="1395" y="237" type="qcurve"/>
      <point x="1395" y="1141" type="line"/>
      <point x="871" y="0" type="line"/>
      <point x="837" y="0" type="line"/>
      <point x="314" y="1141" type="line"/>
      <point x="314" y="237" type="line"/>
      <point x="314" y="109"/>
      <point x="343" y="79" type="qcurve"/>
      <point x="375" y="38"/>
      <point x="459" y="38" type="qcurve"/>
      <point x="506" y="38" type="line"/>
      <point x="506" y="0" type="line"/>
      <point x="36" y="0" type="line"/>
      <point x="36" y="38" type="line"/>
      <point x="83" y="38" type="line"/>
      <point x="126" y="38"/>
      <point x="184" y="62"/>
      <point x="205" y="90" type="qcurve"/>
      <point x="214" y="106"/>
      <point x="224" y="177"/>
      <point x="224" y="237" type="qcurve"/>
      <point x="224" y="1121" type="line"/>
      <point x="224" y="1185"/>
      <point x="208" y="1263"/>
      <point x="181" y="1283" type="qcurve"/>
      <point x="159" y="1300"/>
      <point x="96" y="1320"/>
      <point x="36" y="1320" type="qcurve"/>
      <point x="36" y="1356" type="line"/>
      <point x="418" y="1356" type="line"/>
      <point x="910" y="295" type="line"/>
      <point x="1395" y="1356" type="line"/>
      <point x="1779" y="1356" type="line"/>
      <point x="1779" y="1320" type="line"/>
      <point x="1732" y="1320" type="line"/>
      <point x="1647" y="1320"/>
      <point x="1608" y="1269" type="qcurve"/>
      <point x="1598" y="1251"/>
      <point x="1587" y="1179"/>
      <point x="1587" y="1121" type="qcurve"/>
      <point x="1587" y="237" type="line"/>
      <point x="1587" y="111"/>
      <point x="1616" y="79" type="qcurve"/>
      <point x="1651" y="38"/>
      <point x="1732" y="38" type="qcurve"/>
      <point x="1779" y="38" type="line"/>
      <point x="1779" y="0" type="line"/>
    </contour>
  </outline>
</glyph>
<glyph name="i" format="2">
  <advance width="570"/>
  <unicode hex="0069"/>
  <outline>
    <contour>
      <point x="402" y="1228" type="qcurve"/>
      <point x="402" y="1185"/>
      <point x="345" y="1125"/>
      <point x="301" y="1125" type="qcurve"/>
      <point x="257" y="1125"/>
      <point x="199" y="1183"/>
      <point x="199" y="1228" type="qcurve"/>
      <point x="199" y="1250"/>
      <point x="215" y="1287"/>
      <point x="243" y="1313"/>
      <point x="280" y="1328"/>
      <point x="301" y="1328" type="qcurve"/>
      <point x="322" y="1328"/>
      <point x="359" y="1312"/>
      <point x="386" y="1285"/>
      <point x="402" y="1249"/>
    </contour>
    <contour>
      <point x="77" y="0" type="line"/>
      <point x="77" y="38" type="line"/>
      <point x="120" y="38"/>
      <point x="175" y="50"/>
      <point x="206" y="83"/>
      <point x="217" y="142"/>
      <point x="217" y="188" type="qcurve"/>
      <point x="217" y="678" type="line"/>
      <point x="217" y="744"/>
      <point x="188" y="812"/>
      <point x="148" y="812" type="qcurve"/>
      <point x="134" y="812"/>
      <point x="100" y="804"/>
      <point x="77" y="796" type="qcurve"/>
      <point x="64" y="832" type="line"/>
      <point x="341" y="942" type="line"/>
      <point x="384" y="942" type="line"/>
      <point x="384" y="188" type="line"/>
      <point x="384" y="142"/>
      <point x="396" y="83"/>
      <point x="427" y="50"/>
      <point x="482" y="38"/>
      <point x="525" y="38" type="qcurve"/>
      <point x="525" y="0" type="line"/>
    </contour>
  </outline>
</glyph>
<glyph name="braceleft" format="2">
  <advance width="980"/>
  <unicode hex="007B"/>
  <outline>
    <contour>
      <point x="775" y="-442" type="line"/>
      <point x="703" y="-435"/>
      <point x="568" y="-369"/>
      <point x="465" y="-266"/>
      <point x="402" y="-132"/>
      <point x="402" y="-57" type="qcurve"/>
      <point x="402" y="-17"/>
      <point x="416" y="63"/>
      <point x="434" y="140"/>
      <point x="448" y="213"/>
      <point x="448" y="246" type="qcurve"/>
      <point x="448" y="294"/>
      <point x="404" y="371"/>
      <point x="336" y="427"/>
      <point x="255" y="460"/>
      <point x="218" y="465" type="qcurve"/>
      <point x="218" y="517" type="line"/>
      <point x="254" y="521"/>
      <point x="335" y="554"/>
      <point x="403" y="608"/>
      <point x="448" y="684"/>
      <point x="448" y="731" type="qcurve"/>
      <point x="448" y="766"/>
      <point x="434" y="843"/>
      <point x="416" y="926"/>
      <point x="402" y="1011"/>
      <point x="402" y="1053" type="qcurve"/>
      <point x="402" y="1125"/>
      <point x="466" y="1253"/>
      <point x="571" y="1352"/>
      <point x="705" y="1415"/>
      <point x="775" y="1423" type="qcurve"/>
      <point x="775" y="1388" type="line"/>
      <point x="725" y="1375"/>
      <point x="643" y="1330"/>
      <point x="584" y="1265"/>
      <point x="551" y="1178"/>
      <point x="551" y="1123" type="qcurve"/>
      <point x="551" y="1088"/>
      <point x="565" y="1019"/>
      <point x="581" y="951"/>
      <point x="595" y="882"/>
      <point x="595" y="846" type="qcurve"/>
      <point x="595" y="779"/>
      <point x="554" y="668"/>
      <point x="481" y="579"/>
      <point x="380" y="512"/>
      <point x="321" y="491" type="qcurve"/>
      <point x="381" y="470"/>
      <point x="482" y="403"/>
      <point x="554" y="313"/>
      <point x="595" y="199"/>
      <point x="595" y="132" type="qcurve"/>
      <point x="595" y="97"/>
      <point x="581" y="29"/>
      <point x="565" y="-38"/>
      <point x="551" y="-106"/>
      <point x="551" y="-141" type="qcurve"/>
      <point x="551" y="-196"/>
      <point x="584" y="-283"/>
      <point x="643" y="-349"/>
      <point x="725" y="-393"/>
      <point x="775" y="-406" type="qcurve"/>
    </contour>
  </outline>
</glyph>
<glyph name="exclamdown" format="2">
  <advance width="682"/>
  <unicode hex="00A1"/>
  <outline>
    <contour>
      <point x="455" y="-301" type="qcurve"/>
      <point x="455" y="-369"/>
      <point x="388" y="-442"/>
      <point x="339" y="-442" type="qcurve"/>
      <point x="321" y="-442"/>
      <point x="281" y="-426"/>
      <point x="248" y="-390"/>
      <point x="227" y="-333"/>
      <point x="227" y="-292" type="qcurve"/>
      <point x="227" y="-280"/>
      <point x="228" y="-245"/>
      <point x="231" y="-224" type="qcurve"/>
      <point x="321" y="587" type="line"/>
      <point x="361" y="587" type="line"/>
      <point x="448" y="-224" type="line"/>
      <point x="452" y="-260"/>
      <point x="455" y="-290"/>
    </contour>
    <contour>
      <point x="453" y="861" type="qcurve"/>
      <point x="453" y="834"/>
      <point x="433" y="794"/>
      <point x="400" y="767"/>
      <point x="360" y="753"/>
      <point x="341" y="753" type="qcurve"/>
      <point x="322" y="753"/>
      <point x="283" y="768"/>
      <point x="251" y="796"/>
      <point x="231" y="836"/>
      <point x="231" y="861" type="qcurve"/>
      <point x="231" y="885"/>
      <point x="249" y="927"/>
      <point x="279" y="958"/>
      <point x="319" y="976"/>
      <point x="341" y="976" type="qcurve"/>
      <point x="358" y="976"/>
      <point x="397" y="963"/>
      <point x="431" y="935"/>
      <point x="453" y="891"/>
    </contour>
  </outline>
</glyph>
<glyph name="currency" format="2">
  <advance width="1202"/>
  <unicode hex="00A4"/>
  <outline>
    <contour>
      <point x="914" y="844" type="qcurve"/>
      <point x="914" y="905"/>
      <point x="867" y="1016"/>
      <point x="786" y="1098"/>
      <point x="677" y="1147"/>
      <point x="615" y="1147" type="qcurve"/>
      <point x="551" y="1147"/>
      <point x="439" y="1100"/>
      <point x="355" y="1017"/>
      <point x="307" y="905"/>
      <point x="307" y="841" type="qcurve"/>
      <point x="307" y="778"/>
      <point x="356" y="667"/>
      <point x="440" y="585"/>
      <point x="552" y="538"/>
      <point x="615" y="538" type="qcurve"/>
      <point x="678" y="538"/>
      <point x="787" y="587"/>
      <point x="868" y="671"/>
      <point x="914" y="782"/>
    </contour>
    <contour>
      <point x="1072" y="316" type="line"/>
      <point x="869" y="519" type="line"/>
      <point x="815" y="472"/>
      <point x="683" y="425"/>
      <point x="615" y="425" type="qcurve"/>
      <point x="541" y="425"/>
      <point x="407" y="471"/>
      <point x="353" y="519" type="qcurve"/>
      <point x="150" y="316" type="line"/>
      <point x="79" y="386" type="line"/>
      <point x="282" y="589" type="line"/>
      <point x="238" y="643"/>
      <point x="195" y="772"/>
      <point x="195" y="841" type="qcurve"/>
      <point x="195" y="910"/>
      <point x="238" y="1050"/>
      <point x="286" y="1102" type="qcurve"/>
      <point x="79" y="1309" type="line"/>
      <point x="150" y="1380" type="line"/>
      <point x="357" y="1173" type="line"/>
      <point x="410" y="1216"/>
      <point x="546" y="1260"/>
      <point x="615" y="1260" type="qcurve"/>
      <point x="683" y="1260"/>
      <point x="812" y="1214"/>
      <point x="863" y="1171" type="qcurve"/>
      <point x="1072" y="1380" type="line"/>
      <point x="1143" y="1309" type="line"/>
      <point x="938" y="1104" type="line"/>
      <point x="980" y="1052"/>
      <point x="1027" y="913"/>
      <point x="1027" y="844" type="qcurve"/>
      <point x="1027" y="774"/>
      <point x="985" y="643"/>
      <point x="940" y="589" type="qcurve"/>
      <point x="1143" y="386" type="line"/>
    </contour>
  </outline>
</glyph>
<glyph name="brokenbar" format="2">
  <advance width="612"/>
  <unicode hex="00A6"/>
  <outline>
    <contour>
      <point x="255" y="-441" type="line"/>
      <point x="255" y="348" type="line"/>
      <point x="357" y="348" type="line"/>
      <point x="357" y="-441" type="line"/>
    </contour>
    <contour>
      <point x="255" y="662" type="line"/>
      <point x="255" y="1450" type="line"/>
      <point x="357" y="1450" type="line"/>
      <point x="357" y="662" type="line"/>
    </contour>
  </outline>
</glyph>
<glyph name="section" format="2">
  <advance width="1025"/>
  <unicode hex="00A7"/>
  <outline>
    <contour>
      <point x="724" y="525" type="qcurve"/>
      <point x="706" y="553"/>
      <point x="651" y="612"/>
      <point x="587" y="669"/>
      <point x="521" y="723"/>
      <point x="463" y="768"/>
      <point x="419" y="802"/>
      <point x="410" y="812" type="qcurve"/>
      <point x="372" y="790"/>
      <point x="299" y="722"/>
      <point x="256" y="632"/>
      <point x="257" y="524"/>
      <point x="295" y="461" type="qcurve"/>
      <point x="325" y="411"/>
      <point x="412" y="330"/>
      <point x="504" y="260"/>
      <point x="588" y="197"/>
      <point x="615" y="167" type="qcurve"/>
      <point x="653" y="192"/>
      <point x="727" y="261"/>
      <point x="769" y="351"/>
      <point x="764" y="460"/>
    </contour>
    <contour>
      <point x="869" y="481" type="qcurve"/>
      <point x="869" y="412"/>
      <point x="822" y="302"/>
      <point x="754" y="217"/>
      <point x="678" y="158"/>
      <point x="649" y="140" type="qcurve"/>
      <point x="666" y="121"/>
      <point x="708" y="73"/>
      <point x="746" y="10"/>
      <point x="771" y="-67"/>
      <point x="771" y="-115" type="qcurve"/>
      <point x="771" y="-179"/>
      <point x="725" y="-284"/>
      <point x="647" y="-359"/>
      <point x="543" y="-400"/>
      <point x="485" y="-400" type="qcurve"/>
      <point x="443" y="-400"/>
      <point x="355" y="-371"/>
      <point x="283" y="-315"/>
      <point x="237" y="-231"/>
      <point x="237" y="-175" type="qcurve"/>
      <point x="237" y="-153"/>
      <point x="251" y="-120"/>
      <point x="273" y="-98"/>
      <point x="300" y="-87"/>
      <point x="314" y="-87" type="qcurve"/>
      <point x="336" y="-87"/>
      <point x="366" y="-107"/>
      <point x="384" y="-134"/>
      <point x="391" y="-164"/>
      <point x="391" y="-173" type="qcurve"/>
      <point x="391" y="-184"/>
      <point x="385" y="-213"/>
      <point x="378" y="-244"/>
      <point x="372" y="-274"/>
      <point x="372" y="-284" type="qcurve"/>
      <point x="372" y="-303"/>
      <point x="394" y="-332"/>
      <point x="429" y="-351"/>
      <point x="472" y="-361"/>
      <point x="493" y="-361" type="qcurve"/>
      <point x="527" y="-361"/>
      <point x="591" y="-331"/>
      <point x="639" y="-284"/>
      <point x="668" y="-226"/>
      <point x="668" y="-197" type="qcurve"/>
      <point x="668" y="-149"/>
      <point x="628" y="-67"/>
      <point x="568" y="3"/>
      <point x="496" y="61"/>
      <point x="463" y="85" type="qcurve"/>
      <point x="392" y="137"/>
      <point x="278" y="237"/>
      <point x="199" y="338"/>
      <point x="156" y="445"/>
      <point x="156" y="504" type="qcurve"/>
      <point x="156" y="572"/>
      <point x="204" y="683"/>
      <point x="272" y="767"/>
      <point x="348" y="827"/>
      <point x="376" y="844" type="qcurve"/>
      <point x="361" y="862"/>
      <point x="318" y="913"/>
      <point x="279" y="978"/>
      <point x="252" y="1057"/>
      <point x="252" y="1104" type="qcurve"/>
      <point x="252" y="1177"/>
      <point x="311" y="1284"/>
      <point x="397" y="1353"/>
      <point x="496" y="1386"/>
      <point x="536" y="1386" type="qcurve"/>
      <point x="585" y="1386"/>
      <point x="676" y="1356"/>
      <point x="747" y="1299"/>
      <point x="790" y="1217"/>
      <point x="790" y="1165" type="qcurve"/>
      <point x="790" y="1123"/>
      <point x="744" y="1074"/>
      <point x="711" y="1074" type="qcurve"/>
      <point x="693" y="1074"/>
      <point x="664" y="1088"/>
      <point x="643" y="1110"/>
      <point x="632" y="1137"/>
      <point x="632" y="1151" type="qcurve"/>
      <point x="632" y="1158"/>
      <point x="637" y="1182"/>
      <point x="642" y="1208"/>
      <point x="647" y="1235"/>
      <point x="647" y="1247" type="qcurve"/>
      <point x="647" y="1288"/>
      <point x="590" y="1343"/>
      <point x="536" y="1343" type="qcurve"/>
      <point x="495" y="1343"/>
      <point x="431" y="1314"/>
      <point x="386" y="1265"/>
      <point x="363" y="1202"/>
      <point x="363" y="1168" type="qcurve"/>
      <point x="363" y="1125"/>
      <point x="392" y="1055"/>
      <point x="441" y="995"/>
      <point x="506" y="941"/>
      <point x="542" y="914" type="qcurve"/>
      <point x="575" y="889"/>
      <point x="649" y="833"/>
      <point x="722" y="769"/>
      <point x="788" y="698"/>
      <point x="839" y="619"/>
      <point x="869" y="530"/>
    </contour>
  </outline>
</glyph>
<glyph name="degree" format="2">
  <advance width="630"/>
  <unicode hex="00B0"/>
  <outline>
    <contour>
      <point x="453" y="1202" type="qcurve"/>
      <point x="453" y="1231"/>
      <point x="432" y="1282"/>
      <point x="395" y="1319"/>
      <point x="345" y="1341"/>
      <point x="316" y="1341" type="qcurve"/>
      <point x="287" y="1341"/>
      <point x="236" y="1319"/>
      <point x="199" y="1282"/>
      <point x="177" y="1231"/>
      <point x="177" y="1202" type="qcurve"/>
      <point x="177" y="1173"/>
      <point x="199" y="1123"/>
      <point x="236" y="1085"/>
      <point x="287" y="1064"/>
      <point x="316" y="1064" type="qcurve"/>
      <point x="345" y="1064"/>
      <point x="395" y="1085"/>
      <point x="432" y="1123"/>
      <point x="453" y="1173"/>
    </contour>
    <contour>
      <point x="532" y="1202" type="qcurve"/>
      <point x="532" y="1157"/>
      <point x="498" y="1078"/>
      <point x="440" y="1019"/>
      <point x="361" y="985"/>
      <point x="316" y="985" type="qcurve"/>
      <point x="271" y="985"/>
      <point x="191" y="1019"/>
      <point x="132" y="1078"/>
      <point x="98" y="1157"/>
      <point x="98" y="1202" type="qcurve"/>
      <point x="98" y="1247"/>
      <point x="132" y="1326"/>
      <point x="191" y="1386"/>
      <point x="271" y="1420"/>
      <point x="316" y="1420" type="qcurve"/>
      <point x="361" y="1420"/>
      <point x="440" y="1386"/>
      <point x="498" y="1326"/>
      <point x="532" y="1247"/>
    </contour>
  </outline>
</glyph>
<glyph name="acute" format="2">
  <advance width="612"/>
  <unicode hex="00B4"/>
  <outline>
    <contour>
      <point x="536" y="1330" type="qcurve"/>
      <point x="536" y="1301"/>
      <point x="485" y="1251"/>
      <point x="453" y="1230" type="qcurve"/>
      <point x="157" y="1042" type="line"/>
      <point x="75" y="1042" type="line"/>
      <point x="359" y="1328" type="line"/>
      <point x="385" y="1355"/>
      <point x="450" y="1395"/>
      <point x="483" y="1395" type="qcurve"/>
      <point x="491" y="1395"/>
      <point x="509" y="1383"/>
      <point x="525" y="1363"/>
      <point x="536" y="1340"/>
    </contour>
  </outline>
</glyph>
<glyph name="mu" format="2">
  <advance width="1161"/>
  <unicode hex="00B5"/>
  <outline>
    <contour>
      <point x="1084" y="207" type="line"/>
      <point x="1079" y="144"/>
      <point x="1045" y="54"/>
      <point x="992" y="-3"/>
      <point x="923" y="-30"/>
      <point x="885" y="-30" type="qcurve"/>
      <point x="855" y="-30"/>
      <point x="804" y="-12"/>
      <point x="764" y="32"/>
      <point x="735" y="106"/>
      <point x="728" y="162" type="qcurve"/>
      <point x="643" y="64"/>
      <point x="493" y="-30"/>
      <point x="414" y="-30" type="qcurve"/>
      <point x="403" y="-30"/>
      <point x="365" y="-26"/>
      <point x="321" y="-9"/>
      <point x="276" y="26"/>
      <point x="258" y="57" type="qcurve"/>
      <point x="258" y="10" type="line"/>
      <point x="258" y="-37"/>
      <point x="273" y="-133"/>
      <point x="290" y="-222"/>
      <point x="305" y="-301"/>
      <point x="305" y="-331" type="qcurve"/>
      <point x="305" y="-356"/>
      <point x="289" y="-397"/>
      <point x="263" y="-427"/>
      <point x="229" y="-444"/>
      <point x="211" y="-444" type="qcurve"/>
      <point x="194" y="-444"/>
      <point x="163" y="-428"/>
      <point x="139" y="-399"/>
      <point x="124" y="-359"/>
      <point x="124" y="-335" type="qcurve"/>
      <point x="124" y="-304"/>
      <point x="133" y="-255"/>
      <point x="148" y="-201"/>
      <point x="164" y="-134"/>
      <point x="179" y="-38"/>
      <point x="188" y="97"/>
      <point x="188" y="192" type="qcurve"/>
      <point x="188" y="914" type="line"/>
      <point x="351" y="914" type="line"/>
      <point x="351" y="382" type="line"/>
      <point x="351" y="237"/>
      <point x="369" y="186" type="qcurve"/>
      <point x="380" y="148"/>
      <point x="445" y="94"/>
      <point x="493" y="94" type="qcurve"/>
      <point x="608" y="94"/>
      <point x="728" y="229" type="qcurve"/>
      <point x="728" y="914" type="line"/>
      <point x="895" y="914" type="line"/>
      <point x="895" y="264" type="line"/>
      <point x="895" y="198"/>
      <point x="905" y="124"/>
      <point x="923" y="90"/>
      <point x="947" y="83"/>
      <point x="961" y="83" type="qcurve"/>
      <point x="992" y="83"/>
      <point x="1030" y="135"/>
      <point x="1044" y="207" type="qcurve"/>
    </contour>
  </outline>
</glyph>
<glyph name="periodcentered" format="2">
  <advance width="612"/>
  <unicode hex="00B7"/>
  <anchor x="306" y="1870" name="A"/>
  <anchor x="306" y="695" name="C"/>
  <anchor x="306" y="-100" name="L"/>
  <anchor x="306" y="1435" name="U"/>
  <outline>
    <contour>
      <point x="435" y="676" type="curve" smooth="yes"/>
      <point x="435" y="607"/>
      <point x="383" y="546"/>
      <point x="309" y="546" type="curve" smooth="yes"/>
      <point x="233" y="546"/>
      <point x="185" y="607"/>
      <point x="185" y="676" type="curve" smooth="yes"/>
      <point x="185" y="748"/>
      <point x="236" y="800"/>
      <point x="309" y="800" type="curve" smooth="yes"/>
      <point x="377" y="800"/>
      <point x="435" y="749"/>
    </contour>
  </outline>
</glyph>
<glyph name="cedilla" format="2">
  <advance width="429"/>
  <unicode hex="00B8"/>
  <outline>
    <contour>
      <point x="429" y="-270" type="qcurve"/>
      <point x="429" y="-311"/>
      <point x="383" y="-375"/>
      <point x="309" y="-419"/>
      <point x="214" y="-442"/>
      <point x="166" y="-442" type="qcurve"/>
      <point x="124" y="-442"/>
      <point x="38" y="-423"/>
      <point x="0" y="-410" type="qcurve"/>
      <point x="30" y="-345" type="line"/>
      <point x="43" y="-350"/>
      <point x="76" y="-360"/>
      <point x="111" y="-367"/>
      <point x="143" y="-371"/>
      <point x="156" y="-371" type="qcurve"/>
      <point x="213" y="-371"/>
      <point x="276" y="-327"/>
      <point x="276" y="-284" type="qcurve"/>
      <point x="276" y="-249"/>
      <point x="235" y="-208"/>
      <point x="201" y="-205" type="qcurve"/>
      <point x="177" y="-203"/>
      <point x="129" y="-209"/>
      <point x="109" y="-215" type="qcurve"/>
      <point x="92" y="-203" type="line"/>
      <point x="179" y="0" type="line"/>
      <point x="252" y="0" type="line"/>
      <point x="199" y="-134" type="line"/>
      <point x="226" y="-128"/>
      <point x="258" y="-128" type="qcurve"/>
      <point x="291" y="-128"/>
      <point x="353" y="-145"/>
      <point x="400" y="-179"/>
      <point x="429" y="-233"/>
    </contour>
  </outline>
</glyph>
<glyph name="onesuperior" format="2">
  <advance width="737"/>
  <unicode hex="00B9"/>
  <outline>
    <contour>
      <point x="190" y="806" type="line"/>
      <point x="190" y="828" type="line"/>
      <point x="236" y="828"/>
      <point x="287" y="837"/>
      <point x="311" y="864"/>
      <point x="316" y="912"/>
      <point x="316" y="950" type="qcurve"/>
      <point x="316" y="1390" type="line"/>
      <point x="316" y="1430"/>
      <point x="315" y="1496"/>
      <point x="292" y="1536"/>
      <point x="237" y="1542"/>
      <point x="183" y="1522" type="qcurve"/>
      <point x="173" y="1542" type="line"/>
      <point x="410" y="1638" type="line"/>
      <point x="436" y="1638" type="line"/>
      <point x="436" y="950" type="line"/>
      <point x="436" y="911"/>
      <point x="440" y="863"/>
      <point x="463" y="837"/>
      <point x="512" y="828"/>
      <point x="558" y="828" type="qcurve"/>
      <point x="558" y="806" type="line"/>
    </contour>
  </outline>
</glyph>
<glyph name="onequarter" format="2">
  <advance width="1518"/>
  <unicode hex="00BC"/>
  <outline>
    <contour>
      <point x="1243" y="211" type="line"/>
      <point x="1243" y="-8" type="line"/>
      <point x="1143" y="-8" type="line"/>
      <point x="1143" y="211" type="line"/>
      <point x="794" y="211" type="line"/>
      <point x="794" y="286" type="line"/>
      <point x="1177" y="832" type="line"/>
      <point x="1243" y="832" type="line"/>
      <point x="1243" y="295" type="line"/>
      <point x="1352" y="295" type="line"/>
      <point x="1352" y="211" type="line"/>
    </contour>
    <contour>
      <point x="351" y="-15" type="line"/>
      <point x="252" y="-15" type="line"/>
      <point x="1185" y="1382" type="line"/>
      <point x="1277" y="1382" type="line"/>
    </contour>
    <contour>
      <point x="179" y="525" type="line"/>
      <point x="179" y="548" type="line"/>
      <point x="218" y="548"/>
      <point x="261" y="556"/>
      <point x="282" y="582"/>
      <point x="286" y="630"/>
      <point x="286" y="670" type="qcurve"/>
      <point x="286" y="1187" type="line"/>
      <point x="286" y="1221"/>
      <point x="266" y="1262"/>
      <point x="219" y="1267"/>
      <point x="173" y="1245" type="qcurve"/>
      <point x="166" y="1267" type="line"/>
      <point x="365" y="1364" type="line"/>
      <point x="386" y="1364" type="line"/>
      <point x="386" y="670" type="line"/>
      <point x="386" y="630"/>
      <point x="389" y="582"/>
      <point x="409" y="556"/>
      <point x="452" y="548"/>
      <point x="491" y="548" type="qcurve"/>
      <point x="491" y="525" type="line"/>
    </contour>
    <contour>
      <point x="1143" y="704" type="line"/>
      <point x="854" y="295" type="line"/>
      <point x="1143" y="295" type="line"/>
    </contour>
  </outline>
</glyph>
<glyph name="threequarters" format="2">
  <advance width="1518"/>
  <unicode hex="00BE"/>
  <outline>
    <contour>
      <point x="1168" y="704" type="line"/>
      <point x="879" y="295" type="line"/>
      <point x="1168" y="295" type="line"/>
    </contour>
    <contour>
      <point x="607" y="796" type="qcurve"/>
      <point x="607" y="733"/>
      <point x="562" y="627"/>
      <point x="478" y="550"/>
      <point x="357" y="508"/>
      <point x="282" y="508" type="qcurve"/>
      <point x="231" y="508"/>
      <point x="174" y="524"/>
      <point x="146" y="546"/>
      <point x="140" y="569"/>
      <point x="140" y="576" type="qcurve"/>
      <point x="140" y="594"/>
      <point x="170" y="617"/>
      <point x="190" y="617" type="qcurve"/>
      <point x="212" y="617"/>
      <point x="248" y="600"/>
      <point x="287" y="579"/>
      <point x="333" y="562"/>
      <point x="365" y="562" type="qcurve"/>
      <point x="392" y="562"/>
      <point x="446" y="585"/>
      <point x="491" y="627"/>
      <point x="519" y="686"/>
      <point x="519" y="722" type="qcurve"/>
      <point x="519" y="763"/>
      <point x="498" y="824"/>
      <point x="464" y="869"/>
      <point x="420" y="899"/>
      <point x="398" y="908" type="qcurve"/>
      <point x="345" y="930"/>
      <point x="278" y="931" type="qcurve"/>
      <point x="278" y="950" type="line"/>
      <point x="290" y="951"/>
      <point x="351" y="969"/>
      <point x="416" y="1011"/>
      <point x="465" y="1084"/>
      <point x="465" y="1141" type="qcurve"/>
      <point x="465" y="1181"/>
      <point x="438" y="1234"/>
      <point x="398" y="1266"/>
      <point x="351" y="1279"/>
      <point x="331" y="1279" type="qcurve"/>
      <point x="237" y="1279"/>
      <point x="173" y="1179" type="qcurve"/>
      <point x="152" y="1189" type="line"/>
      <point x="161" y="1208"/>
      <point x="191" y="1268"/>
      <point x="241" y="1324"/>
      <point x="318" y="1364"/>
      <point x="374" y="1364" type="qcurve"/>
      <point x="434" y="1364"/>
      <point x="509" y="1324"/>
      <point x="551" y="1269"/>
      <point x="566" y="1212"/>
      <point x="566" y="1196" type="qcurve"/>
      <point x="566" y="1110"/>
      <point x="455" y="1011" type="qcurve"/>
      <point x="474" y="1003"/>
      <point x="526" y="973"/>
      <point x="574" y="922"/>
      <point x="607" y="848"/>
    </contour>
    <contour>
      <point x="397" y="-15" type="line"/>
      <point x="297" y="-15" type="line"/>
      <point x="1230" y="1382" type="line"/>
      <point x="1322" y="1382" type="line"/>
    </contour>
    <contour>
      <point x="1269" y="211" type="line"/>
      <point x="1269" y="-8" type="line"/>
      <point x="1168" y="-8" type="line"/>
      <point x="1168" y="211" type="line"/>
      <point x="820" y="211" type="line"/>
      <point x="820" y="286" type="line"/>
      <point x="1202" y="832" type="line"/>
      <point x="1269" y="832" type="line"/>
      <point x="1269" y="295" type="line"/>
      <point x="1378" y="295" type="line"/>
      <point x="1378" y="211" type="line"/>
    </contour>
  </outline>
</glyph>
<glyph name="Aacute" format="2">
  <advance width="1472"/>
  <unicode hex="00C1"/>
  <outline>
    <component base="A"/>
    <contour>
      <point x="1022" y="1765" type="qcurve"/>
      <point x="1022" y="1736"/>
      <point x="971" y="1686"/>
      <point x="939" y="1665" type="qcurve"/>
      <point x="643" y="1477" type="line"/>
      <point x="561" y="1477" type="line"/>
      <point x="845" y="1763" type="line"/>
      <point x="871" y="1790"/>
      <point x="936" y="1830"/>
      <point x="969" y="1830" type="qcurve"/>
      <point x="977" y="1830"/>
      <point x="995" y="1818"/>
      <point x="1011" y="1798"/>
      <point x="1022" y="1775"/>
    </contour>
  </outline>
</glyph>
<glyph name="Egrave" format="2">
  <advance width="1251"/>
  <unicode hex="00C8"/>
  <outline>
    <component base="E"/>
    <contour>
      <point x="718" y="1477" type="line"/>
      <point x="423" y="1665" type="line"/>
      <point x="410" y="1673"/>
      <point x="379" y="1692"/>
      <point x="352" y="1715"/>
      <point x="334" y="1740"/>
      <point x="334" y="1753" type="qcurve"/>
      <point x="334" y="1789"/>
      <point x="368" y="1830"/>
      <point x="398" y="1830" type="qcurve"/>
      <point x="424" y="1830"/>
      <point x="489" y="1792"/>
      <point x="517" y="1763" type="qcurve"/>
      <point x="801" y="1477" type="line"/>
    </contour>
  </outline>
</glyph>
<glyph name="Eacute" format="2">
  <advance width="1251"/>
  <unicode hex="00C9"/>
  <outline>
    <component base="E"/>
    <contour>
      <point x="911" y="1765" type="qcurve"/>
      <point x="911" y="1736"/>
      <point x="860" y="1686"/>
      <point x="828" y="1665" type="qcurve"/>
      <point x="532" y="1477" type="line"/>
      <point x="450" y="1477" type="line"/>
      <point x="734" y="1763" type="line"/>
      <point x="760" y="1790"/>
      <point x="825" y="1830"/>
      <point x="858" y="1830" type="qcurve"/>
      <point x="866" y="1830"/>
      <point x="884" y="1818"/>
      <point x="900" y="1798"/>
      <point x="911" y="1775"/>
    </contour>
  </outline>
</glyph>
<glyph name="Edieresis" format="2">
  <advance width="1251"/>
  <unicode hex="00CB"/>
  <outline>
    <component base="E"/>
    <contour>
      <point x="521" y="1663" type="qcurve"/>
      <point x="521" y="1642"/>
      <point x="505" y="1605"/>
      <point x="476" y="1577"/>
      <point x="439" y="1560"/>
      <point x="418" y="1560" type="qcurve"/>
      <point x="398" y="1560"/>
      <point x="362" y="1577"/>
      <point x="334" y="1606"/>
      <point x="318" y="1643"/>
      <point x="318" y="1663" type="qcurve"/>
      <point x="318" y="1682"/>
      <point x="335" y="1719"/>
      <point x="363" y="1747"/>
      <point x="399" y="1765"/>
      <point x="418" y="1765" type="qcurve"/>
      <point x="439" y="1765"/>
      <point x="476" y="1749"/>
      <point x="505" y="1721"/>
      <point x="521" y="1684"/>
    </contour>
    <contour>
      <point x="931" y="1663" type="qcurve"/>
      <point x="931" y="1642"/>
      <point x="915" y="1605"/>
      <point x="886" y="1577"/>
      <point x="849" y="1560"/>
      <point x="828" y="1560" type="qcurve"/>
      <point x="807" y="1560"/>
      <point x="770" y="1577"/>
      <point x="742" y="1606"/>
      <point x="726" y="1643"/>
      <point x="726" y="1663" type="qcurve"/>
      <point x="726" y="1682"/>
      <point x="744" y="1719"/>
      <point x="772" y="1747"/>
      <point x="809" y="1765"/>
      <point x="828" y="1765" type="qcurve"/>
      <point x="849" y="1765"/>
      <point x="886" y="1749"/>
      <point x="915" y="1721"/>
      <point x="931" y="1684"/>
    </contour>
  </outline>
</glyph>
<glyph name="Igrave" format="2">
  <advance width="682"/>
  <unicode hex="00CC"/>
  <outline>
    <component base="I"/>
    <contour>
      <point x="435" y="1477" type="line"/>
      <point x="140" y="1665" type="line"/>
      <point x="127" y="1673"/>
      <point x="96" y="1692"/>
      <point x="69" y="1715"/>
      <point x="51" y="1740"/>
      <point x="51" y="1753" type="qcurve"/>
      <point x="51" y="1789"/>
      <point x="85" y="1830"/>
      <point x="115" y="1830" type="qcurve"/>
      <point x="141" y="1830"/>
      <point x="206" y="1792"/>
      <point x="234" y="1763" type="qcurve"/>
      <point x="518" y="1477" type="line"/>
    </contour>
  </outline>
</glyph>
<glyph name="Icircumflex" format="2">
  <advance width="682"/>
  <unicode hex="00CE"/>
  <outline>
    <component base="I"/>
    <contour>
      <point x="592" y="1477" type="line"/>
      <point x="341" y="1691" type="line"/>
      <point x="91" y="1477" type="line"/>
      <point x="20" y="1477" type="line"/>
      <point x="278" y="1821" type="line"/>
      <point x="406" y="1821" type="line"/>
      <point x="663" y="1477" type="line"/>
    </contour>
  </outline>
</glyph>
<glyph name="Ograve" format="2">
  <advance width="1480"/>
  <unicode hex="00D2"/>
  <outline>
    <component base="O"/>
    <contour>
      <point x="829" y="1477" type="line"/>
      <point x="534" y="1665" type="line"/>
      <point x="521" y="1673"/>
      <point x="490" y="1692"/>
      <point x="463" y="1715"/>
      <point x="445" y="1740"/>
      <point x="445" y="1753" type="qcurve"/>
      <point x="445" y="1789"/>
      <point x="479" y="1830"/>
      <point x="509" y="1830" type="qcurve"/>
      <point x="535" y="1830"/>
      <point x="600" y="1792"/>
      <point x="628" y="1763" type="qcurve"/>
      <point x="912" y="1477" type="line"/>
    </contour>
  </outline>
</glyph>
<glyph name="Ugrave" format="2">
  <advance width="1480"/>
  <unicode hex="00D9"/>
  <outline>
    <component base="U"/>
    <contour>
      <point x="838" y="1477" type="line"/>
      <point x="543" y="1665" type="line"/>
      <point x="530" y="1673"/>
      <point x="499" y="1692"/>
      <point x="472" y="1715"/>
      <point x="454" y="1740"/>
      <point x="454" y="1753" type="qcurve"/>
      <point x="454" y="1789"/>
      <point x="488" y="1830"/>
      <point x="518" y="1830" type="qcurve"/>
      <point x="544" y="1830"/>
      <point x="609" y="1792"/>
      <point x="637" y="1763" type="qcurve"/>
      <point x="921" y="1477" type="line"/>
    </contour>
  </outline>
</glyph>
<glyph name="Thorn" format="2">
  <advance width="1139"/>
  <unicode hex="00DE"/>
  <outline>
    <contour>
      <point x="830" y="678" type="qcurve"/>
      <point x="830" y="751"/>
      <point x="772" y="874"/>
      <point x="717" y="914" type="qcurve"/>
      <point x="697" y="928"/>
      <point x="665" y="950"/>
      <point x="616" y="965"/>
      <point x="535" y="972"/>
      <point x="467" y="972" type="qcurve"/>
      <point x="420" y="972" type="line"/>
      <point x="420" y="374" type="line"/>
      <point x="465" y="374" type="line"/>
      <point x="565" y="374"/>
      <point x="704" y="421"/>
      <point x="791" y="502"/>
      <point x="830" y="613"/>
    </contour>
    <contour>
      <point x="1062" y="680" type="qcurve"/>
      <point x="1062" y="605"/>
      <point x="1003" y="475"/>
      <point x="954" y="425" type="qcurve"/>
      <point x="927" y="399"/>
      <point x="866" y="355"/>
      <point x="765" y="323"/>
      <point x="611" y="305"/>
      <point x="491" y="305" type="qcurve"/>
      <point x="420" y="305" type="line"/>
      <point x="420" y="244" type="line"/>
      <point x="420" y="116"/>
      <point x="455" y="75" type="qcurve"/>
      <point x="473" y="55"/>
      <point x="531" y="38"/>
      <point x="574" y="38" type="qcurve"/>
      <point x="615" y="38" type="line"/>
      <point x="615" y="0" type="line"/>
      <point x="38" y="0" type="line"/>
      <point x="38" y="38" type="line"/>
      <point x="73" y="38" type="line"/>
      <point x="169" y="38"/>
      <point x="207" y="92" type="qcurve"/>
      <point x="227" y="121"/>
      <point x="227" y="241" type="qcurve"/>
      <point x="227" y="1110" type="line"/>
      <point x="227" y="1167"/>
      <point x="220" y="1236"/>
      <point x="215" y="1247" type="qcurve"/>
      <point x="206" y="1277"/>
      <point x="132" y="1320"/>
      <point x="75" y="1320" type="qcurve"/>
      <point x="38" y="1320" type="line"/>
      <point x="38" y="1356" type="line"/>
      <point x="615" y="1356" type="line"/>
      <point x="615" y="1320" type="line"/>
      <point x="574" y="1320" type="line"/>
      <point x="557" y="1320"/>
      <point x="516" y="1312"/>
      <point x="476" y="1295"/>
      <point x="444" y="1267"/>
      <point x="438" y="1247" type="qcurve"/>
      <point x="432" y="1231"/>
      <point x="425" y="1204"/>
      <point x="421" y="1175"/>
      <point x="420" y="1140"/>
      <point x="420" y="1115" type="qcurve"/>
      <point x="420" y="1049" type="line"/>
      <point x="495" y="1049" type="line"/>
      <point x="585" y="1049"/>
      <point x="710" y="1041"/>
      <point x="800" y="1023"/>
      <point x="867" y="993"/>
      <point x="899" y="972" type="qcurve"/>
      <point x="933" y="948"/>
      <point x="993" y="888"/>
      <point x="1037" y="815"/>
      <point x="1062" y="729"/>
    </contour>
  </outline>
</glyph>
<glyph name="germandbls" format="2">
  <advance width="1025"/>
  <unicode hex="00DF"/>
  <outline>
    <contour>
      <point x="960" y="422" type="qcurve"/>
      <point x="960" y="336"/>
      <point x="913" y="179"/>
      <point x="826" y="59"/>
      <point x="701" y="-12"/>
      <point x="623" y="-12" type="qcurve"/>
      <point x="581" y="-12"/>
      <point x="511" y="12"/>
      <point x="460" y="55"/>
      <point x="430" y="114"/>
      <point x="429" y="150" type="qcurve"/>
      <point x="427" y="188"/>
      <point x="472" y="237"/>
      <point x="510" y="237" type="qcurve"/>
      <point x="549" y="237"/>
      <point x="591" y="193"/>
      <point x="593" y="158" type="qcurve"/>
      <point x="594" y="151"/>
      <point x="590" y="132"/>
      <point x="585" y="112"/>
      <point x="581" y="94"/>
      <point x="581" y="90" type="qcurve"/>
      <point x="581" y="67"/>
      <point x="612" y="46"/>
      <point x="639" y="43" type="qcurve"/>
      <point x="706" y="43"/>
      <point x="788" y="178"/>
      <point x="788" y="314" type="qcurve"/>
      <point x="788" y="416"/>
      <point x="754" y="581"/>
      <point x="682" y="700"/>
      <point x="571" y="769"/>
      <point x="495" y="775" type="qcurve"/>
      <point x="495" y="832" type="line"/>
      <point x="545" y="832"/>
      <point x="624" y="859"/>
      <point x="680" y="923"/>
      <point x="709" y="1027"/>
      <point x="709" y="1104" type="qcurve"/>
      <point x="709" y="1172"/>
      <point x="681" y="1268"/>
      <point x="630" y="1328"/>
      <point x="559" y="1356"/>
      <point x="517" y="1356" type="qcurve"/>
      <point x="478" y="1356"/>
      <point x="411" y="1331"/>
      <point x="362" y="1261"/>
      <point x="335" y="1137"/>
      <point x="335" y="1037" type="qcurve"/>
      <point x="335" y="0" type="line"/>
      <point x="36" y="0" type="line"/>
      <point x="36" y="38" type="line"/>
      <point x="75" y="38"/>
      <point x="126" y="54"/>
      <point x="155" y="94"/>
      <point x="167" y="167"/>
      <point x="167" y="224" type="qcurve"/>
      <point x="167" y="968" type="line"/>
      <point x="167" y="1090"/>
      <point x="213" y="1263"/>
      <point x="304" y="1372"/>
      <point x="438" y="1423"/>
      <point x="525" y="1423" type="qcurve"/>
      <point x="604" y="1423"/>
      <point x="734" y="1376"/>
      <point x="827" y="1290"/>
      <point x="877" y="1170"/>
      <point x="877" y="1098" type="qcurve"/>
      <point x="877" y="1059"/>
      <point x="863" y="982"/>
      <point x="822" y="911"/>
      <point x="747" y="847"/>
      <point x="686" y="822" type="qcurve"/>
      <point x="816" y="785"/>
      <point x="960" y="588"/>
    </contour>
  </outline>
</glyph>
<glyph name="agrave" format="2">
  <advance width="910"/>
  <unicode hex="00E0"/>
  <outline>
    <component base="a"/>
    <contour>
      <point x="539" y="1042" type="line"/>
      <point x="244" y="1230" type="line"/>
      <point x="231" y="1238"/>
      <point x="200" y="1257"/>
      <point x="173" y="1280"/>
      <point x="155" y="1305"/>
      <point x="155" y="1318" type="qcurve"/>
      <point x="155" y="1354"/>
      <point x="189" y="1395"/>
      <point x="219" y="1395" type="qcurve"/>
      <point x="245" y="1395"/>
      <point x="310" y="1357"/>
      <point x="338" y="1328" type="qcurve"/>
      <point x="622" y="1042" type="line"/>
    </contour>
  </outline>
</glyph>
<glyph name="aacute" format="2">
  <advance width="910"/>
  <unicode hex="00E1"/>
  <outline>
    <component base="a"/>
    <contour>
      <point x="732" y="1330" type="qcurve"/>
      <point x="732" y="1301"/>
      <point x="681" y="1251"/>
      <point x="649" y="1230" type="qcurve"/>
      <point x="353" y="1042" type="line"/>
      <point x="271" y="1042" type="line"/>
      <point x="555" y="1328" type="line"/>
      <point x="581" y="1355"/>
      <point x="646" y="1395"/>
      <point x="679" y="1395" type="qcurve"/>
      <point x="687" y="1395"/>
      <point x="705" y="1383"/>
      <point x="721" y="1363"/>
      <point x="732" y="1340"/>
    </contour>
  </outline>
</glyph>
<glyph name="acircumflex" format="2">
  <advance width="910"/>
  <unicode hex="00E2"/>
  <outline>
    <component base="a"/>
    <contour>
      <point x="696" y="1042" type="line"/>
      <point x="445" y="1256" type="line"/>
      <point x="195" y="1042" type="line"/>
      <point x="124" y="1042" type="line"/>
      <point x="382" y="1386" type="line"/>
      <point x="510" y="1386" type="line"/>
      <point x="767" y="1042" type="line"/>
    </contour>
  </outline>
</glyph>
<glyph name="ae" format="2">
  <advance width="1368"/>
  <unicode hex="00E6"/>
  <outline>
    <contour>
      <point x="611" y="186" type="qcurve"/>
      <point x="600" y="206"/>
      <point x="583" y="264"/>
      <point x="571" y="332"/>
      <point x="564" y="407"/>
      <point x="564" y="444" type="qcurve"/>
      <point x="564" y="532" type="line"/>
      <point x="508" y="511"/>
      <point x="393" y="462"/>
      <point x="301" y="399"/>
      <point x="243" y="315"/>
      <point x="243" y="258" type="qcurve"/>
      <point x="243" y="221"/>
      <point x="268" y="157"/>
      <point x="311" y="108"/>
      <point x="369" y="80"/>
      <point x="402" y="79" type="qcurve"/>
      <point x="421" y="78"/>
      <point x="460" y="87"/>
      <point x="508" y="111"/>
      <point x="569" y="153"/>
    </contour>
    <contour>
      <point x="1113" y="632" type="line"/>
      <point x="1112" y="697"/>
      <point x="1083" y="788"/>
      <point x="1034" y="846"/>
      <point x="968" y="873"/>
      <point x="929" y="873" type="qcurve"/>
      <point x="890" y="873"/>
      <point x="821" y="844"/>
      <point x="767" y="784"/>
      <point x="734" y="693"/>
      <point x="733" y="632" type="qcurve"/>
    </contour>
    <contour>
      <point x="1305" y="320" type="line"/>
      <point x="1287" y="252"/>
      <point x="1227" y="125"/>
      <point x="1137" y="28"/>
      <point x="1015" y="-30"/>
      <point x="934" y="-30" type="qcurve"/>
      <point x="899" y="-30"/>
      <point x="831" y="-22"/>
      <point x="759" y="11"/>
      <point x="682" y="75"/>
      <point x="639" y="132" type="qcurve"/>
      <point x="617" y="114"/>
      <point x="550" y="58"/>
      <point x="463" y="7"/>
      <point x="357" y="-30"/>
      <point x="297" y="-30" type="qcurve"/>
      <point x="250" y="-30"/>
      <point x="169" y="6"/>
      <point x="108" y="69"/>
      <point x="73" y="153"/>
      <point x="73" y="201" type="qcurve"/>
      <point x="73" y="270"/>
      <point x="126" y="371"/>
      <point x="243" y="458"/>
      <point x="430" y="544"/>
      <point x="564" y="598" type="qcurve"/>
      <point x="564" y="688" type="line"/>
      <point x="564" y="743"/>
      <point x="543" y="819"/>
      <point x="504" y="866"/>
      <point x="450" y="887"/>
      <point x="416" y="887" type="qcurve"/>
      <point x="350" y="887"/>
      <point x="276" y="825"/>
      <point x="274" y="781" type="qcurve"/>
      <point x="272" y="728"/>
      <point x="262" y="667"/>
      <point x="243" y="634"/>
      <point x="215" y="623"/>
      <point x="195" y="621" type="qcurve"/>
      <point x="171" y="621"/>
      <point x="136" y="637"/>
      <point x="115" y="663"/>
      <point x="105" y="698"/>
      <point x="105" y="717" type="qcurve"/>
      <point x="105" y="754"/>
      <point x="145" y="834"/>
      <point x="227" y="900"/>
      <point x="355" y="942"/>
      <point x="442" y="942" type="qcurve"/>
      <point x="504" y="942"/>
      <point x="596" y="924"/>
      <point x="661" y="892"/>
      <point x="701" y="848"/>
      <point x="711" y="822" type="qcurve"/>
      <point x="761" y="888"/>
      <point x="890" y="942"/>
      <point x="980" y="942" type="qcurve"/>
      <point x="1054" y="942"/>
      <point x="1173" y="892"/>
      <point x="1257" y="796"/>
      <point x="1303" y="657"/>
      <point x="1305" y="568" type="qcurve"/>
      <point x="733" y="568" type="line"/>
      <point x="733" y="445"/>
      <point x="755" y="287"/>
      <point x="784" y="239" type="qcurve"/>
      <point x="804" y="204"/>
      <point x="856" y="159"/>
      <point x="912" y="132"/>
      <point x="966" y="122"/>
      <point x="989" y="122" type="qcurve"/>
      <point x="1004" y="122"/>
      <point x="1071" y="129"/>
      <point x="1153" y="170"/>
      <point x="1239" y="260"/>
      <point x="1273" y="343" type="qcurve"/>
    </contour>
  </outline>
</glyph>
<glyph name="ccedilla" format="2">
  <advance width="910"/>
  <unicode hex="00E7"/>
  <outline>
    <contour>
      <point x="670" y="-270" type="qcurve"/>
      <point x="670" y="-311"/>
      <point x="624" y="-375"/>
      <point x="550" y="-419"/>
      <point x="455" y="-442"/>
      <point x="407" y="-442" type="qcurve"/>
      <point x="365" y="-442"/>
      <point x="279" y="-423"/>
      <point x="241" y="-410" type="qcurve"/>
      <point x="271" y="-345" type="line"/>
      <point x="284" y="-350"/>
      <point x="317" y="-360"/>
      <point x="352" y="-367"/>
      <point x="384" y="-371"/>
      <point x="397" y="-371" type="qcurve"/>
      <point x="454" y="-371"/>
      <point x="517" y="-327"/>
      <point x="517" y="-284" type="qcurve"/>
      <point x="517" y="-249"/>
      <point x="476" y="-208"/>
      <point x="442" y="-205" type="qcurve"/>
      <point x="418" y="-203"/>
      <point x="370" y="-209"/>
      <point x="350" y="-215" type="qcurve"/>
      <point x="333" y="-203" type="line"/>
      <point x="408" y="-26" type="line"/>
      <point x="355" y="-19"/>
      <point x="307" y="4" type="qcurve"/>
      <point x="236" y="39"/>
      <point x="130" y="166"/>
      <point x="69" y="346"/>
      <point x="69" y="457" type="qcurve"/>
      <point x="69" y="566"/>
      <point x="139" y="745"/>
      <point x="258" y="872"/>
      <point x="417" y="942"/>
      <point x="506" y="942" type="qcurve"/>
      <point x="643" y="942"/>
      <point x="729" y="871" type="qcurve"/>
      <point x="772" y="836"/>
      <point x="818" y="762"/>
      <point x="818" y="724" type="qcurve"/>
      <point x="818" y="689"/>
      <point x="771" y="639"/>
      <point x="724" y="639" type="qcurve"/>
      <point x="709" y="639"/>
      <point x="673" y="645"/>
      <point x="640" y="668"/>
      <point x="616" y="715"/>
      <point x="613" y="756" type="qcurve"/>
      <point x="608" y="810"/>
      <point x="543" y="877"/>
      <point x="474" y="877" type="qcurve"/>
      <point x="417" y="877"/>
      <point x="327" y="826"/>
      <point x="265" y="737"/>
      <point x="233" y="615"/>
      <point x="233" y="544" type="qcurve"/>
      <point x="233" y="463"/>
      <point x="272" y="313"/>
      <point x="348" y="198"/>
      <point x="458" y="130"/>
      <point x="530" y="130" type="qcurve"/>
      <point x="572" y="130"/>
      <point x="649" y="149"/>
      <point x="719" y="201"/>
      <point x="784" y="292"/>
      <point x="814" y="363" type="qcurve"/>
      <point x="841" y="348" type="line"/>
      <point x="828" y="265"/>
      <point x="756" y="126"/>
      <point x="653" y="26"/>
      <point x="590" y="-2" type="qcurve"/>
      <point x="537" y="-25"/>
      <point x="481" y="-29" type="qcurve"/>
      <point x="440" y="-134" type="line"/>
      <point x="467" y="-128"/>
      <point x="499" y="-128" type="qcurve"/>
      <point x="532" y="-128"/>
      <point x="594" y="-145"/>
      <point x="641" y="-179"/>
      <point x="670" y="-233"/>
    </contour>
  </outline>
</glyph>
<glyph name="egrave" format="2">
  <advance width="910"/>
  <unicode hex="00E8"/>
  <outline>
    <component base="e"/>
    <contour>
      <point x="579" y="1042" type="line"/>
      <point x="284" y="1230" type="line"/>
      <point x="271" y="1238"/>
      <point x="240" y="1257"/>
      <point x="213" y="1280"/>
      <point x="195" y="1305"/>
      <point x="195" y="1318" type="qcurve"/>
      <point x="195" y="1354"/>
      <point x="229" y="1395"/>
      <point x="259" y="1395" type="qcurve"/>
      <point x="285" y="1395"/>
      <point x="350" y="1357"/>
      <point x="378" y="1328" type="qcurve"/>
      <point x="662" y="1042" type="line"/>
    </contour>
  </outline>
</glyph>
<glyph name="eacute" format="2">
  <advance width="910"/>
  <unicode hex="00E9"/>
  <outline>
    <component base="e"/>
    <contour>
      <point x="772" y="1330" type="qcurve"/>
      <point x="772" y="1301"/>
      <point x="721" y="1251"/>
      <point x="689" y="1230" type="qcurve"/>
      <point x="393" y="1042" type="line"/>
      <point x="311" y="1042" type="line"/>
      <point x="595" y="1328" type="line"/>
      <point x="621" y="1355"/>
      <point x="686" y="1395"/>
      <point x="719" y="1395" type="qcurve"/>
      <point x="727" y="1395"/>
      <point x="745" y="1383"/>
      <point x="761" y="1363"/>
      <point x="772" y="1340"/>
    </contour>
  </outline>
</glyph>
<glyph name="icircumflex" format="2">
  <advance width="570"/>
  <unicode hex="00EE"/>
  <outline>
    <component base="dotlessi"/>
    <contour>
      <point x="545" y="1042" type="line"/>
      <point x="294" y="1256" type="line"/>
      <point x="44" y="1042" type="line"/>
      <point x="-27" y="1042" type="line"/>
      <point x="231" y="1386" type="line"/>
      <point x="359" y="1386" type="line"/>
      <point x="616" y="1042" type="line"/>
    </contour>
  </outline>
</glyph>
<glyph name="idieresis" format="2">
  <advance width="570"/>
  <unicode hex="00EF"/>
  <outline>
    <component base="dotlessi"/>
    <contour>
      <point x="191" y="1228" type="qcurve"/>
      <point x="191" y="1207"/>
      <point x="175" y="1170"/>
      <point x="146" y="1142"/>
      <point x="109" y="1125"/>
      <point x="88" y="1125" type="qcurve"/>
      <point x="68" y="1125"/>
      <point x="32" y="1142"/>
      <point x="4" y="1171"/>
      <point x="-12" y="1208"/>
      <point x="-12" y="1228" type="qcurve"/>
      <point x="-12" y="1247"/>
      <point x="5" y="1284"/>
      <point x="33" y="1312"/>
      <point x="69" y="1330"/>
      <point x="88" y="1330" type="qcurve"/>
      <point x="109" y="1330"/>
      <point x="146" y="1314"/>
      <point x="175" y="1286"/>
      <point x="191" y="1249"/>
    </contour>
    <contour>
      <point x="601" y="1228" type="qcurve"/>
      <point x="601" y="1207"/>
      <point x="585" y="1170"/>
      <point x="556" y="1142"/>
      <point x="519" y="1125"/>
      <point x="498" y="1125" type="qcurve"/>
      <point x="477" y="1125"/>
      <point x="440" y="1142"/>
      <point x="412" y="1171"/>
      <point x="396" y="1208"/>
      <point x="396" y="1228" type="qcurve"/>
      <point x="396" y="1247"/>
      <point x="414" y="1284"/>
      <point x="442" y="1312"/>
      <point x="479" y="1330"/>
      <point x="498" y="1330" type="qcurve"/>
      <point x="519" y="1330"/>
      <point x="556" y="1314"/>
      <point x="585" y="1286"/>
      <point x="601" y="1249"/>
    </contour>
  </outline>
</glyph>
<glyph name="ograve" format="2">
  <advance width="1025"/>
  <unicode hex="00F2"/>
  <outline>
    <component base="o"/>
    <contour>
      <point x="605" y="1042" type="line"/>
      <point x="310" y="1230" type="line"/>
      <point x="297" y="1238"/>
      <point x="266" y="1257"/>
      <point x="239" y="1280"/>
      <point x="221" y="1305"/>
      <point x="221" y="1318" type="qcurve"/>
      <point x="221" y="1354"/>
      <point x="255" y="1395"/>
      <point x="285" y="1395" type="qcurve"/>
      <point x="311" y="1395"/>
      <point x="376" y="1357"/>
      <point x="404" y="1328" type="qcurve"/>
      <point x="688" y="1042" type="line"/>
    </contour>
  </outline>
</glyph>
<glyph name="oacute" format="2">
  <advance width="1025"/>
  <unicode hex="00F3"/>
  <outline>
    <component base="o"/>
    <contour>
      <point x="798" y="1330" type="qcurve"/>
      <point x="798" y="1301"/>
      <point x="747" y="1251"/>
      <point x="715" y="1230" type="qcurve"/>
      <point x="419" y="1042" type="line"/>
      <point x="337" y="1042" type="line"/>
      <point x="621" y="1328" type="line"/>
      <point x="647" y="1355"/>
      <point x="712" y="1395"/>
      <point x="745" y="1395" type="qcurve"/>
      <point x="753" y="1395"/>
      <point x="771" y="1383"/>
      <point x="787" y="1363"/>
      <point x="798" y="1340"/>
    </contour>
  </outline>
</glyph>
<glyph name="oslash" format="2">
  <advance width="1023"/>
  <unicode hex="00F8"/>
  <outline>
    <contour>
      <point x="954" y="475" type="qcurve"/>
      <point x="954" y="386"/>
      <point x="897" y="207"/>
      <point x="784" y="61"/>
      <point x="615" y="-30"/>
      <point x="502" y="-30" type="qcurve"/>
      <point x="405" y="-30"/>
      <point x="326" y="9" type="qcurve"/>
      <point x="267" y="37"/>
      <point x="218" y="83" type="qcurve"/>
      <point x="83" y="-67" type="line"/>
      <point x="36" y="-24" type="line"/>
      <point x="175" y="131" type="line"/>
      <point x="128" y="191"/>
      <point x="100" y="267" type="qcurve"/>
      <point x="69" y="353"/>
      <point x="69" y="449" type="qcurve"/>
      <point x="69" y="542"/>
      <point x="130" y="719"/>
      <point x="245" y="857"/>
      <point x="409" y="942"/>
      <point x="512" y="942" type="qcurve"/>
      <point x="611" y="942"/>
      <point x="692" y="906" type="qcurve"/>
      <point x="755" y="877"/>
      <point x="804" y="833" type="qcurve"/>
      <point x="936" y="980" type="line"/>
      <point x="982" y="936" type="line"/>
      <point x="848" y="787" type="line"/>
      <point x="895" y="730"/>
      <point x="922" y="658" type="qcurve"/>
      <point x="954" y="571"/>
    </contour>
    <contour>
      <point x="690" y="740" type="qcurve"/>
      <point x="653" y="806"/>
      <point x="547" y="879"/>
      <point x="481" y="879" type="qcurve"/>
      <point x="442" y="879"/>
      <point x="361" y="845"/>
      <point x="295" y="765"/>
      <point x="254" y="632"/>
      <point x="254" y="532" type="qcurve"/>
      <point x="254" y="436"/>
      <point x="274" y="345" type="qcurve"/>
      <point x="279" y="325"/>
      <point x="290" y="286"/>
      <point x="297" y="267" type="qcurve"/>
      <point x="701" y="718" type="line"/>
      <point x="699" y="724"/>
      <point x="693" y="735"/>
    </contour>
    <contour>
      <point x="767" y="398" type="qcurve"/>
      <point x="767" y="449"/>
      <point x="757" y="543"/>
      <point x="747" y="588" type="qcurve"/>
      <point x="743" y="605"/>
      <point x="738" y="621" type="qcurve"/>
      <point x="728" y="653" type="line"/>
      <point x="325" y="203" type="line"/>
      <point x="333" y="189" type="line"/>
      <point x="371" y="122"/>
      <point x="478" y="43"/>
      <point x="544" y="43" type="qcurve"/>
      <point x="593" y="43"/>
      <point x="676" y="80"/>
      <point x="734" y="164"/>
      <point x="767" y="300"/>
    </contour>
  </outline>
</glyph>
<glyph name="uacute" format="2">
  <advance width="1025"/>
  <unicode hex="00FA"/>
  <outline>
    <component base="u"/>
    <contour>
      <point x="800" y="1330" type="qcurve"/>
      <point x="800" y="1301"/>
      <point x="749" y="1251"/>
      <point x="717" y="1230" type="qcurve"/>
      <point x="421" y="1042" type="line"/>
      <point x="339" y="1042" type="line"/>
      <point x="623" y="1328" type="line"/>
      <point x="649" y="1355"/>
      <point x="714" y="1395"/>
      <point x="747" y="1395" type="qcurve"/>
      <point x="755" y="1395"/>
      <point x="773" y="1383"/>
      <point x="789" y="1363"/>
      <point x="800" y="1340"/>
    </contour>
  </outline>
</glyph>
<glyph name="ucircumflex" format="2">
  <advance width="1025"/>
  <unicode hex="00FB"/>
  <outline>
    <component base="u"/>
    <contour>
      <point x="764" y="1042" type="line"/>
      <point x="513" y="1256" type="line"/>
      <point x="263" y="1042" type="line"/>
      <point x="192" y="1042" type="line"/>
      <point x="450" y="1386" type="line"/>
      <point x="578" y="1386" type="line"/>
      <point x="835" y="1042" type="line"/>
    </contour>
  </outline>
</glyph>
<glyph name="ydieresis" format="2">
  <advance width="1025"/>
  <unicode hex="00FF"/>
  <outline>
    <component base="y"/>
    <contour>
      <point x="447" y="1228" type="qcurve"/>
      <point x="447" y="1207"/>
      <point x="431" y="1170"/>
      <point x="402" y="1142"/>
      <point x="365" y="1125"/>
      <point x="344" y="1125" type="qcurve"/>
      <point x="324" y="1125"/>
      <point x="288" y="1142"/>
      <point x="260" y="1171"/>
      <point x="244" y="1208"/>
      <point x="244" y="1228" type="qcurve"/>
      <point x="244" y="1247"/>
      <point x="261" y="1284"/>
      <point x="289" y="1312"/>
      <point x="325" y="1330"/>
      <point x="344" y="1330" type="qcurve"/>
      <point x="365" y="1330"/>
      <point x="402" y="1314"/>
      <point x="431" y="1286"/>
      <point x="447" y="1249"/>
    </contour>
    <contour>
      <point x="857" y="1228" type="qcurve"/>
      <point x="857" y="1207"/>
      <point x="841" y="1170"/>
      <point x="812" y="1142"/>
      <point x="775" y="1125"/>
      <point x="754" y="1125" type="qcurve"/>
      <point x="733" y="1125"/>
      <point x="696" y="1142"/>
      <point x="668" y="1171"/>
      <point x="652" y="1208"/>
      <point x="652" y="1228" type="qcurve"/>
      <point x="652" y="1247"/>
      <point x="670" y="1284"/>
      <point x="698" y="1312"/>
      <point x="735" y="1330"/>
      <point x="754" y="1330" type="qcurve"/>
      <point x="775" y="1330"/>
      <point x="812" y="1314"/>
      <point x="841" y="1286"/>
      <point x="857" y="1249"/>
    </contour>
  </outline>
</glyph>
<glyph name="dotlessi" format="2">
  <advance width="570"/>
  <unicode hex="0131"/>
  <outline>
    <contour>
      <point x="77" y="0" type="line"/>
      <point x="77" y="38" type="line"/>
      <point x="127" y="38"/>
      <point x="176" y="51"/>
      <point x="190" y="69" type="qcurve"/>
      <point x="196" y="78"/>
      <point x="206" y="99"/>
      <point x="213" y="130"/>
      <point x="217" y="175"/>
      <point x="217" y="207" type="qcurve"/>
      <point x="217" y="560" type="line"/>
      <point x="217" y="621"/>
      <point x="216" y="704"/>
      <point x="211" y="758"/>
      <point x="200" y="787"/>
      <point x="190" y="796" type="qcurve"/>
      <point x="172" y="813"/>
      <point x="120" y="811"/>
      <point x="77" y="796" type="qcurve"/>
      <point x="64" y="832" type="line"/>
      <point x="341" y="942" type="line"/>
      <point x="384" y="942" type="line"/>
      <point x="384" y="207" type="line"/>
      <point x="384" y="146"/>
      <point x="395" y="85"/>
      <point x="408" y="71" type="qcurve"/>
      <point x="418" y="60"/>
      <point x="436" y="47"/>
      <point x="461" y="40"/>
      <point x="497" y="38"/>
      <point x="525" y="38" type="qcurve"/>
      <point x="525" y="0" type="line"/>
    </contour>
  </outline>
</glyph>
<glyph name="oe" format="2">
  <advance width="1480"/>
  <unicode hex="0153"/>
  <outline>
    <contour>
      <point x="715" y="378" type="qcurve"/>
      <point x="715" y="490"/>
      <point x="683" y="677"/>
      <point x="619" y="812"/>
      <point x="520" y="887"/>
      <point x="453" y="887" type="qcurve"/>
      <point x="412" y="887"/>
      <point x="340" y="851"/>
      <point x="286" y="769"/>
      <point x="254" y="637"/>
      <point x="254" y="540" type="qcurve"/>
      <point x="254" y="435"/>
      <point x="289" y="253"/>
      <point x="355" y="120"/>
      <point x="450" y="43"/>
      <point x="510" y="43" type="qcurve"/>
      <point x="554" y="43"/>
      <point x="629" y="77"/>
      <point x="684" y="156"/>
      <point x="715" y="284"/>
    </contour>
    <contour>
      <point x="1216" y="639" type="line"/>
      <point x="1216" y="679"/>
      <point x="1198" y="764"/>
      <point x="1157" y="833"/>
      <point x="1089" y="877"/>
      <point x="1038" y="877" type="qcurve"/>
      <point x="1009" y="877"/>
      <point x="949" y="849"/>
      <point x="899" y="790"/>
      <point x="866" y="700"/>
      <point x="865" y="639" type="qcurve"/>
    </contour>
    <contour>
      <point x="1413" y="339" type="line"/>
      <point x="1375" y="147"/>
      <point x="1198" y="-30"/>
      <point x="1065" y="-30" type="qcurve"/>
      <point x="1019" y="-30"/>
      <point x="938" y="-4"/>
      <point x="871" y="41"/>
      <point x="820" y="101"/>
      <point x="805" y="134" type="qcurve"/>
      <point x="745" y="57"/>
      <point x="588" y="-30"/>
      <point x="477" y="-30" type="qcurve"/>
      <point x="391" y="-30"/>
      <point x="241" y="38"/>
      <point x="130" y="162"/>
      <point x="67" y="337"/>
      <point x="67" y="444" type="qcurve"/>
      <point x="67" y="558"/>
      <point x="132" y="743"/>
      <point x="246" y="872"/>
      <point x="401" y="942"/>
      <point x="491" y="942" type="qcurve"/>
      <point x="597" y="942"/>
      <point x="754" y="857"/>
      <point x="805" y="784" type="qcurve"/>
      <point x="856" y="866"/>
      <point x="992" y="944"/>
      <point x="1086" y="944" type="qcurve"/>
      <point x="1162" y="944"/>
      <point x="1283" y="894"/>
      <point x="1368" y="801"/>
      <point x="1413" y="669"/>
      <point x="1413" y="587" type="qcurve"/>
      <point x="1413" y="574" type="line"/>
      <point x="865" y="574" type="line"/>
      <point x="864" y="563"/>
      <point x="864" y="544"/>
      <point x="864" y="534" type="qcurve"/>
      <point x="864" y="442"/>
      <point x="904" y="295"/>
      <point x="977" y="193"/>
      <point x="1078" y="138"/>
      <point x="1139" y="138" type="qcurve"/>
      <point x="1178" y="138"/>
      <point x="1247" y="160"/>
      <point x="1307" y="211"/>
      <point x="1358" y="294"/>
      <point x="1380" y="355" type="qcurve"/>
    </contour>
  </outline>
</glyph>
<glyph name="Scaron" format="2">
  <advance width="1139"/>
  <unicode hex="0160"/>
  <outline>
    <component base="S"/>
    <contour>
      <point x="645" y="1477" type="line"/>
      <point x="517" y="1477" type="line"/>
      <point x="259" y="1821" type="line"/>
      <point x="330" y="1821" type="line"/>
      <point x="580" y="1610" type="line"/>
      <point x="831" y="1821" type="line"/>
      <point x="902" y="1821" type="line"/>
    </contour>
  </outline>
</glyph>
<glyph name="scaron" format="2">
  <advance width="798"/>
  <unicode hex="0161"/>
  <outline>
    <component base="s"/>
    <contour>
      <point x="478" y="1042" type="line"/>
      <point x="350" y="1042" type="line"/>
      <point x="92" y="1386" type="line"/>
      <point x="163" y="1386" type="line"/>
      <point x="413" y="1175" type="line"/>
      <point x="664" y="1386" type="line"/>
      <point x="735" y="1386" type="line"/>
    </contour>
  </outline>
</glyph>
<glyph name="Ydieresis" format="2">
  <advance width="1480"/>
  <unicode hex="0178"/>
  <outline>
    <component base="Y"/>
    <contour>
      <point x="630" y="1663" type="qcurve"/>
      <point x="630" y="1642"/>
      <point x="614" y="1605"/>
      <point x="585" y="1577"/>
      <point x="548" y="1560"/>
      <point x="527" y="1560" type="qcurve"/>
      <point x="507" y="1560"/>
      <point x="471" y="1577"/>
      <point x="443" y="1606"/>
      <point x="427" y="1643"/>
      <point x="427" y="1663" type="qcurve"/>
      <point x="427" y="1682"/>
      <point x="444" y="1719"/>
      <point x="472" y="1747"/>
      <point x="508" y="1765"/>
      <point x="527" y="1765" type="qcurve"/>
      <point x="548" y="1765"/>
      <point x="585" y="1749"/>
      <point x="614" y="1721"/>
      <point x="630" y="1684"/>
    </contour>
    <contour>
      <point x="1040" y="1663" type="qcurve"/>
      <point x="1040" y="1642"/>
      <point x="1024" y="1605"/>
      <point x="995" y="1577"/>
      <point x="958" y="1560"/>
      <point x="937" y="1560" type="qcurve"/>
      <point x="916" y="1560"/>
      <point x="879" y="1577"/>
      <point x="851" y="1606"/>
      <point x="835" y="1643"/>
      <point x="835" y="1663" type="qcurve"/>
      <point x="835" y="1682"/>
      <point x="853" y="1719"/>
      <point x="881" y="1747"/>
      <point x="918" y="1765"/>
      <point x="937" y="1765" type="qcurve"/>
      <point x="958" y="1765"/>
      <point x="995" y="1749"/>
      <point x="1024" y="1721"/>
      <point x="1040" y="1684"/>
    </contour>
  </outline>
</glyph>
<glyph name="uni02BC" format="2">
  <advance width="285"/>
  <unicode hex="02BC"/>
  <outline>
    <contour>
      <point x="295" y="1189" type="qcurve"/>
      <point x="295" y="1137"/>
      <point x="267" y="1052"/>
      <point x="222" y="986"/>
      <point x="166" y="935"/>
      <point x="108" y="899"/>
      <point x="54" y="875"/>
      <point x="35" y="869" type="qcurve"/>
      <point x="35" y="912" type="line"/>
      <point x="61" y="928"/>
      <point x="120" y="966"/>
      <point x="169" y="1015"/>
      <point x="202" y="1078"/>
      <point x="202" y="1119" type="qcurve"/>
      <point x="202" y="1138"/>
      <point x="193" y="1163"/>
      <point x="181" y="1176"/>
      <point x="168" y="1181"/>
      <point x="165" y="1181" type="qcurve"/>
      <point x="151" y="1181"/>
      <point x="110" y="1165"/>
      <point x="90" y="1165" type="qcurve"/>
      <point x="73" y="1165"/>
      <point x="37" y="1179"/>
      <point x="8" y="1206"/>
      <point x="-10" y="1246"/>
      <point x="-10" y="1271" type="qcurve"/>
      <point x="-10" y="1301"/>
      <point x="16" y="1345"/>
      <point x="55" y="1374"/>
      <point x="101" y="1388"/>
      <point x="121" y="1388" type="qcurve"/>
      <point x="151" y="1388"/>
      <point x="213" y="1360"/>
      <point x="263" y="1308"/>
      <point x="295" y="1235"/>
    </contour>
  </outline>
</glyph>
<glyph name="breve" format="2">
  <advance width="579"/>
  <unicode hex="02D8"/>
  <outline>
    <contour>
      <point x="579" y="1366" type="line"/>
      <point x="575" y="1300"/>
      <point x="537" y="1182"/>
      <point x="465" y="1093"/>
      <point x="358" y="1042"/>
      <point x="286" y="1042" type="qcurve"/>
      <point x="218" y="1042"/>
      <point x="111" y="1091"/>
      <point x="38" y="1176"/>
      <point x="0" y="1289"/>
      <point x="0" y="1354" type="qcurve"/>
      <point x="0" y="1366" type="line"/>
      <point x="61" y="1366" type="line"/>
      <point x="70" y="1325"/>
      <point x="115" y="1252"/>
      <point x="176" y="1198"/>
      <point x="249" y="1166"/>
      <point x="286" y="1166" type="qcurve"/>
      <point x="333" y="1166"/>
      <point x="410" y="1197"/>
      <point x="469" y="1251"/>
      <point x="509" y="1324"/>
      <point x="519" y="1366" type="qcurve"/>
    </contour>
  </outline>
</glyph>
<glyph name="ogonek" format="2">
  <advance width="388"/>
  <unicode hex="02DB"/>
  <outline>
    <contour>
      <point x="323" y="-274" type="line"/>
      <point x="306" y="-291"/>
      <point x="268" y="-328"/>
      <point x="223" y="-358"/>
      <point x="169" y="-377"/>
      <point x="136" y="-377" type="qcurve"/>
      <point x="104" y="-377"/>
      <point x="51" y="-354"/>
      <point x="14" y="-315"/>
      <point x="-7" y="-263"/>
      <point x="-7" y="-234" type="qcurve"/>
      <point x="-7" y="-164"/>
      <point x="69" y="-48"/>
      <point x="156" y="0" type="qcurve"/>
      <point x="233" y="0" type="line"/>
      <point x="215" y="-11"/>
      <point x="172" y="-48"/>
      <point x="134" y="-99"/>
      <point x="109" y="-162"/>
      <point x="109" y="-199" type="qcurve"/>
      <point x="109" y="-213"/>
      <point x="119" y="-243"/>
      <point x="139" y="-268"/>
      <point x="166" y="-284"/>
      <point x="184" y="-284" type="qcurve"/>
      <point x="215" y="-284"/>
      <point x="287" y="-252"/>
      <point x="323" y="-219" type="qcurve"/>
    </contour>
  </outline>
</glyph>
<glyph name="hungarumlaut" format="2">
  <advance width="828"/>
  <unicode hex="02DD"/>
  <outline>
    <contour>
      <point x="459" y="1350" type="qcurve"/>
      <point x="459" y="1342" type="line"/>
      <point x="459" y="1322"/>
      <point x="443" y="1295"/>
      <point x="417" y="1275"/>
      <point x="385" y="1258"/>
      <point x="369" y="1247" type="qcurve"/>
      <point x="73" y="1042" type="line"/>
      <point x="0" y="1042" type="line"/>
      <point x="284" y="1328" type="line"/>
      <point x="296" y="1340"/>
      <point x="320" y="1365"/>
      <point x="346" y="1384"/>
      <point x="377" y="1397"/>
      <point x="395" y="1397" type="qcurve"/>
      <point x="456" y="1397"/>
    </contour>
    <contour>
      <point x="828" y="1350" type="qcurve"/>
      <point x="828" y="1342" type="line"/>
      <point x="828" y="1322"/>
      <point x="811" y="1295"/>
      <point x="785" y="1275"/>
      <point x="752" y="1257"/>
      <point x="737" y="1247" type="qcurve"/>
      <point x="442" y="1042" type="line"/>
      <point x="371" y="1042" type="line"/>
      <point x="654" y="1328" type="line"/>
      <point x="677" y="1352"/>
      <point x="732" y="1397"/>
      <point x="763" y="1397" type="qcurve"/>
      <point x="825" y="1397"/>
    </contour>
  </outline>
</glyph>
<glyph name="uni0305" format="2">
  <unicode hex="0305"/>
  <anchor x="-512" y="1590" name="U"/>
  <anchor x="-512" y="1000" name="_A"/>
  <outline>
    <contour>
      <point x="-1155" y="1345" type="line"/>
      <point x="-1155" y="1454" type="line"/>
      <point x="131" y="1454" type="line"/>
      <point x="131" y="1345" type="line"/>
    </contour>
  </outline>
</glyph>
<glyph name="uni033F" format="2">
  <unicode hex="033F"/>
  <anchor x="-512" y="1590" name="U"/>
  <anchor x="-512" y="1000" name="_A"/>
  <outline>
    <contour>
      <point x="-1155" y="1345" type="line"/>
      <point x="-1155" y="1454" type="line"/>
      <point x="131" y="1454" type="line"/>
      <point x="131" y="1345" type="line"/>
    </contour>
    <contour>
      <point x="-1155" y="1125" type="line"/>
      <point x="-1155" y="1234" type="line"/>
      <point x="131" y="1234" type="line"/>
      <point x="131" y="1125" type="line"/>
    </contour>
  </outline>
</glyph>
<glyph name="uni0352" format="2">
  <unicode hex="0352"/>
  <anchor x="-455" y="991" name="_U"/>
  <outline>
    <contour>
      <point x="-454" y="1724" type="qcurve"/>
      <point x="-123" y="1720"/>
      <point x="244" y="1351"/>
      <point x="266" y="1095" type="qcurve"/>
      <point x="226" y="1095" type="line"/>
      <point x="123" y="1360"/>
      <point x="-235" y="1576"/>
      <point x="-455" y="1578" type="qcurve"/>
      <point x="-675" y="1576"/>
      <point x="-1037" y="1360"/>
      <point x="-1153" y="1095" type="qcurve"/>
      <point x="-1195" y="1095" type="line"/>
      <point x="-1160" y="1351"/>
      <point x="-785" y="1720"/>
    </contour>
    <contour>
      <point x="-322" y="1184" type="qcurve"/>
      <point x="-322" y="1118"/>
      <point x="-397" y="1044"/>
      <point x="-463" y="1044" type="qcurve"/>
      <point x="-493" y="1044"/>
      <point x="-545" y="1064"/>
      <point x="-581" y="1101"/>
      <point x="-602" y="1153"/>
      <point x="-602" y="1184" type="qcurve"/>
      <point x="-602" y="1215"/>
      <point x="-581" y="1266"/>
      <point x="-545" y="1303"/>
      <point x="-493" y="1324"/>
      <point x="-463" y="1324" type="qcurve"/>
      <point x="-397" y="1324"/>
      <point x="-322" y="1248"/>
    </contour>
  </outline>
</glyph>
<glyph name="pi" format="2">
  <advance width="1171"/>
  <unicode hex="03C0"/>
  <outline>
    <contour>
      <point x="1132" y="299" type="line"/>
      <point x="1132" y="219"/>
      <point x="1096" y="98"/>
      <point x="1035" y="17"/>
      <point x="954" y="-24"/>
      <point x="909" y="-24" type="qcurve"/>
      <point x="837" y="-24"/>
      <point x="752" y="25"/>
      <point x="709" y="100"/>
      <point x="696" y="191"/>
      <point x="696" y="233" type="qcurve"/>
      <point x="696" y="790" type="line"/>
      <point x="427" y="790" type="line"/>
      <point x="427" y="339" type="line"/>
      <point x="427" y="263"/>
      <point x="394" y="130"/>
      <point x="331" y="32"/>
      <point x="239" y="-24"/>
      <point x="179" y="-24" type="qcurve"/>
      <point x="136" y="-24"/>
      <point x="82" y="24"/>
      <point x="51" y="102"/>
      <point x="39" y="201"/>
      <point x="39" y="252" type="qcurve"/>
      <point x="105" y="252" type="line"/>
      <point x="105" y="194"/>
      <point x="145" y="122"/>
      <point x="179" y="122" type="qcurve"/>
      <point x="194" y="122"/>
      <point x="229" y="133"/>
      <point x="265" y="165"/>
      <point x="298" y="222"/>
      <point x="324" y="316"/>
      <point x="339" y="450"/>
      <point x="339" y="542" type="qcurve"/>
      <point x="339" y="790" type="line"/>
      <point x="256" y="790" type="line"/>
      <point x="206" y="790"/>
      <point x="150" y="764"/>
      <point x="121" y="728"/>
      <point x="111" y="690"/>
      <point x="107" y="678" type="qcurve"/>
      <point x="49" y="678" type="line"/>
      <point x="49" y="711"/>
      <point x="74" y="794"/>
      <point x="129" y="867"/>
      <point x="216" y="916"/>
      <point x="278" y="916" type="qcurve"/>
      <point x="987" y="916" type="line"/>
      <point x="1020" y="916"/>
      <point x="1076" y="947"/>
      <point x="1082" y="968" type="qcurve"/>
      <point x="1132" y="968" type="line"/>
      <point x="1132" y="932"/>
      <point x="1117" y="867"/>
      <point x="1082" y="818"/>
      <point x="1025" y="790"/>
      <point x="984" y="790" type="qcurve"/>
      <point x="863" y="790" type="line"/>
      <point x="863" y="266" type="line"/>
      <point x="863" y="216"/>
      <point x="862" y="138"/>
      <point x="874" y="84"/>
      <point x="904" y="55"/>
      <point x="936" y="55" type="qcurve"/>
      <point x="959" y="55"/>
      <point x="1002" y="84"/>
      <point x="1036" y="144"/>
      <point x="1057" y="236"/>
      <point x="1057" y="299" type="qcurve"/>
    </contour>
  </outline>
</glyph>
<glyph name="figuredash" format="2">
  <advance width="1025"/>
  <unicode hex="2012"/>
  <anchor x="512" y="1870" name="A"/>
  <anchor x="512" y="-100" name="L"/>
  <anchor x="512" y="1435" name="U"/>
  <outline>
    <contour>
      <point x="50" y="382" type="line"/>
      <point x="50" y="534" type="line"/>
      <point x="975" y="534" type="line"/>
      <point x="975" y="382" type="line"/>
    </contour>
  </outline>
</glyph>
<glyph name="uni2015" format="2">
  <advance width="1990"/>
  <unicode hex="2015"/>
  <anchor x="995" y="1870" name="A"/>
  <anchor x="995" y="-100" name="L"/>
  <anchor x="995" y="1435" name="U"/>
  <outline>
    <contour>
      <point x="-5" y="382" type="line"/>
      <point x="-5" y="534" type="line"/>
      <point x="1995" y="534" type="line"/>
      <point x="1995" y="382" type="line"/>
    </contour>
  </outline>
</glyph>
<glyph name="quoteleft" format="2">
  <advance width="612"/>
  <unicode hex="2018"/>
  <outline>
    <contour>
      <point x="458" y="985" type="qcurve"/>
      <point x="458" y="956"/>
      <point x="432" y="912"/>
      <point x="393" y="883"/>
      <point x="347" y="869"/>
      <point x="326" y="869" type="qcurve"/>
      <point x="296" y="869"/>
      <point x="234" y="897"/>
      <point x="184" y="949"/>
      <point x="153" y="1022"/>
      <point x="153" y="1068" type="qcurve"/>
      <point x="153" y="1120"/>
      <point x="181" y="1205"/>
      <point x="226" y="1271"/>
      <point x="282" y="1322"/>
      <point x="340" y="1358"/>
      <point x="394" y="1381"/>
      <point x="413" y="1388" type="qcurve"/>
      <point x="413" y="1344" type="line"/>
      <point x="386" y="1329"/>
      <point x="327" y="1290"/>
      <point x="277" y="1241"/>
      <point x="245" y="1178"/>
      <point x="245" y="1138" type="qcurve"/>
      <point x="245" y="1118"/>
      <point x="254" y="1094"/>
      <point x="266" y="1081"/>
      <point x="279" y="1076"/>
      <point x="283" y="1076" type="qcurve"/>
      <point x="296" y="1076"/>
      <point x="338" y="1092"/>
      <point x="358" y="1092" type="qcurve"/>
      <point x="375" y="1092"/>
      <point x="410" y="1078"/>
      <point x="439" y="1050"/>
      <point x="458" y="1010"/>
    </contour>
  </outline>
</glyph>
<glyph name="quoteright" format="2">
  <advance width="612"/>
  <unicode hex="2019"/>
  <outline>
    <contour>
      <point x="458" y="1189" type="qcurve"/>
      <point x="458" y="1137"/>
      <point x="430" y="1052"/>
      <point x="385" y="986"/>
      <point x="329" y="935"/>
      <point x="271" y="899"/>
      <point x="217" y="875"/>
      <point x="198" y="869" type="qcurve"/>
      <point x="198" y="912" type="line"/>
      <point x="224" y="928"/>
      <point x="283" y="966"/>
      <point x="332" y="1015"/>
      <point x="365" y="1078"/>
      <point x="365" y="1119" type="qcurve"/>
      <point x="365" y="1138"/>
      <point x="356" y="1163"/>
      <point x="344" y="1176"/>
      <point x="331" y="1181"/>
      <point x="328" y="1181" type="qcurve"/>
      <point x="314" y="1181"/>
      <point x="273" y="1165"/>
      <point x="253" y="1165" type="qcurve"/>
      <point x="236" y="1165"/>
      <point x="200" y="1179"/>
      <point x="171" y="1206"/>
      <point x="153" y="1246"/>
      <point x="153" y="1271" type="qcurve"/>
      <point x="153" y="1301"/>
      <point x="179" y="1345"/>
      <point x="218" y="1374"/>
      <point x="264" y="1388"/>
      <point x="284" y="1388" type="qcurve"/>
      <point x="314" y="1388"/>
      <point x="376" y="1360"/>
      <point x="426" y="1308"/>
      <point x="458" y="1235"/>
    </contour>
  </outline>
</glyph>
<glyph name="quotedblright" format="2">
  <advance width="1042"/>
  <unicode hex="201D"/>
  <outline>
    <contour>
      <point x="497" y="1189" type="qcurve"/>
      <point x="497" y="1137"/>
      <point x="469" y="1052"/>
      <point x="424" y="986"/>
      <point x="368" y="935"/>
      <point x="310" y="899"/>
      <point x="256" y="875"/>
      <point x="237" y="869" type="qcurve"/>
      <point x="237" y="912" type="line"/>
      <point x="263" y="928"/>
      <point x="322" y="966"/>
      <point x="371" y="1015"/>
      <point x="404" y="1078"/>
      <point x="404" y="1119" type="qcurve"/>
      <point x="404" y="1138"/>
      <point x="395" y="1163"/>
      <point x="383" y="1176"/>
      <point x="370" y="1181"/>
      <point x="367" y="1181" type="qcurve"/>
      <point x="353" y="1181"/>
      <point x="312" y="1165"/>
      <point x="292" y="1165" type="qcurve"/>
      <point x="275" y="1165"/>
      <point x="239" y="1179"/>
      <point x="210" y="1206"/>
      <point x="192" y="1246"/>
      <point x="192" y="1271" type="qcurve"/>
      <point x="192" y="1301"/>
      <point x="218" y="1345"/>
      <point x="257" y="1374"/>
      <point x="303" y="1388"/>
      <point x="323" y="1388" type="qcurve"/>
      <point x="353" y="1388"/>
      <point x="415" y="1360"/>
      <point x="465" y="1308"/>
      <point x="497" y="1235"/>
    </contour>
    <contour>
      <point x="976" y="1187" type="qcurve"/>
      <point x="976" y="1135"/>
      <point x="948" y="1050"/>
      <point x="903" y="984"/>
      <point x="846" y="933"/>
      <point x="788" y="897"/>
      <point x="734" y="873"/>
      <point x="715" y="867" type="qcurve"/>
      <point x="715" y="910" type="line"/>
      <point x="742" y="926"/>
      <point x="801" y="964"/>
      <point x="850" y="1014"/>
      <point x="883" y="1077"/>
      <point x="883" y="1117" type="qcurve"/>
      <point x="883" y="1136"/>
      <point x="874" y="1160"/>
      <point x="862" y="1174"/>
      <point x="850" y="1179"/>
      <point x="846" y="1179" type="qcurve"/>
      <point x="832" y="1179"/>
      <point x="790" y="1163"/>
      <point x="771" y="1163" type="qcurve"/>
      <point x="754" y="1163"/>
      <point x="718" y="1177"/>
      <point x="689" y="1204"/>
      <point x="670" y="1244"/>
      <point x="670" y="1269" type="qcurve"/>
      <point x="670" y="1299"/>
      <point x="696" y="1343"/>
      <point x="735" y="1372"/>
      <point x="782" y="1386"/>
      <point x="803" y="1386" type="qcurve"/>
      <point x="833" y="1386"/>
      <point x="895" y="1358"/>
      <point x="944" y="1306"/>
      <point x="976" y="1233"/>
    </contour>
  </outline>
</glyph>
<glyph name="quotedblbase" format="2">
  <advance width="909"/>
  <unicode hex="201E"/>
  <outline>
    <contour>
      <point x="372" y="0" type="qcurve"/>
      <point x="372" y="-78"/>
      <point x="313" y="-191"/>
      <point x="230" y="-267"/>
      <point x="142" y="-310"/>
      <point x="113" y="-320" type="qcurve"/>
      <point x="113" y="-276" type="line"/>
      <point x="139" y="-261"/>
      <point x="198" y="-222"/>
      <point x="247" y="-173"/>
      <point x="280" y="-110"/>
      <point x="280" y="-69" type="qcurve"/>
      <point x="280" y="-50"/>
      <point x="271" y="-26"/>
      <point x="259" y="-12"/>
      <point x="246" y="-8"/>
      <point x="243" y="-8" type="qcurve"/>
      <point x="229" y="-8"/>
      <point x="187" y="-24"/>
      <point x="167" y="-24" type="qcurve"/>
      <point x="150" y="-24"/>
      <point x="115" y="-10"/>
      <point x="86" y="18"/>
      <point x="67" y="57"/>
      <point x="67" y="83" type="qcurve"/>
      <point x="67" y="113"/>
      <point x="93" y="156"/>
      <point x="132" y="185"/>
      <point x="178" y="199"/>
      <point x="199" y="199" type="qcurve"/>
      <point x="229" y="199"/>
      <point x="291" y="171"/>
      <point x="341" y="119"/>
      <point x="372" y="46"/>
    </contour>
    <contour>
      <point x="852" y="-2" type="qcurve"/>
      <point x="852" y="-54"/>
      <point x="824" y="-139"/>
      <point x="779" y="-205"/>
      <point x="722" y="-255"/>
      <point x="664" y="-291"/>
      <point x="610" y="-315"/>
      <point x="591" y="-321" type="qcurve"/>
      <point x="591" y="-278" type="line"/>
      <point x="618" y="-263"/>
      <point x="676" y="-224"/>
      <point x="726" y="-175"/>
      <point x="758" y="-112"/>
      <point x="758" y="-71" type="qcurve"/>
      <point x="758" y="-52"/>
      <point x="749" y="-28"/>
      <point x="737" y="-14"/>
      <point x="725" y="-10"/>
      <point x="722" y="-10" type="qcurve"/>
      <point x="708" y="-10"/>
      <point x="666" y="-26"/>
      <point x="647" y="-26" type="qcurve"/>
      <point x="630" y="-26"/>
      <point x="594" y="-12"/>
      <point x="565" y="16"/>
      <point x="546" y="55"/>
      <point x="546" y="81" type="qcurve"/>
      <point x="546" y="111"/>
      <point x="572" y="154"/>
      <point x="611" y="183"/>
      <point x="657" y="197"/>
      <point x="678" y="197" type="qcurve"/>
      <point x="708" y="197"/>
      <point x="770" y="169"/>
      <point x="820" y="117"/>
      <point x="852" y="44"/>
    </contour>
  </outline>
</glyph>
<glyph name="dagger" format="2">
  <advance width="1025"/>
  <unicode hex="2020"/>
  <outline>
    <contour>
      <point x="925" y="912" type="qcurve"/>
      <point x="925" y="885"/>
      <point x="903" y="848"/>
      <point x="870" y="827"/>
      <point x="834" y="818"/>
      <point x="820" y="818" type="qcurve"/>
      <point x="793" y="818"/>
      <point x="710" y="839"/>
      <point x="656" y="865" type="qcurve"/>
      <point x="643" y="872"/>
      <point x="606" y="882"/>
      <point x="568" y="890"/>
      <point x="535" y="894"/>
      <point x="525" y="895" type="qcurve"/>
      <point x="526" y="848"/>
      <point x="541" y="778"/>
      <point x="551" y="753" type="qcurve"/>
      <point x="576" y="701"/>
      <point x="625" y="660" type="qcurve"/>
      <point x="601" y="566"/>
      <point x="567" y="386"/>
      <point x="558" y="295" type="qcurve"/>
      <point x="549" y="204"/>
      <point x="532" y="-151"/>
      <point x="525" y="-420" type="qcurve"/>
      <point x="489" y="-420" type="line"/>
      <point x="486" y="-203"/>
      <point x="470" y="146"/>
      <point x="455" y="280" type="qcurve"/>
      <point x="445" y="380"/>
      <point x="410" y="569"/>
      <point x="386" y="660" type="qcurve"/>
      <point x="412" y="681"/>
      <point x="449" y="728"/>
      <point x="459" y="753" type="qcurve"/>
      <point x="470" y="776"/>
      <point x="483" y="847"/>
      <point x="489" y="895" type="qcurve"/>
      <point x="425" y="892"/>
      <point x="355" y="861" type="qcurve"/>
      <point x="253" y="818"/>
      <point x="203" y="818" type="qcurve"/>
      <point x="154" y="818"/>
      <point x="100" y="872"/>
      <point x="100" y="912" type="qcurve"/>
      <point x="100" y="934"/>
      <point x="118" y="972"/>
      <point x="147" y="998"/>
      <point x="185" y="1013"/>
      <point x="205" y="1013" type="qcurve"/>
      <point x="240" y="1013"/>
      <point x="308" y="982"/>
      <point x="355" y="961" type="qcurve"/>
      <point x="387" y="948"/>
      <point x="452" y="934"/>
      <point x="489" y="933" type="qcurve"/>
      <point x="489" y="943"/>
      <point x="485" y="976"/>
      <point x="476" y="1015"/>
      <point x="461" y="1059"/>
      <point x="451" y="1080" type="qcurve"/>
      <point x="420" y="1145"/>
      <point x="398" y="1241"/>
      <point x="398" y="1275" type="qcurve"/>
      <point x="398" y="1307"/>
      <point x="416" y="1355"/>
      <point x="446" y="1387"/>
      <point x="486" y="1403"/>
      <point x="508" y="1403" type="qcurve"/>
      <point x="534" y="1403"/>
      <point x="574" y="1379"/>
      <point x="602" y="1342"/>
      <point x="617" y="1296"/>
      <point x="617" y="1275" type="qcurve"/>
      <point x="617" y="1226"/>
      <point x="581" y="1131"/>
      <point x="564" y="1088" type="qcurve"/>
      <point x="547" y="1045"/>
      <point x="526" y="968"/>
      <point x="525" y="933" type="qcurve"/>
      <point x="560" y="934"/>
      <point x="625" y="950"/>
      <point x="656" y="961" type="qcurve"/>
      <point x="707" y="981"/>
      <point x="781" y="1011"/>
      <point x="818" y="1011" type="qcurve"/>
      <point x="839" y="1011"/>
      <point x="877" y="997"/>
      <point x="907" y="972"/>
      <point x="925" y="935"/>
    </contour>
  </outline>
</glyph>
<glyph name="bullet" format="2">
  <advance width="591"/>
  <unicode hex="2022"/>
  <outline>
    <contour>
      <point x="523" y="670" type="qcurve"/>
      <point x="523" y="623"/>
      <point x="487" y="540"/>
      <point x="426" y="479"/>
      <point x="343" y="444"/>
      <point x="295" y="444" type="qcurve"/>
      <point x="248" y="444"/>
      <point x="165" y="479"/>
      <point x="104" y="540"/>
      <point x="69" y="623"/>
      <point x="69" y="670" type="qcurve"/>
      <point x="69" y="717"/>
      <point x="104" y="800"/>
      <point x="165" y="861"/>
      <point x="248" y="897"/>
      <point x="295" y="897" type="qcurve"/>
      <point x="343" y="897"/>
      <point x="426" y="861"/>
      <point x="487" y="800"/>
      <point x="523" y="717"/>
    </contour>
  </outline>
</glyph>
<glyph name="perthousand" format="2">
  <advance width="2164"/>
  <unicode hex="2030"/>
  <outline>
    <contour>
      <point x="576" y="1149" type="qcurve"/>
      <point x="576" y="1175"/>
      <point x="573" y="1225"/>
      <point x="562" y="1245" type="qcurve"/>
      <point x="494" y="1280"/>
      <point x="438" y="1334" type="qcurve"/>
      <point x="399" y="1326"/>
      <point x="332" y="1271"/>
      <point x="278" y="1193"/>
      <point x="235" y="1099"/>
      <point x="207" y="1004"/>
      <point x="192" y="915"/>
      <point x="192" y="881" type="qcurve"/>
      <point x="192" y="840"/>
      <point x="201" y="775"/>
      <point x="224" y="729"/>
      <point x="264" y="704"/>
      <point x="294" y="704" type="qcurve"/>
      <point x="330" y="704"/>
      <point x="400" y="741"/>
      <point x="462" y="804"/>
      <point x="516" y="890"/>
      <point x="554" y="989"/>
      <point x="576" y="1096"/>
    </contour>
    <contour>
      <point x="1339" y="497" type="qcurve"/>
      <point x="1339" y="527"/>
      <point x="1320" y="588"/>
      <point x="1284" y="637"/>
      <point x="1231" y="668"/>
      <point x="1196" y="668" type="qcurve"/>
      <point x="1153" y="668"/>
      <point x="1074" y="620"/>
      <point x="1004" y="540"/>
      <point x="947" y="437"/>
      <point x="906" y="326"/>
      <point x="883" y="217"/>
      <point x="883" y="171" type="qcurve"/>
      <point x="883" y="142"/>
      <point x="900" y="92"/>
      <point x="933" y="55"/>
      <point x="981" y="34"/>
      <point x="1011" y="34" type="qcurve"/>
      <point x="1059" y="34"/>
      <point x="1145" y="80"/>
      <point x="1218" y="155"/>
      <point x="1276" y="252"/>
      <point x="1317" y="355"/>
      <point x="1339" y="456"/>
    </contour>
    <contour>
      <point x="2076" y="497" type="qcurve"/>
      <point x="2076" y="527"/>
      <point x="2057" y="588"/>
      <point x="2021" y="637"/>
      <point x="1968" y="668"/>
      <point x="1933" y="668" type="qcurve"/>
      <point x="1890" y="668"/>
      <point x="1811" y="622"/>
      <point x="1741" y="544"/>
      <point x="1684" y="442"/>
      <point x="1643" y="332"/>
      <point x="1620" y="220"/>
      <point x="1620" y="171" type="qcurve"/>
      <point x="1620" y="142"/>
      <point x="1638" y="92"/>
      <point x="1671" y="55"/>
      <point x="1719" y="34"/>
      <point x="1749" y="34" type="qcurve"/>
      <point x="1797" y="34"/>
      <point x="1883" y="80"/>
      <point x="1955" y="155"/>
      <point x="2014" y="252"/>
      <point x="2054" y="355"/>
      <point x="2076" y="456"/>
    </contour>
    <contour>
      <point x="316" y="-32" type="line"/>
      <point x="218" y="-32" type="line"/>
      <point x="1011" y="1299" type="line"/>
      <point x="964" y="1256"/>
      <point x="864" y="1213"/>
      <point x="765" y="1200"/>
      <point x="667" y="1214"/>
      <point x="621" y="1228" type="qcurve"/>
      <point x="624" y="1210"/>
      <point x="628" y="1171"/>
      <point x="628" y="1151" type="qcurve"/>
      <point x="628" y="1106"/>
      <point x="608" y="995"/>
      <point x="568" y="882"/>
      <point x="508" y="775"/>
      <point x="429" y="691"/>
      <point x="329" y="641"/>
      <point x="270" y="641" type="qcurve"/>
      <point x="204" y="641"/>
      <point x="114" y="692"/>
      <point x="60" y="775"/>
      <point x="36" y="880"/>
      <point x="36" y="934" type="qcurve"/>
      <point x="36" y="1001"/>
      <point x="70" y="1121"/>
      <point x="128" y="1223"/>
      <point x="207" y="1304"/>
      <point x="295" y="1361"/>
      <point x="389" y="1392"/>
      <point x="434" y="1392" type="qcurve"/>
      <point x="468" y="1392"/>
      <point x="538" y="1349"/>
      <point x="620" y="1297"/>
      <point x="718" y="1254"/>
      <point x="781" y="1254" type="qcurve"/>
      <point x="834" y="1254"/>
      <point x="906" y="1276"/>
      <point x="962" y="1315"/>
      <point x="1010" y="1365"/>
      <point x="1040" y="1394" type="qcurve"/>
      <point x="1163" y="1394" type="line"/>
    </contour>
    <contour>
      <point x="1392" y="508" type="qcurve"/>
      <point x="1392" y="427"/>
      <point x="1357" y="285"/>
      <point x="1296" y="166"/>
      <point x="1216" y="71"/>
      <point x="1126" y="5"/>
      <point x="1031" y="-30"/>
      <point x="987" y="-30" type="qcurve"/>
      <point x="909" y="-30"/>
      <point x="809" y="15"/>
      <point x="750" y="92"/>
      <point x="728" y="194"/>
      <point x="728" y="252" type="qcurve"/>
      <point x="728" y="308"/>
      <point x="762" y="423"/>
      <point x="822" y="530"/>
      <point x="905" y="624"/>
      <point x="1004" y="694"/>
      <point x="1115" y="735"/>
      <point x="1173" y="735" type="qcurve"/>
      <point x="1225" y="735"/>
      <point x="1307" y="695"/>
      <point x="1363" y="630"/>
      <point x="1392" y="549"/>
    </contour>
    <contour>
      <point x="2129" y="508" type="qcurve"/>
      <point x="2129" y="427"/>
      <point x="2094" y="285"/>
      <point x="2033" y="166"/>
      <point x="1953" y="71"/>
      <point x="1864" y="5"/>
      <point x="1769" y="-30"/>
      <point x="1725" y="-30" type="qcurve"/>
      <point x="1647" y="-30"/>
      <point x="1546" y="15"/>
      <point x="1487" y="92"/>
      <point x="1465" y="194"/>
      <point x="1465" y="252" type="qcurve"/>
      <point x="1465" y="308"/>
      <point x="1499" y="423"/>
      <point x="1559" y="530"/>
      <point x="1642" y="624"/>
      <point x="1741" y="694"/>
      <point x="1852" y="735"/>
      <point x="1910" y="735" type="qcurve"/>
      <point x="1962" y="735"/>
      <point x="2044" y="695"/>
      <point x="2100" y="630"/>
      <point x="2129" y="549"/>
    </contour>
  </outline>
</glyph>
<glyph name="uni2075" format="2">
  <advance width="737"/>
  <unicode hex="2075"/>
  <anchor x="356" y="750" name="L"/>
  <anchor x="356" y="1625" name="U"/>
  <outline>
    <contour>
      <point x="641" y="1620" type="line"/>
      <point x="290" y="1620" type="line"/>
      <point x="102" y="1305" type="line"/>
      <point x="136" y="1303"/>
      <point x="215" y="1297"/>
      <point x="298" y="1279"/>
      <point x="382" y="1246"/>
      <point x="422" y="1218" type="qcurve"/>
      <point x="453" y="1197"/>
      <point x="495" y="1148"/>
      <point x="520" y="1100"/>
      <point x="530" y="1054"/>
      <point x="530" y="1035" type="qcurve"/>
      <point x="530" y="996"/>
      <point x="495" y="930"/>
      <point x="437" y="881"/>
      <point x="361" y="854"/>
      <point x="320" y="854" type="qcurve"/>
      <point x="283" y="854"/>
      <point x="233" y="873"/>
      <point x="192" y="895"/>
      <point x="153" y="914"/>
      <point x="128" y="914" type="qcurve"/>
      <point x="110" y="914"/>
      <point x="87" y="904"/>
      <point x="75" y="891"/>
      <point x="71" y="876"/>
      <point x="71" y="871" type="qcurve"/>
      <point x="71" y="839"/>
      <point x="154" y="792"/>
      <point x="239" y="792" type="qcurve"/>
      <point x="279" y="792"/>
      <point x="368" y="809"/>
      <point x="454" y="844"/>
      <point x="531" y="896"/>
      <point x="590" y="964"/>
      <point x="625" y="1049"/>
      <point x="625" y="1100" type="qcurve"/>
      <point x="625" y="1157"/>
      <point x="579" y="1247"/>
      <point x="505" y="1314"/>
      <point x="414" y="1361"/>
      <point x="325" y="1392"/>
      <point x="248" y="1407"/>
      <point x="224" y="1409" type="qcurve"/>
      <point x="290" y="1518" type="line"/>
      <point x="583" y="1518" type="line"/>
    </contour>
  </outline>
</glyph>
<glyph name="uni2076" format="2">
  <advance width="737"/>
  <unicode hex="2076"/>
  <anchor x="372" y="750" name="L"/>
  <anchor x="372" y="1625" name="U"/>
  <outline>
    <contour>
      <point x="680" y="1080" type="qcurve"/>
      <point x="680" y="1147"/>
      <point x="628" y="1239"/>
      <point x="553" y="1296"/>
      <point x="467" y="1320"/>
      <point x="434" y="1320" type="qcurve"/>
      <point x="380" y="1320"/>
      <point x="278" y="1291"/>
      <point x="224" y="1260" type="qcurve"/>
      <point x="238" y="1309"/>
      <point x="278" y="1388"/>
      <point x="322" y="1451"/>
      <point x="367" y="1497"/>
      <point x="386" y="1512" type="qcurve"/>
      <point x="440" y="1557"/>
      <point x="575" y="1611"/>
      <point x="660" y="1614" type="qcurve"/>
      <point x="660" y="1638" type="line"/>
      <point x="619" y="1638" type="line"/>
      <point x="582" y="1638"/>
      <point x="497" y="1625"/>
      <point x="405" y="1595"/>
      <point x="310" y="1545"/>
      <point x="264" y="1508" type="qcurve"/>
      <point x="228" y="1479"/>
      <point x="156" y="1403"/>
      <point x="99" y="1307"/>
      <point x="64" y="1192"/>
      <point x="64" y="1125" type="qcurve"/>
      <point x="64" y="1057"/>
      <point x="109" y="936"/>
      <point x="190" y="845"/>
      <point x="303" y="792"/>
      <point x="371" y="792" type="qcurve"/>
      <point x="442" y="792"/>
      <point x="556" y="842"/>
      <point x="637" y="923"/>
      <point x="680" y="1027"/>
    </contour>
    <contour>
      <point x="551" y="1015" type="qcurve"/>
      <point x="551" y="969"/>
      <point x="525" y="899"/>
      <point x="482" y="852"/>
      <point x="424" y="827"/>
      <point x="393" y="826" type="qcurve"/>
      <point x="347" y="824"/>
      <point x="275" y="874"/>
      <point x="225" y="952"/>
      <point x="199" y="1045"/>
      <point x="199" y="1086" type="qcurve"/>
      <point x="199" y="1111"/>
      <point x="207" y="1176"/>
      <point x="215" y="1216" type="qcurve"/>
      <point x="244" y="1233"/>
      <point x="321" y="1269"/>
      <point x="365" y="1269" type="qcurve"/>
      <point x="414" y="1269"/>
      <point x="485" y="1225"/>
      <point x="530" y="1153"/>
      <point x="551" y="1062"/>
    </contour>
  </outline>
</glyph>
<glyph name="uni2077" format="2">
  <advance width="737"/>
  <unicode hex="2077"/>
  <anchor x="362" y="750" name="L"/>
  <anchor x="362" y="1625" name="U"/>
  <outline>
    <contour>
      <point x="670" y="1599" type="line"/>
      <point x="670" y="1620" type="line"/>
      <point x="148" y="1620" type="line"/>
      <point x="53" y="1429" type="line"/>
      <point x="75" y="1423" type="line"/>
      <point x="86" y="1439"/>
      <point x="111" y="1474"/>
      <point x="156" y="1503"/>
      <point x="230" y="1522"/>
      <point x="290" y="1522" type="qcurve"/>
      <point x="558" y="1522" type="line"/>
      <point x="264" y="788" type="line"/>
      <point x="345" y="788" type="line"/>
    </contour>
  </outline>
</glyph>
<glyph name="uni2078" format="2">
  <advance width="737"/>
  <unicode hex="2078"/>
  <anchor x="370" y="750" name="L"/>
  <anchor x="370" y="1625" name="U"/>
  <outline>
    <contour>
      <point x="653" y="999" type="qcurve"/>
      <point x="653" y="1044"/>
      <point x="607" y="1121"/>
      <point x="539" y="1185"/>
      <point x="461" y="1238"/>
      <point x="429" y="1258" type="qcurve"/>
      <point x="460" y="1274"/>
      <point x="531" y="1314"/>
      <point x="591" y="1364"/>
      <point x="630" y="1425"/>
      <point x="630" y="1461" type="qcurve"/>
      <point x="630" y="1479"/>
      <point x="608" y="1538"/>
      <point x="550" y="1596"/>
      <point x="448" y="1638"/>
      <point x="369" y="1638" type="qcurve"/>
      <point x="316" y="1638"/>
      <point x="218" y="1611"/>
      <point x="144" y="1561"/>
      <point x="100" y="1489"/>
      <point x="100" y="1443" type="qcurve"/>
      <point x="100" y="1402"/>
      <point x="136" y="1336"/>
      <point x="190" y="1281"/>
      <point x="255" y="1236"/>
      <point x="284" y="1216" type="qcurve"/>
      <point x="257" y="1201"/>
      <point x="188" y="1155"/>
      <point x="128" y="1098"/>
      <point x="87" y="1030"/>
      <point x="87" y="991" type="qcurve"/>
      <point x="87" y="956"/>
      <point x="124" y="886"/>
      <point x="195" y="828"/>
      <point x="300" y="792"/>
      <point x="369" y="792" type="qcurve"/>
      <point x="453" y="792"/>
      <point x="563" y="836"/>
      <point x="627" y="901"/>
      <point x="653" y="972"/>
    </contour>
    <contour>
      <point x="528" y="1469" type="qcurve"/>
      <point x="528" y="1434"/>
      <point x="507" y="1382"/>
      <point x="472" y="1340"/>
      <point x="424" y="1302"/>
      <point x="397" y="1281" type="qcurve"/>
      <point x="351" y="1311"/>
      <point x="279" y="1359"/>
      <point x="230" y="1405"/>
      <point x="205" y="1454"/>
      <point x="205" y="1484" type="qcurve"/>
      <point x="205" y="1512"/>
      <point x="231" y="1556"/>
      <point x="276" y="1586"/>
      <point x="337" y="1602"/>
      <point x="371" y="1602" type="qcurve"/>
      <point x="400" y="1602"/>
      <point x="456" y="1589"/>
      <point x="501" y="1558"/>
      <point x="528" y="1507"/>
    </contour>
    <contour>
      <point x="550" y="950" type="qcurve"/>
      <point x="550" y="920"/>
      <point x="523" y="873"/>
      <point x="477" y="842"/>
      <point x="414" y="826"/>
      <point x="378" y="826" type="qcurve"/>
      <point x="340" y="826"/>
      <point x="275" y="848"/>
      <point x="227" y="890"/>
      <point x="199" y="952"/>
      <point x="199" y="993" type="qcurve"/>
      <point x="199" y="1035"/>
      <point x="225" y="1100"/>
      <point x="262" y="1149"/>
      <point x="303" y="1183"/>
      <point x="318" y="1194" type="qcurve"/>
      <point x="351" y="1171"/>
      <point x="432" y="1118"/>
      <point x="502" y="1058"/>
      <point x="550" y="989"/>
    </contour>
  </outline>
</glyph>
<glyph name="uni2079" format="2">
  <advance width="737"/>
  <unicode hex="2079"/>
  <anchor x="367" y="750" name="L"/>
  <anchor x="367" y="1625" name="U"/>
  <outline>
    <contour>
      <point x="674" y="1301" type="qcurve"/>
      <point x="674" y="1360"/>
      <point x="633" y="1480"/>
      <point x="553" y="1577"/>
      <point x="438" y="1638"/>
      <point x="363" y="1638" type="qcurve"/>
      <point x="303" y="1638"/>
      <point x="193" y="1595"/>
      <point x="109" y="1518"/>
      <point x="59" y="1410"/>
      <point x="59" y="1346" type="qcurve"/>
      <point x="59" y="1299"/>
      <point x="91" y="1212"/>
      <point x="154" y="1145"/>
      <point x="247" y="1104"/>
      <point x="307" y="1104" type="qcurve"/>
      <point x="355" y="1104"/>
      <point x="456" y="1133"/>
      <point x="512" y="1165" type="qcurve"/>
      <point x="487" y="1080"/>
      <point x="399" y="956"/>
      <point x="345" y="907" type="qcurve"/>
      <point x="310" y="876"/>
      <point x="232" y="838"/>
      <point x="158" y="818"/>
      <point x="96" y="811"/>
      <point x="77" y="810" type="qcurve"/>
      <point x="77" y="788" type="line"/>
      <point x="118" y="788" type="line"/>
      <point x="196" y="788"/>
      <point x="327" y="828"/>
      <point x="427" y="882"/>
      <point x="493" y="936"/>
      <point x="508" y="950" type="qcurve"/>
      <point x="674" y="1101"/>
    </contour>
    <contour>
      <point x="538" y="1332" type="qcurve"/>
      <point x="538" y="1309"/>
      <point x="530" y="1247"/>
      <point x="523" y="1208" type="qcurve"/>
      <point x="516" y="1200"/>
      <point x="481" y="1182"/>
      <point x="436" y="1167"/>
      <point x="388" y="1157"/>
      <point x="367" y="1157" type="qcurve"/>
      <point x="326" y="1157"/>
      <point x="260" y="1194"/>
      <point x="213" y="1260"/>
      <point x="188" y="1352"/>
      <point x="188" y="1407" type="qcurve"/>
      <point x="188" y="1453"/>
      <point x="213" y="1524"/>
      <point x="256" y="1572"/>
      <point x="313" y="1597"/>
      <point x="345" y="1599" type="qcurve"/>
      <point x="378" y="1600"/>
      <point x="446" y="1566"/>
      <point x="502" y="1499"/>
      <point x="538" y="1398"/>
    </contour>
  </outline>
</glyph>
<glyph name="uni2082" format="2">
  <advance width="737"/>
  <unicode hex="2082"/>
  <outline>
    <contour>
      <point x="676" y="-269" type="line"/>
      <point x="651" y="-269" type="line"/>
      <point x="634" y="-289"/>
      <point x="606" y="-313"/>
      <point x="564" y="-328"/>
      <point x="497" y="-333"/>
      <point x="442" y="-333" type="qcurve"/>
      <point x="186" y="-333" type="line"/>
      <point x="208" y="-317"/>
      <point x="319" y="-217"/>
      <point x="408" y="-136" type="qcurve"/>
      <point x="438" y="-109"/>
      <point x="511" y="-35"/>
      <point x="574" y="50"/>
      <point x="617" y="145"/>
      <point x="617" y="193" type="qcurve"/>
      <point x="617" y="243"/>
      <point x="569" y="323"/>
      <point x="490" y="378"/>
      <point x="389" y="408"/>
      <point x="337" y="408" type="qcurve"/>
      <point x="256" y="408"/>
      <point x="153" y="356"/>
      <point x="92" y="283"/>
      <point x="65" y="204"/>
      <point x="61" y="177" type="qcurve"/>
      <point x="87" y="177" type="line"/>
      <point x="94" y="194"/>
      <point x="123" y="242"/>
      <point x="174" y="285"/>
      <point x="248" y="316"/>
      <point x="299" y="316" type="qcurve"/>
      <point x="322" y="316"/>
      <point x="389" y="300"/>
      <point x="450" y="259"/>
      <point x="493" y="190"/>
      <point x="493" y="138" type="qcurve"/>
      <point x="493" y="36"/>
      <point x="391" y="-85" type="qcurve"/>
      <point x="338" y="-147"/>
      <point x="158" y="-305"/>
      <point x="32" y="-402" type="qcurve"/>
      <point x="32" y="-423" type="line"/>
      <point x="607" y="-423" type="line"/>
    </contour>
  </outline>
</glyph>
<glyph name="uni2085" format="2">
  <advance width="737"/>
  <unicode hex="2085"/>
  <outline>
    <contour>
      <point x="641" y="391" type="line"/>
      <point x="290" y="391" type="line"/>
      <point x="102" y="75" type="line"/>
      <point x="136" y="74"/>
      <point x="214" y="67"/>
      <point x="298" y="49"/>
      <point x="382" y="15"/>
      <point x="422" y="-12" type="qcurve"/>
      <point x="453" y="-33"/>
      <point x="495" y="-82"/>
      <point x="520" y="-131"/>
      <point x="530" y="-177"/>
      <point x="530" y="-195" type="qcurve"/>
      <point x="530" y="-234"/>
      <point x="495" y="-300"/>
      <point x="437" y="-349"/>
      <point x="361" y="-376"/>
      <point x="320" y="-376" type="qcurve"/>
      <point x="283" y="-376"/>
      <point x="233" y="-357"/>
      <point x="193" y="-335"/>
      <point x="154" y="-316"/>
      <point x="128" y="-316" type="qcurve"/>
      <point x="110" y="-316"/>
      <point x="88" y="-326"/>
      <point x="76" y="-339"/>
      <point x="71" y="-354"/>
      <point x="71" y="-359" type="qcurve"/>
      <point x="71" y="-391"/>
      <point x="154" y="-438"/>
      <point x="239" y="-438" type="qcurve"/>
      <point x="279" y="-438"/>
      <point x="368" y="-421"/>
      <point x="454" y="-386"/>
      <point x="531" y="-334"/>
      <point x="590" y="-266"/>
      <point x="625" y="-181"/>
      <point x="625" y="-130" type="qcurve"/>
      <point x="625" y="-73"/>
      <point x="579" y="17"/>
      <point x="505" y="84"/>
      <point x="414" y="131"/>
      <point x="325" y="162"/>
      <point x="248" y="177"/>
      <point x="224" y="179" type="qcurve"/>
      <point x="290" y="288" type="line"/>
      <point x="583" y="288" type="line"/>
    </contour>
  </outline>
</glyph>
<glyph name="uni2086" format="2">
  <advance width="737"/>
  <unicode hex="2086"/>
  <outline>
    <contour>
      <point x="680" y="-150" type="qcurve"/>
      <point x="680" y="-83"/>
      <point x="628" y="9"/>
      <point x="553" y="66"/>
      <point x="467" y="90"/>
      <point x="434" y="90" type="qcurve"/>
      <point x="380" y="90"/>
      <point x="277" y="59"/>
      <point x="224" y="30" type="qcurve"/>
      <point x="238" y="79"/>
      <point x="279" y="158"/>
      <point x="323" y="221"/>
      <point x="368" y="267"/>
      <point x="386" y="282" type="qcurve"/>
      <point x="441" y="328"/>
      <point x="574" y="381"/>
      <point x="660" y="384" type="qcurve"/>
      <point x="660" y="408" type="line"/>
      <point x="619" y="408" type="line"/>
      <point x="582" y="408"/>
      <point x="497" y="394"/>
      <point x="405" y="364"/>
      <point x="310" y="314"/>
      <point x="264" y="278" type="qcurve"/>
      <point x="227" y="249"/>
      <point x="156" y="173"/>
      <point x="99" y="77"/>
      <point x="64" y="-38"/>
      <point x="64" y="-105" type="qcurve"/>
      <point x="64" y="-173"/>
      <point x="110" y="-294"/>
      <point x="191" y="-385"/>
      <point x="304" y="-438"/>
      <point x="371" y="-438" type="qcurve"/>
      <point x="442" y="-438"/>
      <point x="556" y="-389"/>
      <point x="637" y="-308"/>
      <point x="680" y="-204"/>
    </contour>
    <contour>
      <point x="551" y="-215" type="qcurve"/>
      <point x="551" y="-261"/>
      <point x="525" y="-331"/>
      <point x="482" y="-378"/>
      <point x="424" y="-403"/>
      <point x="393" y="-404" type="qcurve"/>
      <point x="347" y="-406"/>
      <point x="275" y="-356"/>
      <point x="225" y="-278"/>
      <point x="199" y="-185"/>
      <point x="199" y="-144" type="qcurve"/>
      <point x="199" y="-119"/>
      <point x="209" y="-54"/>
      <point x="215" y="-13" type="qcurve"/>
      <point x="246" y="3"/>
      <point x="321" y="39"/>
      <point x="365" y="39" type="qcurve"/>
      <point x="414" y="39"/>
      <point x="485" y="-5"/>
      <point x="530" y="-77"/>
      <point x="551" y="-168"/>
    </contour>
  </outline>
</glyph>
<glyph name="partialdiff" format="2">
  <advance width="1017"/>
  <unicode hex="2202"/>
  <outline>
    <contour>
      <point x="755" y="615" type="qcurve"/>
      <point x="738" y="633"/>
      <point x="699" y="678"/>
      <point x="647" y="719"/>
      <point x="577" y="747"/>
      <point x="530" y="747" type="qcurve"/>
      <point x="479" y="747"/>
      <point x="395" y="706"/>
      <point x="329" y="638"/>
      <point x="280" y="547"/>
      <point x="247" y="449"/>
      <point x="231" y="348"/>
      <point x="231" y="303" type="qcurve"/>
      <point x="231" y="283"/>
      <point x="235" y="225"/>
      <point x="248" y="161"/>
      <point x="273" y="98"/>
      <point x="316" y="48"/>
      <point x="380" y="17"/>
      <point x="425" y="17" type="qcurve"/>
      <point x="476" y="17"/>
      <point x="560" y="67"/>
      <point x="628" y="153"/>
      <point x="681" y="269"/>
      <point x="720" y="402"/>
      <point x="747" y="545"/>
    </contour>
    <contour>
      <point x="950" y="808" type="qcurve"/>
      <point x="950" y="775"/>
      <point x="944" y="668"/>
      <point x="925" y="536"/>
      <point x="893" y="389"/>
      <point x="840" y="246"/>
      <point x="765" y="115"/>
      <point x="663" y="16"/>
      <point x="530" y="-43"/>
      <point x="446" y="-43" type="qcurve"/>
      <point x="356" y="-43"/>
      <point x="211" y="24"/>
      <point x="109" y="130"/>
      <point x="55" y="259"/>
      <point x="55" y="321" type="qcurve"/>
      <point x="55" y="425"/>
      <point x="98" y="582"/>
      <point x="168" y="695"/>
      <point x="256" y="768"/>
      <point x="347" y="811"/>
      <point x="430" y="828"/>
      <point x="461" y="828" type="qcurve"/>
      <point x="506" y="828"/>
      <point x="575" y="814"/>
      <point x="643" y="781"/>
      <point x="719" y="728"/>
      <point x="771" y="688" type="qcurve"/>
      <point x="784" y="752"/>
      <point x="790" y="867"/>
      <point x="792" y="927" type="qcurve"/>
      <point x="793" y="1002"/>
      <point x="746" y="1135"/>
      <point x="665" y="1235"/>
      <point x="560" y="1293"/>
      <point x="504" y="1293" type="qcurve"/>
      <point x="466" y="1293"/>
      <point x="414" y="1285"/>
      <point x="366" y="1268"/>
      <point x="313" y="1243"/>
      <point x="274" y="1226" type="qcurve"/>
      <point x="193" y="1328" type="line"/>
      <point x="215" y="1338"/>
      <point x="273" y="1359"/>
      <point x="341" y="1377"/>
      <point x="415" y="1388"/>
      <point x="453" y="1388" type="qcurve"/>
      <point x="558" y="1388"/>
      <point x="714" y="1319"/>
      <point x="825" y="1211"/>
      <point x="895" y="1077"/>
      <point x="935" y="949"/>
      <point x="950" y="839"/>
    </contour>
  </outline>
</glyph>
<glyph name="summation" format="2">
  <advance width="1210"/>
  <unicode hex="2211"/>
  <outline>
    <contour>
      <point x="1115" y="0" type="line"/>
      <point x="15" y="0" type="line"/>
      <point x="694" y="680" type="line"/>
      <point x="15" y="1356" type="line"/>
      <point x="1102" y="1356" type="line"/>
      <point x="1147" y="993" type="line"/>
      <point x="1113" y="993" type="line"/>
      <point x="1103" y="1051"/>
      <point x="1040" y="1158"/>
      <point x="948" y="1241"/>
      <point x="833" y="1291"/>
      <point x="771" y="1291" type="qcurve"/>
      <point x="397" y="1291" type="line"/>
      <point x="362" y="1291"/>
      <point x="344" y="1251"/>
      <point x="367" y="1228" type="qcurve"/>
      <point x="869" y="728" type="line"/>
      <point x="320" y="177" type="line"/>
      <point x="950" y="177" type="line"/>
      <point x="1016" y="177"/>
      <point x="1102" y="274"/>
      <point x="1115" y="367" type="qcurve"/>
      <point x="1153" y="367" type="line"/>
    </contour>
  </outline>
</glyph>
<glyph name="integral" format="2">
  <advance width="929"/>
  <unicode hex="222B"/>
  <outline>
    <contour>
      <point x="856" y="1309" type="qcurve"/>
      <point x="848" y="1292"/>
      <point x="799" y="1260"/>
      <point x="769" y="1260" type="qcurve"/>
      <point x="754" y="1260"/>
      <point x="723" y="1270"/>
      <point x="709" y="1283" type="qcurve"/>
      <point x="677" y="1311"/>
      <point x="630" y="1334"/>
      <point x="614" y="1334" type="qcurve"/>
      <point x="590" y="1334"/>
      <point x="571" y="1298"/>
      <point x="570" y="1281" type="qcurve"/>
      <point x="568" y="1263"/>
      <point x="566" y="1190"/>
      <point x="563" y="1090"/>
      <point x="561" y="968"/>
      <point x="558" y="835"/>
      <point x="554" y="697"/>
      <point x="551" y="630" type="qcurve"/>
      <point x="542" y="367" type="line"/>
      <point x="536" y="211"/>
      <point x="513" y="-16"/>
      <point x="478" y="-178"/>
      <point x="431" y="-281"/>
      <point x="370" y="-345"/>
      <point x="296" y="-377"/>
      <point x="252" y="-386" type="qcurve"/>
      <point x="217" y="-394"/>
      <point x="188" y="-394" type="qcurve"/>
      <point x="150" y="-394"/>
      <point x="100" y="-373"/>
      <point x="71" y="-340"/>
      <point x="59" y="-301"/>
      <point x="59" y="-283" type="qcurve"/>
      <point x="59" y="-270"/>
      <point x="69" y="-235"/>
      <point x="93" y="-205"/>
      <point x="132" y="-184"/>
      <point x="160" y="-184" type="qcurve"/>
      <point x="191" y="-184"/>
      <point x="218" y="-207" type="qcurve"/>
      <point x="251" y="-236"/>
      <point x="299" y="-258"/>
      <point x="315" y="-258" type="qcurve"/>
      <point x="338" y="-258"/>
      <point x="356" y="-224"/>
      <point x="359" y="-207" type="qcurve"/>
      <point x="360" y="-180"/>
      <point x="367" y="-43"/>
      <point x="376" y="147"/>
      <point x="386" y="377"/>
      <point x="391" y="499" type="qcurve"/>
      <point x="398" y="720" type="line"/>
      <point x="403" y="857"/>
      <point x="420" y="1069"/>
      <point x="449" y="1227"/>
      <point x="490" y="1337"/>
      <point x="548" y="1410"/>
      <point x="623" y="1451"/>
      <point x="672" y="1461" type="qcurve"/>
      <point x="687" y="1464"/>
      <point x="718" y="1466"/>
      <point x="733" y="1466" type="qcurve"/>
      <point x="773" y="1466"/>
      <point x="825" y="1444"/>
      <point x="855" y="1412"/>
      <point x="866" y="1374"/>
      <point x="866" y="1358" type="qcurve"/>
      <point x="866" y="1333"/>
    </contour>
  </outline>
</glyph>
<glyph name="uni266D" format="2">
  <advance width="857"/>
  <unicode hex="266D"/>
  <outline>
    <contour>
      <point x="649" y="653" type="qcurve"/>
      <point x="649" y="593"/>
      <point x="599" y="537" type="qcurve"/>
      <point x="571" y="505"/>
      <point x="481" y="432" type="qcurve"/>
      <point x="336" y="316"/>
      <point x="207" y="261" type="qcurve"/>
      <point x="207" y="1386" type="line"/>
      <point x="283" y="1386" type="line"/>
      <point x="283" y="746" type="line"/>
      <point x="372" y="808"/>
      <point x="468" y="808" type="qcurve"/>
      <point x="534" y="808"/>
      <point x="649" y="715"/>
    </contour>
    <contour>
      <point x="489" y="651" type="qcurve"/>
      <point x="488" y="687"/>
      <point x="440" y="733"/>
      <point x="400" y="733" type="qcurve"/>
      <point x="329" y="733"/>
      <point x="283" y="657" type="qcurve"/>
      <point x="283" y="373" type="line"/>
      <point x="385" y="464"/>
      <point x="414" y="496" type="qcurve"/>
      <point x="491" y="584"/>
    </contour>
  </outline>
</glyph>
<glyph name="fl" format="2">
  <advance width="1145"/>
  <unicode hex="FB02"/>
  <outline>
    <contour>
      <point x="653" y="0" type="line"/>
      <point x="653" y="38" type="line"/>
      <point x="698" y="38"/>
      <point x="742" y="48"/>
      <point x="758" y="69" type="qcurve"/>
      <point x="764" y="76"/>
      <point x="775" y="98"/>
      <point x="782" y="130"/>
      <point x="786" y="175"/>
      <point x="786" y="207" type="qcurve"/>
      <point x="786" y="844" type="line"/>
      <point x="372" y="844" type="line"/>
      <point x="372" y="243" type="line"/>
      <point x="372" y="179"/>
      <point x="374" y="93"/>
      <point x="391" y="77" type="qcurve"/>
      <point x="407" y="54"/>
      <point x="457" y="38"/>
      <point x="489" y="38" type="qcurve"/>
      <point x="519" y="38" type="line"/>
      <point x="519" y="0" type="line"/>
      <point x="65" y="0" type="line"/>
      <point x="65" y="38" type="line"/>
      <point x="96" y="38" type="line"/>
      <point x="120" y="38"/>
      <point x="151" y="49"/>
      <point x="173" y="69" type="qcurve"/>
      <point x="186" y="80"/>
      <point x="199" y="104"/>
      <point x="205" y="142"/>
      <point x="205" y="170" type="qcurve"/>
      <point x="205" y="844" type="line"/>
      <point x="26" y="844" type="line"/>
      <point x="26" y="916" type="line"/>
      <point x="205" y="916" type="line"/>
      <point x="205" y="978" type="line"/>
      <point x="205" y="1081"/>
      <point x="256" y="1228"/>
      <point x="335" y="1327"/>
      <point x="431" y="1385"/>
      <point x="521" y="1415"/>
      <point x="593" y="1423"/>
      <point x="609" y="1423" type="qcurve"/>
      <point x="651" y="1423"/>
      <point x="742" y="1398"/>
      <point x="781" y="1376" type="qcurve"/>
      <point x="910" y="1423" type="line"/>
      <point x="954" y="1423" type="line"/>
      <point x="954" y="207" type="line"/>
      <point x="954" y="177"/>
      <point x="957" y="134"/>
      <point x="963" y="103"/>
      <point x="973" y="82"/>
      <point x="980" y="73" type="qcurve"/>
      <point x="986" y="64"/>
      <point x="1004" y="51"/>
      <point x="1032" y="42"/>
      <point x="1072" y="38"/>
      <point x="1102" y="38" type="qcurve"/>
      <point x="1102" y="0" type="line"/>
    </contour>
    <contour>
      <point x="786" y="916" type="line"/>
      <point x="786" y="1113" type="line"/>
      <point x="786" y="1145"/>
      <point x="784" y="1168" type="qcurve"/>
      <point x="761" y="1173"/>
      <point x="725" y="1203"/>
      <point x="690" y="1243"/>
      <point x="655" y="1287"/>
      <point x="614" y="1324"/>
      <point x="563" y="1348"/>
      <point x="530" y="1348" type="qcurve"/>
      <point x="482" y="1348"/>
      <point x="421" y="1306"/>
      <point x="385" y="1217"/>
      <point x="372" y="1079"/>
      <point x="372" y="982" type="qcurve"/>
      <point x="372" y="916" type="line"/>
    </contour>
  </outline>
</glyph>
<glyph name="u1D101" format="2">
  <advance width="1224"/>
  <unicode hex="1D101"/>
  <outline>
    <contour>
      <point x="689" y="-190" type="line"/>
      <point x="689" y="2324" type="line"/>
      <point x="791" y="2324" type="line"/>
      <point x="791" y="-190" type="line"/>
    </contour>
    <contour>
      <point x="433" y="-190" type="line"/>
      <point x="433" y="2324" type="line"/>
      <point x="535" y="2324" type="line"/>
      <point x="535" y="-190" type="line"/>
    </contour>
  </outline>
</glyph>
<glyph name="u1D103" format="2">
  <advance width="1224"/>
  <unicode hex="1D103"/>
  <outline>
    <contour>
      <point x="739" y="-190" type="line"/>
      <point x="739" y="2324" type="line"/>
      <point x="841" y="2324" type="line"/>
      <point x="841" y="-190" type="line"/>
    </contour>
    <contour>
      <point x="383" y="-190" type="line"/>
      <point x="383" y="2324" type="line"/>
      <point x="585" y="2324" type="line"/>
      <point x="585" y="-190" type="line"/>
    </contour>
  </outline>
</glyph>
<glyph name="u1D107" format="2">
  <advance width="1224"/>
  <unicode hex="1D107"/>
  <outline>
    <contour>
      <point x="817" y="-190" type="line"/>
      <point x="817" y="2324" type="line"/>
      <point x="1019" y="2324" type="line"/>
      <point x="1019" y="-190" type="line"/>
    </contour>
    <contour>
      <point x="561" y="-190" type="line"/>
      <point x="561" y="2324" type="line"/>
      <point x="663" y="2324" type="line"/>
      <point x="663" y="-190" type="line"/>
    </contour>
    <contour>
      <point x="429" y="860" type="qcurve"/>
      <point x="429" y="834"/>
      <point x="409" y="791"/>
      <point x="378" y="761"/>
      <point x="338" y="745"/>
      <point x="317" y="745" type="qcurve"/>
      <point x="296" y="745"/>
      <point x="255" y="762"/>
      <point x="223" y="792"/>
      <point x="204" y="834"/>
      <point x="204" y="860" type="qcurve"/>
      <point x="204" y="887"/>
      <point x="226" y="929"/>
      <point x="259" y="956"/>
      <point x="299" y="970"/>
      <point x="317" y="970" type="qcurve"/>
      <point x="335" y="970"/>
      <point x="375" y="955"/>
      <point x="408" y="927"/>
      <point x="429" y="886"/>
    </contour>
    <contour>
      <point x="429" y="1308" type="qcurve"/>
      <point x="429" y="1283"/>
      <point x="410" y="1243"/>
      <point x="378" y="1214"/>
      <point x="339" y="1199"/>
      <point x="319" y="1199" type="qcurve"/>
      <point x="296" y="1199"/>
      <point x="255" y="1216"/>
      <point x="224" y="1246"/>
      <point x="206" y="1285"/>
      <point x="206" y="1308" type="qcurve"/>
      <point x="206" y="1332"/>
      <point x="224" y="1373"/>
      <point x="255" y="1402"/>
      <point x="296" y="1419"/>
      <point x="319" y="1419" type="qcurve"/>
      <point x="341" y="1419"/>
      <point x="381" y="1402"/>
      <point x="411" y="1373"/>
      <point x="429" y="1332"/>
    </contour>
  </outline>
</glyph>
<glyph name="u1D108" format="2">
  <advance width="612"/>
  <unicode hex="1D108"/>
  <outline>
    <contour>
      <point x="418" y="860" type="qcurve"/>
      <point x="418" y="834"/>
      <point x="398" y="791"/>
      <point x="367" y="761"/>
      <point x="327" y="745"/>
      <point x="306" y="745" type="qcurve"/>
      <point x="285" y="745"/>
      <point x="244" y="762"/>
      <point x="212" y="792"/>
      <point x="193" y="834"/>
      <point x="193" y="860" type="qcurve"/>
      <point x="193" y="887"/>
      <point x="215" y="929"/>
      <point x="248" y="956"/>
      <point x="288" y="970"/>
      <point x="306" y="970" type="qcurve"/>
      <point x="324" y="970"/>
      <point x="364" y="955"/>
      <point x="397" y="927"/>
      <point x="418" y="886"/>
    </contour>
    <contour>
      <point x="418" y="1308" type="qcurve"/>
      <point x="418" y="1283"/>
      <point x="399" y="1243"/>
      <point x="367" y="1214"/>
      <point x="328" y="1199"/>
      <point x="308" y="1199" type="qcurve"/>
      <point x="285" y="1199"/>
      <point x="244" y="1216"/>
      <point x="213" y="1246"/>
      <point x="195" y="1285"/>
      <point x="195" y="1308" type="qcurve"/>
      <point x="195" y="1332"/>
      <point x="213" y="1373"/>
      <point x="244" y="1402"/>
      <point x="285" y="1419"/>
      <point x="308" y="1419" type="qcurve"/>
      <point x="330" y="1419"/>
      <point x="370" y="1402"/>
      <point x="400" y="1373"/>
      <point x="418" y="1332"/>
    </contour>
  </outline>
</glyph>
<glyph name="u1D110" format="2">
  <advance width="1224"/>
  <unicode hex="1D110"/>
  <outline>
    <contour>
      <point x="612" y="1386" type="qcurve"/>
      <point x="904" y="1386"/>
      <point x="1200" y="948"/>
      <point x="1224" y="617" type="qcurve"/>
      <point x="1184" y="617" type="line"/>
      <point x="1085" y="965"/>
      <point x="802" y="1240"/>
      <point x="612" y="1240" type="qcurve"/>
      <point x="428" y="1240"/>
      <point x="139" y="965"/>
      <point x="42" y="617" type="qcurve"/>
      <point x="0" y="617" type="line"/>
      <point x="24" y="948"/>
      <point x="320" y="1386"/>
    </contour>
    <contour>
      <point x="753" y="636" type="qcurve"/>
      <point x="753" y="570"/>
      <point x="678" y="496"/>
      <point x="612" y="496" type="qcurve"/>
      <point x="582" y="496"/>
      <point x="530" y="516"/>
      <point x="494" y="553"/>
      <point x="473" y="605"/>
      <point x="473" y="636" type="qcurve"/>
      <point x="473" y="667"/>
      <point x="494" y="718"/>
      <point x="530" y="755"/>
      <point x="582" y="776"/>
      <point x="612" y="776" type="qcurve"/>
      <point x="678" y="776"/>
      <point x="753" y="700"/>
    </contour>
  </outline>
</glyph>
<glyph name="u1D176" format="2">
  <unicode hex="1D176"/>
  <outline>
    <contour>
      <point x="-967" y="-664" type="qcurve"/>
      <point x="-967" y="-542" type="line"/>
      <point x="-841" y="-542"/>
      <point x="-673" y="-469"/>
      <point x="-645" y="-378" type="qcurve"/>
      <point x="-612" y="-408" type="line"/>
      <point x="-651" y="-565"/>
      <point x="-853" y="-664"/>
    </contour>
  </outline>
</glyph>
<glyph name="u1D178" format="2">
  <unicode hex="1D178"/>
  <outline>
    <contour>
      <point x="-730" y="-417" type="qcurve"/>
      <point x="-730" y="-466" type="line"/>
      <point x="-707" y="-460"/>
      <point x="-597" y="-424"/>
      <point x="-571" y="-391" type="qcurve"/>
      <point x="-631" y="-391" type="line"/>
      <point x="-671" y="-405"/>
    </contour>
  </outline>
</glyph>
<glyph name="u1D1B2" format="2">
  <advance width="1224"/>
  <unicode hex="1D1B2"/>
  <anchor x="589" y="1870" name="A"/>
  <anchor x="589" y="695" name="C"/>
  <anchor x="589" y="-100" name="L"/>
  <anchor x="589" y="1435" name="U"/>
  <outline>
    <contour>
      <point x="1171" y="-59" type="line"/>
      <point x="589" y="171" type="line"/>
      <point x="628" y="260" type="line"/>
      <point x="1030" y="89" type="line"/>
      <point x="-38" y="1157" type="line"/>
      <point x="49" y="1243" type="line"/>
      <point x="1117" y="175" type="line"/>
      <point x="946" y="577" type="line"/>
      <point x="1034" y="617" type="line"/>
      <point x="1265" y="36" type="line"/>
    </contour>
  </outline>
</glyph>
<glyph name="u1D177.TipAbv" format="2">
  <outline>
    <contour>
      <point x="729" y="1552" type="line"/>
      <point x="670" y="1540"/>
      <point x="630" y="1526" type="qcurve"/>
      <point x="570" y="1526" type="line"/>
      <point x="596" y="1559"/>
      <point x="706" y="1595"/>
      <point x="729" y="1601" type="qcurve"/>
    </contour>
  </outline>
</glyph>
<glyph name="u1D1771D178.Slur01Abv" format="2">
  <outline>
    <contour>
      <point x="-633" y="1899" type="qcurve"/>
      <point x="-561" y="1899"/>
      <point x="-442" y="1863"/>
      <point x="-356" y="1794"/>
      <point x="-305" y="1692"/>
      <point x="-300" y="1626" type="qcurve"/>
      <point x="-361" y="1626" type="line"/>
      <point x="-375" y="1676"/>
      <point x="-428" y="1741"/>
      <point x="-499" y="1779"/>
      <point x="-585" y="1795"/>
      <point x="-633" y="1795" type="qcurve"/>
      <point x="-681" y="1795"/>
      <point x="-767" y="1779"/>
      <point x="-838" y="1741"/>
      <point x="-891" y="1676"/>
      <point x="-905" y="1626" type="qcurve"/>
      <point x="-966" y="1626" type="line"/>
      <point x="-961" y="1692"/>
      <point x="-910" y="1794"/>
      <point x="-824" y="1863"/>
      <point x="-705" y="1899"/>
    </contour>
  </outline>
</glyph>
<glyph name="u1D1771D178.Slur01Below" format="2">
  <outline>
    <contour>
      <point x="-633" y="-664" type="qcurve"/>
      <point x="-561" y="-664"/>
      <point x="-442" y="-628"/>
      <point x="-356" y="-559"/>
      <point x="-305" y="-457"/>
      <point x="-300" y="-391" type="qcurve"/>
      <point x="-361" y="-391" type="line"/>
      <point x="-375" y="-441"/>
      <point x="-428" y="-506"/>
      <point x="-499" y="-544"/>
      <point x="-585" y="-560"/>
      <point x="-633" y="-560" type="qcurve"/>
      <point x="-681" y="-560"/>
      <point x="-767" y="-544"/>
      <point x="-838" y="-506"/>
      <point x="-891" y="-441"/>
      <point x="-905" y="-391" type="qcurve"/>
      <point x="-966" y="-391" type="line"/>
      <point x="-961" y="-457"/>
      <point x="-910" y="-559"/>
      <point x="-824" y="-628"/>
      <point x="-705" y="-664"/>
    </contour>
  </outline>
</glyph>
<glyph name="u1D1771D178.Slur02Abv" format="2">
  <outline>
    <contour>
      <point x="-1177" y="1899" type="qcurve"/>
      <point x="-1087" y="1899"/>
      <point x="-870" y="1863"/>
      <point x="-710" y="1794"/>
      <point x="-614" y="1692"/>
      <point x="-605" y="1626" type="qcurve"/>
      <point x="-665" y="1626" type="line"/>
      <point x="-691" y="1676"/>
      <point x="-805" y="1741"/>
      <point x="-956" y="1779"/>
      <point x="-1131" y="1795"/>
      <point x="-1177" y="1795" type="qcurve"/>
      <point x="-1223" y="1795"/>
      <point x="-1394" y="1779"/>
      <point x="-1543" y="1741"/>
      <point x="-1658" y="1676"/>
      <point x="-1689" y="1626" type="qcurve"/>
      <point x="-1749" y="1626" type="line"/>
      <point x="-1735" y="1692"/>
      <point x="-1638" y="1794"/>
      <point x="-1480" y="1863"/>
      <point x="-1267" y="1899"/>
    </contour>
  </outline>
</glyph>
<glyph name="u1D1771D178.Slur02Below" format="2">
  <outline>
    <contour>
      <point x="-605" y="-391" type="line"/>
      <point x="-620" y="-462"/>
      <point x="-733" y="-565"/>
      <point x="-893" y="-632"/>
      <point x="-1084" y="-664"/>
      <point x="-1177" y="-664" type="qcurve" smooth="yes"/>
      <point x="-1296" y="-664"/>
      <point x="-1498" y="-625"/>
      <point x="-1649" y="-554"/>
      <point x="-1741" y="-453"/>
      <point x="-1749" y="-391" type="qcurve"/>
      <point x="-1689" y="-391" type="line"/>
      <point x="-1671" y="-426"/>
      <point x="-1600" y="-478"/>
      <point x="-1509" y="-516"/>
      <point x="-1405" y="-540"/>
      <point x="-1304" y="-554"/>
      <point x="-1211" y="-560"/>
      <point x="-1177" y="-560" type="qcurve" smooth="yes"/>
      <point x="-1099" y="-560"/>
      <point x="-941" y="-542"/>
      <point x="-802" y="-501"/>
      <point x="-693" y="-437"/>
      <point x="-665" y="-391" type="qcurve"/>
    </contour>
  </outline>
</glyph>
<glyph name="u1D1771D178.Slur03Abv" format="2">
  <outline>
    <contour>
      <point x="-1573" y="1899" type="qcurve"/>
      <point x="-1378" y="1899"/>
      <point x="-1052" y="1863"/>
      <point x="-813" y="1794"/>
      <point x="-669" y="1692"/>
      <point x="-655" y="1626" type="qcurve"/>
      <point x="-715" y="1626" type="line"/>
      <point x="-741" y="1659"/>
      <point x="-840" y="1710"/>
      <point x="-973" y="1747"/>
      <point x="-1133" y="1773"/>
      <point x="-1307" y="1788"/>
      <point x="-1486" y="1795"/>
      <point x="-1573" y="1795" type="qcurve"/>
      <point x="-1703" y="1795"/>
      <point x="-1968" y="1779"/>
      <point x="-2202" y="1741"/>
      <point x="-2384" y="1676"/>
      <point x="-2431" y="1626" type="qcurve"/>
      <point x="-2491" y="1626" type="line"/>
      <point x="-2470" y="1692"/>
      <point x="-2324" y="1794"/>
      <point x="-2088" y="1863"/>
      <point x="-1768" y="1899"/>
    </contour>
  </outline>
</glyph>
<glyph name="u1D1771D178.Slur03Below" format="2">
  <outline>
    <contour>
      <point x="-655" y="-391" type="qcurve"/>
      <point x="-715" y="-391" type="line"/>
      <point x="-762" y="-441"/>
      <point x="-944" y="-506"/>
      <point x="-1178" y="-544"/>
      <point x="-1443" y="-560"/>
      <point x="-1573" y="-560" type="qcurve"/>
      <point x="-1660" y="-560"/>
      <point x="-1839" y="-553"/>
      <point x="-2013" y="-538"/>
      <point x="-2173" y="-512"/>
      <point x="-2306" y="-475"/>
      <point x="-2405" y="-424"/>
      <point x="-2431" y="-391" type="qcurve"/>
      <point x="-2491" y="-391" type="line"/>
      <point x="-2477" y="-457"/>
      <point x="-2333" y="-559"/>
      <point x="-2094" y="-628"/>
      <point x="-1768" y="-664"/>
      <point x="-1573" y="-664" type="qcurve"/>
      <point x="-1378" y="-664"/>
      <point x="-1058" y="-628"/>
      <point x="-822" y="-559"/>
      <point x="-676" y="-457"/>
    </contour>
  </outline>
</glyph>
<glyph name="u1D1771D178.Slur04Abv" format="2">
  <outline>
    <contour>
      <point x="-1779" y="1899" type="qcurve"/>
      <point x="-1525" y="1899"/>
      <point x="-1093" y="1863"/>
      <point x="-770" y="1794"/>
      <point x="-573" y="1692"/>
      <point x="-555" y="1626" type="qcurve"/>
      <point x="-615" y="1626" type="line"/>
      <point x="-648" y="1659"/>
      <point x="-784" y="1710"/>
      <point x="-968" y="1747"/>
      <point x="-1189" y="1773"/>
      <point x="-1425" y="1788"/>
      <point x="-1667" y="1795"/>
      <point x="-1779" y="1795" type="qcurve"/>
      <point x="-1891" y="1795"/>
      <point x="-2128" y="1788"/>
      <point x="-2360" y="1773"/>
      <point x="-2578" y="1747"/>
      <point x="-2762" y="1710"/>
      <point x="-2903" y="1659"/>
      <point x="-2943" y="1626" type="qcurve"/>
      <point x="-3003" y="1626" type="line"/>
      <point x="-2976" y="1692"/>
      <point x="-2777" y="1794"/>
      <point x="-2458" y="1863"/>
      <point x="-2032" y="1899"/>
    </contour>
  </outline>
</glyph>
<glyph name="u1D1771D178.Slur04Below" format="2">
  <outline>
    <contour>
      <point x="-655" y="-391" type="qcurve"/>
      <point x="-715" y="-391" type="line"/>
      <point x="-755" y="-424"/>
      <point x="-896" y="-475"/>
      <point x="-1080" y="-512"/>
      <point x="-1298" y="-538"/>
      <point x="-1530" y="-553"/>
      <point x="-1767" y="-560"/>
      <point x="-1879" y="-560" type="qcurve"/>
      <point x="-1991" y="-560"/>
      <point x="-2233" y="-553"/>
      <point x="-2469" y="-538"/>
      <point x="-2690" y="-512"/>
      <point x="-2874" y="-475"/>
      <point x="-3010" y="-424"/>
      <point x="-3043" y="-391" type="qcurve"/>
      <point x="-3103" y="-391" type="line"/>
      <point x="-3085" y="-457"/>
      <point x="-2888" y="-559"/>
      <point x="-2565" y="-628"/>
      <point x="-2133" y="-664"/>
      <point x="-1879" y="-664" type="qcurve"/>
      <point x="-1626" y="-664"/>
      <point x="-1200" y="-628"/>
      <point x="-881" y="-559"/>
      <point x="-682" y="-457"/>
    </contour>
  </outline>
</glyph>
<glyph name="u1D1771D178.Slur05Abv" format="2">
  <outline>
    <contour>
      <point x="-2185" y="1899" type="qcurve"/>
      <point x="-1982" y="1899"/>
      <point x="-1606" y="1883"/>
      <point x="-1275" y="1852"/>
      <point x="-999" y="1806"/>
      <point x="-794" y="1745"/>
      <point x="-669" y="1670"/>
      <point x="-655" y="1626" type="qcurve"/>
      <point x="-715" y="1626" type="line"/>
      <point x="-755" y="1659"/>
      <point x="-929" y="1710"/>
      <point x="-1166" y="1747"/>
      <point x="-1450" y="1773"/>
      <point x="-1750" y="1788"/>
      <point x="-2050" y="1795"/>
      <point x="-2185" y="1795" type="qcurve"/>
      <point x="-2319" y="1795"/>
      <point x="-2615" y="1788"/>
      <point x="-2910" y="1773"/>
      <point x="-3190" y="1747"/>
      <point x="-3427" y="1710"/>
      <point x="-3607" y="1659"/>
      <point x="-3655" y="1626" type="qcurve"/>
      <point x="-3715" y="1626" type="line"/>
      <point x="-3693" y="1670"/>
      <point x="-3562" y="1745"/>
      <point x="-3357" y="1806"/>
      <point x="-3086" y="1852"/>
      <point x="-2760" y="1883"/>
      <point x="-2388" y="1899"/>
    </contour>
  </outline>
</glyph>
<glyph name="u1D1771D178.Slur05Below" format="2">
  <outline>
    <contour>
      <point x="-655" y="-391" type="qcurve"/>
      <point x="-715" y="-391" type="line"/>
      <point x="-763" y="-424"/>
      <point x="-943" y="-475"/>
      <point x="-1180" y="-512"/>
      <point x="-1460" y="-538"/>
      <point x="-1755" y="-553"/>
      <point x="-2051" y="-560"/>
      <point x="-2185" y="-560" type="qcurve"/>
      <point x="-2320" y="-560"/>
      <point x="-2620" y="-553"/>
      <point x="-2920" y="-538"/>
      <point x="-3204" y="-512"/>
      <point x="-3441" y="-475"/>
      <point x="-3615" y="-424"/>
      <point x="-3655" y="-391" type="qcurve"/>
      <point x="-3715" y="-391" type="line"/>
      <point x="-3701" y="-435"/>
      <point x="-3576" y="-510"/>
      <point x="-3371" y="-571"/>
      <point x="-3095" y="-617"/>
      <point x="-2764" y="-648"/>
      <point x="-2388" y="-664"/>
      <point x="-2185" y="-664" type="qcurve"/>
      <point x="-1982" y="-664"/>
      <point x="-1610" y="-648"/>
      <point x="-1284" y="-617"/>
      <point x="-1013" y="-571"/>
      <point x="-808" y="-510"/>
      <point x="-677" y="-435"/>
    </contour>
  </outline>
</glyph>
<glyph name="u1D1771D178.Slur06Abv" format="2">
  <outline>
    <contour>
      <point x="-2491" y="1899" type="qcurve"/>
      <point x="-2248" y="1899"/>
      <point x="-1796" y="1883"/>
      <point x="-1400" y="1852"/>
      <point x="-1068" y="1806"/>
      <point x="-823" y="1745"/>
      <point x="-672" y="1670"/>
      <point x="-655" y="1626" type="qcurve"/>
      <point x="-715" y="1626" type="line"/>
      <point x="-751" y="1651"/>
      <point x="-888" y="1692"/>
      <point x="-1076" y="1725"/>
      <point x="-1305" y="1751"/>
      <point x="-1560" y="1770"/>
      <point x="-1831" y="1783"/>
      <point x="-2104" y="1791"/>
      <point x="-2370" y="1795"/>
      <point x="-2491" y="1795" type="qcurve"/>
      <point x="-2612" y="1795"/>
      <point x="-2875" y="1791"/>
      <point x="-3143" y="1783"/>
      <point x="-3410" y="1770"/>
      <point x="-3660" y="1751"/>
      <point x="-3888" y="1726"/>
      <point x="-4078" y="1692"/>
      <point x="-4224" y="1651"/>
      <point x="-4267" y="1626" type="qcurve"/>
      <point x="-4327" y="1626" type="line"/>
      <point x="-4301" y="1670"/>
      <point x="-4144" y="1745"/>
      <point x="-3898" y="1806"/>
      <point x="-3572" y="1852"/>
      <point x="-3181" y="1883"/>
      <point x="-2734" y="1899"/>
    </contour>
  </outline>
</glyph>
<glyph name="u1D1771D178.Slur06Below" format="2">
  <outline>
    <contour>
      <point x="-655" y="-391" type="qcurve"/>
      <point x="-715" y="-391" type="line"/>
      <point x="-758" y="-416"/>
      <point x="-904" y="-457"/>
      <point x="-1094" y="-491"/>
      <point x="-1322" y="-516"/>
      <point x="-1572" y="-535"/>
      <point x="-1839" y="-548"/>
      <point x="-2107" y="-556"/>
      <point x="-2370" y="-560"/>
      <point x="-2491" y="-560" type="qcurve"/>
      <point x="-2612" y="-560"/>
      <point x="-2878" y="-556"/>
      <point x="-3151" y="-548"/>
      <point x="-3422" y="-535"/>
      <point x="-3677" y="-516"/>
      <point x="-3906" y="-490"/>
      <point x="-4094" y="-457"/>
      <point x="-4231" y="-416"/>
      <point x="-4267" y="-391" type="qcurve"/>
      <point x="-4327" y="-391" type="line"/>
      <point x="-4310" y="-435"/>
      <point x="-4159" y="-510"/>
      <point x="-3914" y="-571"/>
      <point x="-3582" y="-617"/>
      <point x="-3186" y="-648"/>
      <point x="-2734" y="-664"/>
      <point x="-2491" y="-664" type="qcurve"/>
      <point x="-2248" y="-664"/>
      <point x="-1801" y="-648"/>
      <point x="-1410" y="-617"/>
      <point x="-1084" y="-571"/>
      <point x="-838" y="-510"/>
      <point x="-681" y="-435"/>
    </contour>
  </outline>
</glyph>
<glyph name="u1D1771D178.Slur07Abv" format="2">
  <outline>
    <contour>
      <point x="-2797" y="1899" type="qcurve"/>
      <point x="-2517" y="1899"/>
      <point x="-1993" y="1883"/>
      <point x="-1530" y="1852"/>
      <point x="-1142" y="1806"/>
      <point x="-852" y="1745"/>
      <point x="-675" y="1670"/>
      <point x="-655" y="1626" type="qcurve"/>
      <point x="-715" y="1626" type="line"/>
      <point x="-756" y="1651"/>
      <point x="-918" y="1692"/>
      <point x="-1139" y="1725"/>
      <point x="-1409" y="1751"/>
      <point x="-1709" y="1770"/>
      <point x="-2029" y="1783"/>
      <point x="-2348" y="1791"/>
      <point x="-2657" y="1795"/>
      <point x="-2797" y="1795" type="qcurve"/>
      <point x="-2936" y="1795"/>
      <point x="-3242" y="1791"/>
      <point x="-3556" y="1783"/>
      <point x="-3870" y="1770"/>
      <point x="-4166" y="1750"/>
      <point x="-4435" y="1725"/>
      <point x="-4659" y="1692"/>
      <point x="-4829" y="1651"/>
      <point x="-4879" y="1626" type="qcurve"/>
      <point x="-4939" y="1626" type="line"/>
      <point x="-4909" y="1670"/>
      <point x="-4724" y="1745"/>
      <point x="-4435" y="1806"/>
      <point x="-4051" y="1852"/>
      <point x="-3595" y="1883"/>
      <point x="-3077" y="1899"/>
    </contour>
  </outline>
</glyph>
<glyph name="u1D1771D178.Slur07Below" format="2">
  <outline>
    <contour>
      <point x="-655" y="-391" type="qcurve"/>
      <point x="-715" y="-391" type="line"/>
      <point x="-765" y="-416"/>
      <point x="-935" y="-457"/>
      <point x="-1159" y="-490"/>
      <point x="-1428" y="-515"/>
      <point x="-1724" y="-535"/>
      <point x="-2038" y="-548"/>
      <point x="-2352" y="-556"/>
      <point x="-2658" y="-560"/>
      <point x="-2797" y="-560" type="qcurve"/>
      <point x="-2937" y="-560"/>
      <point x="-3246" y="-556"/>
      <point x="-3565" y="-548"/>
      <point x="-3885" y="-535"/>
      <point x="-4185" y="-516"/>
      <point x="-4455" y="-490"/>
      <point x="-4676" y="-457"/>
      <point x="-4838" y="-416"/>
      <point x="-4879" y="-391" type="qcurve"/>
      <point x="-4939" y="-391" type="line"/>
      <point x="-4919" y="-435"/>
      <point x="-4742" y="-510"/>
      <point x="-4452" y="-571"/>
      <point x="-4064" y="-617"/>
      <point x="-3601" y="-648"/>
      <point x="-3077" y="-664"/>
      <point x="-2797" y="-664" type="qcurve"/>
      <point x="-2517" y="-664"/>
      <point x="-1999" y="-648"/>
      <point x="-1543" y="-617"/>
      <point x="-1159" y="-571"/>
      <point x="-870" y="-510"/>
      <point x="-685" y="-435"/>
    </contour>
  </outline>
</glyph>
<glyph name="u1D1771D178.Slur08Abv" format="2">
  <outline>
    <contour>
      <point x="-3103" y="1899" type="qcurve"/>
      <point x="-2781" y="1899"/>
      <point x="-2181" y="1883"/>
      <point x="-1652" y="1852"/>
      <point x="-1209" y="1806"/>
      <point x="-880" y="1745"/>
      <point x="-678" y="1670"/>
      <point x="-655" y="1626" type="qcurve"/>
      <point x="-715" y="1626" type="line"/>
      <point x="-762" y="1651"/>
      <point x="-947" y="1692"/>
      <point x="-1200" y="1726"/>
      <point x="-1510" y="1751"/>
      <point x="-1855" y="1770"/>
      <point x="-2221" y="1783"/>
      <point x="-2588" y="1791"/>
      <point x="-2943" y="1795"/>
      <point x="-3103" y="1795" type="qcurve"/>
      <point x="-3263" y="1795"/>
      <point x="-3614" y="1791"/>
      <point x="-3974" y="1783"/>
      <point x="-4334" y="1770"/>
      <point x="-4674" y="1751"/>
      <point x="-4982" y="1725"/>
      <point x="-5239" y="1692"/>
      <point x="-5434" y="1651"/>
      <point x="-5491" y="1626" type="qcurve"/>
      <point x="-5551" y="1626" type="line"/>
      <point x="-5517" y="1670"/>
      <point x="-5306" y="1745"/>
      <point x="-4977" y="1806"/>
      <point x="-4540" y="1852"/>
      <point x="-4019" y="1883"/>
      <point x="-3425" y="1899"/>
    </contour>
  </outline>
</glyph>
<glyph name="u1D1771D178.Slur08Below" format="2">
  <outline>
    <contour>
      <point x="-655" y="-391" type="qcurve"/>
      <point x="-715" y="-391" type="line"/>
      <point x="-772" y="-416"/>
      <point x="-967" y="-457"/>
      <point x="-1224" y="-490"/>
      <point x="-1532" y="-516"/>
      <point x="-1872" y="-535"/>
      <point x="-2232" y="-548"/>
      <point x="-2592" y="-556"/>
      <point x="-2943" y="-560"/>
      <point x="-3103" y="-560" type="qcurve"/>
      <point x="-3263" y="-560"/>
      <point x="-3618" y="-556"/>
      <point x="-3985" y="-548"/>
      <point x="-4351" y="-535"/>
      <point x="-4696" y="-516"/>
      <point x="-5006" y="-491"/>
      <point x="-5259" y="-457"/>
      <point x="-5444" y="-416"/>
      <point x="-5491" y="-391" type="qcurve"/>
      <point x="-5551" y="-391" type="line"/>
      <point x="-5528" y="-435"/>
      <point x="-5326" y="-510"/>
      <point x="-4997" y="-571"/>
      <point x="-4554" y="-617"/>
      <point x="-4025" y="-648"/>
      <point x="-3425" y="-664"/>
      <point x="-3103" y="-664" type="qcurve"/>
      <point x="-2781" y="-664"/>
      <point x="-2187" y="-648"/>
      <point x="-1666" y="-617"/>
      <point x="-1229" y="-571"/>
      <point x="-900" y="-510"/>
      <point x="-689" y="-435"/>
    </contour>
  </outline>
</glyph>
<glyph name="u1D1771D178.Slur09Abv" format="2">
  <outline>
    <contour>
      <point x="-3409" y="1899" type="qcurve"/>
      <point x="-3039" y="1899"/>
      <point x="-2358" y="1883"/>
      <point x="-1763" y="1852"/>
      <point x="-1269" y="1806"/>
      <point x="-904" y="1745"/>
      <point x="-681" y="1670"/>
      <point x="-655" y="1626" type="qcurve"/>
      <point x="-715" y="1626" type="line"/>
      <point x="-770" y="1651"/>
      <point x="-978" y="1692"/>
      <point x="-1262" y="1725"/>
      <point x="-1609" y="1750"/>
      <point x="-1995" y="1770"/>
      <point x="-2407" y="1783"/>
      <point x="-2821" y="1791"/>
      <point x="-3224" y="1795"/>
      <point x="-3409" y="1795" type="qcurve"/>
      <point x="-3593" y="1795"/>
      <point x="-3992" y="1791"/>
      <point x="-4399" y="1783"/>
      <point x="-4804" y="1770"/>
      <point x="-5184" y="1751"/>
      <point x="-5529" y="1726"/>
      <point x="-5817" y="1692"/>
      <point x="-6038" y="1651"/>
      <point x="-6103" y="1626" type="qcurve"/>
      <point x="-6163" y="1626" type="line"/>
      <point x="-6124" y="1670"/>
      <point x="-5891" y="1745"/>
      <point x="-5525" y="1806"/>
      <point x="-5039" y="1852"/>
      <point x="-4453" y="1883"/>
      <point x="-3779" y="1899"/>
    </contour>
  </outline>
</glyph>
<glyph name="u1D1771D178.Slur09Below" format="2">
  <outline>
    <contour>
      <point x="-655" y="-391" type="qcurve"/>
      <point x="-715" y="-391" type="line"/>
      <point x="-780" y="-416"/>
      <point x="-1001" y="-457"/>
      <point x="-1289" y="-491"/>
      <point x="-1634" y="-516"/>
      <point x="-2014" y="-535"/>
      <point x="-2419" y="-548"/>
      <point x="-2826" y="-556"/>
      <point x="-3225" y="-560"/>
      <point x="-3409" y="-560" type="qcurve"/>
      <point x="-3594" y="-560"/>
      <point x="-3997" y="-556"/>
      <point x="-4411" y="-548"/>
      <point x="-4823" y="-535"/>
      <point x="-5209" y="-515"/>
      <point x="-5556" y="-490"/>
      <point x="-5840" y="-457"/>
      <point x="-6048" y="-416"/>
      <point x="-6103" y="-391" type="qcurve"/>
      <point x="-6163" y="-391" type="line"/>
      <point x="-6137" y="-435"/>
      <point x="-5914" y="-510"/>
      <point x="-5549" y="-571"/>
      <point x="-5055" y="-617"/>
      <point x="-4460" y="-648"/>
      <point x="-3779" y="-664"/>
      <point x="-3409" y="-664" type="qcurve"/>
      <point x="-3039" y="-664"/>
      <point x="-2365" y="-648"/>
      <point x="-1779" y="-617"/>
      <point x="-1293" y="-571"/>
      <point x="-927" y="-510"/>
      <point x="-694" y="-435"/>
    </contour>
  </outline>
</glyph>
<glyph name="u1D1771D178.Slur10Abv" format="2">
  <outline>
    <contour>
      <point x="-3715" y="1899" type="qcurve"/>
      <point x="-3308" y="1899"/>
      <point x="-2554" y="1883"/>
      <point x="-1893" y="1852"/>
      <point x="-1343" y="1806"/>
      <point x="-934" y="1745"/>
      <point x="-684" y="1670"/>
      <point x="-655" y="1626" type="qcurve"/>
      <point x="-715" y="1626" type="line"/>
      <point x="-775" y="1651"/>
      <point x="-1007" y="1692"/>
      <point x="-1325" y="1725"/>
      <point x="-1714" y="1751"/>
      <point x="-2145" y="1770"/>
      <point x="-2605" y="1783"/>
      <point x="-3065" y="1791"/>
      <point x="-3512" y="1795"/>
      <point x="-3715" y="1795" type="qcurve"/>
      <point x="-3917" y="1795"/>
      <point x="-4359" y="1791"/>
      <point x="-4812" y="1783"/>
      <point x="-5264" y="1770"/>
      <point x="-5689" y="1751"/>
      <point x="-6076" y="1725"/>
      <point x="-6398" y="1692"/>
      <point x="-6643" y="1651"/>
      <point x="-6715" y="1626" type="qcurve"/>
      <point x="-6775" y="1626" type="line"/>
      <point x="-6732" y="1670"/>
      <point x="-6471" y="1745"/>
      <point x="-6062" y="1806"/>
      <point x="-5519" y="1852"/>
      <point x="-4868" y="1883"/>
      <point x="-4122" y="1899"/>
    </contour>
  </outline>
</glyph>
<glyph name="u1D1771D178.Slur10Below" format="2">
  <outline>
    <contour>
      <point x="-655" y="-391" type="qcurve"/>
      <point x="-715" y="-391" type="line"/>
      <point x="-787" y="-416"/>
      <point x="-1032" y="-457"/>
      <point x="-1354" y="-490"/>
      <point x="-1741" y="-516"/>
      <point x="-2166" y="-535"/>
      <point x="-2618" y="-548"/>
      <point x="-3071" y="-556"/>
      <point x="-3513" y="-560"/>
      <point x="-3715" y="-560" type="qcurve"/>
      <point x="-3918" y="-560"/>
      <point x="-4365" y="-556"/>
      <point x="-4825" y="-548"/>
      <point x="-5285" y="-535"/>
      <point x="-5716" y="-516"/>
      <point x="-6105" y="-490"/>
      <point x="-6423" y="-457"/>
      <point x="-6655" y="-416"/>
      <point x="-6715" y="-391" type="qcurve"/>
      <point x="-6775" y="-391" type="line"/>
      <point x="-6746" y="-435"/>
      <point x="-6496" y="-510"/>
      <point x="-6087" y="-571"/>
      <point x="-5537" y="-617"/>
      <point x="-4876" y="-648"/>
      <point x="-4122" y="-664"/>
      <point x="-3715" y="-664" type="qcurve"/>
      <point x="-3308" y="-664"/>
      <point x="-2562" y="-648"/>
      <point x="-1911" y="-617"/>
      <point x="-1368" y="-571"/>
      <point x="-959" y="-510"/>
      <point x="-698" y="-435"/>
    </contour>
  </outline>
</glyph>
<glyph name="u1D1771D178.Slur11Abv" format="2">
  <outline>
    <contour>
      <point x="-4021" y="1899" type="qcurve"/>
      <point x="-3685" y="1899"/>
      <point x="-3049" y="1890"/>
      <point x="-2465" y="1872"/>
      <point x="-1940" y="1846"/>
      <point x="-1489" y="1812"/>
      <point x="-1120" y="1769"/>
      <point x="-847" y="1718"/>
      <point x="-679" y="1659"/>
      <point x="-655" y="1626" type="qcurve"/>
      <point x="-715" y="1626" type="line"/>
      <point x="-781" y="1651"/>
      <point x="-1038" y="1692"/>
      <point x="-1388" y="1725"/>
      <point x="-1816" y="1751"/>
      <point x="-2291" y="1770"/>
      <point x="-2798" y="1783"/>
      <point x="-3306" y="1791"/>
      <point x="-3798" y="1795"/>
      <point x="-4021" y="1795" type="qcurve"/>
      <point x="-4244" y="1795"/>
      <point x="-4730" y="1791"/>
      <point x="-5229" y="1783"/>
      <point x="-5727" y="1770"/>
      <point x="-6197" y="1751"/>
      <point x="-6623" y="1725"/>
      <point x="-6978" y="1692"/>
      <point x="-7248" y="1651"/>
      <point x="-7327" y="1626" type="qcurve"/>
      <point x="-7387" y="1626" type="line"/>
      <point x="-7340" y="1670"/>
      <point x="-7053" y="1745"/>
      <point x="-6604" y="1806"/>
      <point x="-6006" y="1852"/>
      <point x="-5289" y="1883"/>
      <point x="-4469" y="1899"/>
    </contour>
  </outline>
</glyph>
<glyph name="u1D1771D178.Slur11Below" format="2">
  <outline>
    <contour>
      <point x="-655" y="-391" type="qcurve"/>
      <point x="-715" y="-391" type="line"/>
      <point x="-794" y="-416"/>
      <point x="-1064" y="-457"/>
      <point x="-1419" y="-490"/>
      <point x="-1845" y="-516"/>
      <point x="-2315" y="-535"/>
      <point x="-2813" y="-548"/>
      <point x="-3312" y="-556"/>
      <point x="-3798" y="-560"/>
      <point x="-4021" y="-560" type="qcurve"/>
      <point x="-4244" y="-560"/>
      <point x="-4736" y="-556"/>
      <point x="-5244" y="-548"/>
      <point x="-5751" y="-535"/>
      <point x="-6226" y="-516"/>
      <point x="-6654" y="-490"/>
      <point x="-7004" y="-457"/>
      <point x="-7261" y="-416"/>
      <point x="-7327" y="-391" type="qcurve"/>
      <point x="-7387" y="-391" type="line"/>
      <point x="-7363" y="-424"/>
      <point x="-7195" y="-483"/>
      <point x="-6922" y="-534"/>
      <point x="-6553" y="-577"/>
      <point x="-6102" y="-611"/>
      <point x="-5577" y="-637"/>
      <point x="-4993" y="-655"/>
      <point x="-4357" y="-664"/>
      <point x="-4021" y="-664" type="qcurve"/>
      <point x="-3573" y="-664"/>
      <point x="-2753" y="-648"/>
      <point x="-2036" y="-617"/>
      <point x="-1438" y="-571"/>
      <point x="-989" y="-510"/>
      <point x="-702" y="-435"/>
    </contour>
  </outline>
</glyph>
<glyph name="u1D1771D178.Slur12Abv" format="2">
  <outline>
    <contour>
      <point x="-4327" y="1899" type="qcurve"/>
      <point x="-3957" y="1899"/>
      <point x="-3261" y="1890"/>
      <point x="-2622" y="1872"/>
      <point x="-2050" y="1846"/>
      <point x="-1559" y="1812"/>
      <point x="-1158" y="1769"/>
      <point x="-863" y="1718"/>
      <point x="-681" y="1659"/>
      <point x="-655" y="1626" type="qcurve"/>
      <point x="-715" y="1626" type="line"/>
      <point x="-788" y="1651"/>
      <point x="-1068" y="1692"/>
      <point x="-1450" y="1725"/>
      <point x="-1916" y="1751"/>
      <point x="-2435" y="1770"/>
      <point x="-2988" y="1783"/>
      <point x="-3543" y="1791"/>
      <point x="-4082" y="1795"/>
      <point x="-4327" y="1795" type="qcurve"/>
      <point x="-4572" y="1795"/>
      <point x="-5105" y="1791"/>
      <point x="-5651" y="1783"/>
      <point x="-6194" y="1770"/>
      <point x="-6706" y="1751"/>
      <point x="-7170" y="1725"/>
      <point x="-7557" y="1692"/>
      <point x="-7852" y="1651"/>
      <point x="-7939" y="1626" type="qcurve"/>
      <point x="-7999" y="1626" type="line"/>
      <point x="-7947" y="1670"/>
      <point x="-7636" y="1745"/>
      <point x="-7148" y="1806"/>
      <point x="-6499" y="1852"/>
      <point x="-5718" y="1883"/>
      <point x="-4819" y="1899"/>
    </contour>
  </outline>
</glyph>
<glyph name="u1D1771D178.Slur12Below" format="2">
  <outline>
    <contour>
      <point x="-655" y="-391" type="qcurve"/>
      <point x="-715" y="-391" type="line"/>
      <point x="-802" y="-416"/>
      <point x="-1097" y="-457"/>
      <point x="-1484" y="-490"/>
      <point x="-1948" y="-516"/>
      <point x="-2460" y="-535"/>
      <point x="-3003" y="-548"/>
      <point x="-3549" y="-556"/>
      <point x="-4082" y="-560"/>
      <point x="-4327" y="-560" type="qcurve"/>
      <point x="-4572" y="-560"/>
      <point x="-5111" y="-556"/>
      <point x="-5666" y="-548"/>
      <point x="-6219" y="-535"/>
      <point x="-6738" y="-516"/>
      <point x="-7204" y="-490"/>
      <point x="-7586" y="-457"/>
      <point x="-7866" y="-416"/>
      <point x="-7939" y="-391" type="qcurve"/>
      <point x="-7999" y="-391" type="line"/>
      <point x="-7973" y="-424"/>
      <point x="-7791" y="-483"/>
      <point x="-7496" y="-534"/>
      <point x="-7095" y="-577"/>
      <point x="-6604" y="-611"/>
      <point x="-6032" y="-637"/>
      <point x="-5393" y="-655"/>
      <point x="-4697" y="-664"/>
      <point x="-4327" y="-664" type="qcurve"/>
      <point x="-3835" y="-664"/>
      <point x="-2936" y="-648"/>
      <point x="-2155" y="-617"/>
      <point x="-1506" y="-571"/>
      <point x="-1018" y="-510"/>
      <point x="-707" y="-435"/>
    </contour>
  </outline>
</glyph>
<glyph name="u1D1771D178.Slur13Abv" format="2">
  <outline>
    <contour>
      <point x="-4633" y="1899" type="qcurve"/>
      <point x="-3957" y="1899"/>
      <point x="-3261" y="1890"/>
      <point x="-2622" y="1872"/>
      <point x="-2050" y="1846"/>
      <point x="-1559" y="1812"/>
      <point x="-1158" y="1769"/>
      <point x="-863" y="1718"/>
      <point x="-681" y="1659"/>
      <point x="-655" y="1626" type="qcurve"/>
      <point x="-715" y="1626" type="line"/>
      <point x="-788" y="1651"/>
      <point x="-1068" y="1692"/>
      <point x="-1450" y="1725"/>
      <point x="-1916" y="1751"/>
      <point x="-2435" y="1770"/>
      <point x="-2988" y="1783"/>
      <point x="-3543" y="1791"/>
      <point x="-4082" y="1795"/>
      <point x="-4633" y="1795" type="qcurve"/>
      <point x="-5184" y="1795"/>
      <point x="-5717" y="1791"/>
      <point x="-6263" y="1783"/>
      <point x="-6806" y="1770"/>
      <point x="-7318" y="1751"/>
      <point x="-7782" y="1725"/>
      <point x="-8169" y="1692"/>
      <point x="-8464" y="1651"/>
      <point x="-8551" y="1626" type="qcurve"/>
      <point x="-8611" y="1626" type="line"/>
      <point x="-8559" y="1670"/>
      <point x="-8248" y="1745"/>
      <point x="-7760" y="1806"/>
      <point x="-7111" y="1852"/>
      <point x="-6330" y="1883"/>
      <point x="-5431" y="1899"/>
    </contour>
  </outline>
</glyph>
<glyph name="u1D1771D178.Slur13Below" format="2">
  <outline>
    <contour>
      <point x="-655" y="-391" type="qcurve"/>
      <point x="-715" y="-391" type="line"/>
      <point x="-802" y="-416"/>
      <point x="-1097" y="-457"/>
      <point x="-1484" y="-490"/>
      <point x="-1948" y="-516"/>
      <point x="-2460" y="-535"/>
      <point x="-3003" y="-548"/>
      <point x="-3549" y="-556"/>
      <point x="-4082" y="-560"/>
      <point x="-4633" y="-560" type="qcurve"/>
      <point x="-5184" y="-560"/>
      <point x="-5723" y="-556"/>
      <point x="-6278" y="-548"/>
      <point x="-6831" y="-535"/>
      <point x="-7350" y="-516"/>
      <point x="-7816" y="-490"/>
      <point x="-8198" y="-457"/>
      <point x="-8478" y="-416"/>
      <point x="-8551" y="-391" type="qcurve"/>
      <point x="-8611" y="-391" type="line"/>
      <point x="-8585" y="-424"/>
      <point x="-8403" y="-483"/>
      <point x="-8108" y="-534"/>
      <point x="-7707" y="-577"/>
      <point x="-7216" y="-611"/>
      <point x="-6644" y="-637"/>
      <point x="-6005" y="-655"/>
      <point x="-5309" y="-664"/>
      <point x="-4633" y="-664" type="qcurve"/>
      <point x="-3835" y="-664"/>
      <point x="-2936" y="-648"/>
      <point x="-2155" y="-617"/>
      <point x="-1506" y="-571"/>
      <point x="-1018" y="-510"/>
      <point x="-707" y="-435"/>
    </contour>
  </outline>
</glyph>
<glyph name="u1D1771D178.Slur14Below" format="2">
  <outline>
    <contour>
      <point x="-655" y="-391" type="qcurve"/>
      <point x="-715" y="-391" type="line"/>
      <point x="-802" y="-416"/>
      <point x="-1097" y="-457"/>
      <point x="-1484" y="-490"/>
      <point x="-1948" y="-516"/>
      <point x="-2460" y="-535"/>
      <point x="-3003" y="-548"/>
      <point x="-3549" y="-556"/>
      <point x="-4082" y="-560"/>
      <point x="-4939" y="-560" type="qcurve"/>
      <point x="-5796" y="-560"/>
      <point x="-6335" y="-556"/>
      <point x="-6890" y="-548"/>
      <point x="-7443" y="-535"/>
      <point x="-7962" y="-516"/>
      <point x="-8428" y="-490"/>
      <point x="-8810" y="-457"/>
      <point x="-9090" y="-416"/>
      <point x="-9163" y="-391" type="qcurve"/>
      <point x="-9223" y="-391" type="line"/>
      <point x="-9197" y="-424"/>
      <point x="-9015" y="-483"/>
      <point x="-8720" y="-534"/>
      <point x="-8319" y="-577"/>
      <point x="-7828" y="-611"/>
      <point x="-7256" y="-637"/>
      <point x="-6617" y="-655"/>
      <point x="-5921" y="-664"/>
      <point x="-4939" y="-664" type="qcurve"/>
      <point x="-3835" y="-664"/>
      <point x="-2936" y="-648"/>
      <point x="-2155" y="-617"/>
      <point x="-1506" y="-571"/>
      <point x="-1018" y="-510"/>
      <point x="-707" y="-435"/>
    </contour>
  </outline>
</glyph>
<glyph name="u1D178.TipAbv" format="2">
  <outline>
    <contour>
      <point x="-730" y="1552" type="line"/>
      <point x="-671" y="1540"/>
      <point x="-631" y="1526" type="qcurve"/>
      <point x="-571" y="1526" type="line"/>
      <point x="-597" y="1559"/>
      <point x="-707" y="1595"/>
      <point x="-730" y="1601" type="qcurve"/>
    </contour>
  </outline>
</glyph>
<glyph name="u1D178.TipBlw" format="2">
  <outline>
    <contour>
      <point x="-571" y="-391" type="qcurve"/>
      <point x="-631" y="-391" type="line"/>
      <point x="-672" y="-412"/>
      <point x="-730" y="-417" type="qcurve"/>
      <point x="-730" y="-466" type="line"/>
      <point x="-705" y="-465"/>
      <point x="-597" y="-424"/>
    </contour>
  </outline>
</glyph>
<glyph name="uni0333.half" format="2">
  <anchor x="-256" y="-500" name="L"/>
  <anchor x="-256" y="-100" name="_L"/>
  <outline>
    <contour>
      <point x="-655" y="-515" type="line"/>
      <point x="-655" y="-406" type="line"/>
      <point x="131" y="-406" type="line"/>
      <point x="131" y="-515" type="line"/>
    </contour>
    <contour>
      <point x="-655" y="-295" type="line"/>
      <point x="-655" y="-186" type="line"/>
      <point x="131" y="-186" type="line"/>
      <point x="131" y="-295" type="line"/>
    </contour>
  </outline>
</glyph>
<glyph name="uni033F.half" format="2">
  <anchor x="-256" y="1000" name="_A"/>
  <outline>
    <contour>
      <point x="-655" y="1345" type="line"/>
      <point x="-655" y="1454" type="line"/>
      <point x="131" y="1454" type="line"/>
      <point x="131" y="1345" type="line"/>
    </contour>
    <contour>
      <point x="-655" y="1125" type="line"/>
      <point x="-655" y="1234" type="line"/>
      <point x="131" y="1234" type="line"/>
      <point x="131" y="1125" type="line"/>
    </contour>
  </outline>
</glyph>
<glyph name="uni266E.Lrg" format="2">
  <advance width="1224"/>
  <outline>
    <contour>
      <point x="883" y="-291" type="line"/>
      <point x="786" y="-291" type="line"/>
      <point x="786" y="264" type="line"/>
      <point x="340" y="137" type="line"/>
      <point x="340" y="1475" type="line"/>
      <point x="430" y="1475" type="line"/>
      <point x="430" y="920" type="line"/>
      <point x="883" y="1049" type="line"/>
    </contour>
    <contour>
      <point x="786" y="494" type="line"/>
      <point x="786" y="793" type="line"/>
      <point x="430" y="690" type="line"/>
      <point x="430" y="391" type="line"/>
    </contour>
  </outline>
</glyph>
<glyph name="uni266F.Lrg" format="2">
  <advance width="1224"/>
  <outline>
    <contour>
      <point x="936" y="309" type="line"/>
      <point x="799" y="270" type="line"/>
      <point x="799" y="-211" type="line"/>
      <point x="705" y="-211" type="line"/>
      <point x="705" y="244" type="line"/>
      <point x="516" y="190" type="line"/>
      <point x="516" y="-291" type="line"/>
      <point x="420" y="-291" type="line"/>
      <point x="420" y="164" type="line"/>
      <point x="287" y="127" type="line"/>
      <point x="287" y="354" type="line"/>
      <point x="420" y="393" type="line"/>
      <point x="420" y="758" type="line"/>
      <point x="287" y="721" type="line"/>
      <point x="287" y="950" type="line"/>
      <point x="420" y="987" type="line"/>
      <point x="420" y="1468" type="line"/>
      <point x="516" y="1468" type="line"/>
      <point x="516" y="1014" type="line"/>
      <point x="705" y="1067" type="line"/>
      <point x="705" y="1548" type="line"/>
      <point x="799" y="1548" type="line"/>
      <point x="799" y="1096" type="line"/>
      <point x="936" y="1135" type="line"/>
      <point x="936" y="905" type="line"/>
      <point x="799" y="866" type="line"/>
      <point x="799" y="500" type="line"/>
      <point x="936" y="539" type="line"/>
    </contour>
    <contour>
      <point x="705" y="473" type="line"/>
      <point x="705" y="840" type="line"/>
      <point x="516" y="786" type="line"/>
      <point x="516" y="420" type="line"/>
    </contour>
  </outline>
</glyph>
